%TF.GenerationSoftware,Altium Limited,Altium Designer,20.0.13 (296)*%
G04 Layer_Physical_Order=2*
G04 Layer_Color=16711680*
%FSLAX45Y45*%
%MOMM*%
%TF.FileFunction,Copper,L2,Bot,Signal*%
%TF.Part,Single*%
G01*
G75*
%TA.AperFunction,Conductor*%
%ADD10C,0.50800*%
%ADD11C,1.01600*%
%ADD13C,1.77800*%
%ADD15C,2.03200*%
%ADD17C,3.81000*%
%ADD18C,5.58800*%
%ADD19C,1.52400*%
%ADD23C,2.54000*%
%ADD25C,5.08000*%
%ADD27C,3.04800*%
%TA.AperFunction,ComponentPad*%
%ADD69C,2.03200*%
%ADD70C,1.77800*%
G04:AMPARAMS|DCode=71|XSize=1.524mm|YSize=2.032mm|CornerRadius=0mm|HoleSize=0mm|Usage=FLASHONLY|Rotation=135.000|XOffset=0mm|YOffset=0mm|HoleType=Round|Shape=Round|*
%AMOVALD71*
21,1,0.50800,1.52400,0.00000,0.00000,225.0*
1,1,1.52400,0.17961,0.17961*
1,1,1.52400,-0.17961,-0.17961*
%
%ADD71OVALD71*%

G04:AMPARAMS|DCode=72|XSize=5.08mm|YSize=3.048mm|CornerRadius=0.762mm|HoleSize=0mm|Usage=FLASHONLY|Rotation=45.000|XOffset=0mm|YOffset=0mm|HoleType=Round|Shape=RoundedRectangle|*
%AMROUNDEDRECTD72*
21,1,5.08000,1.52400,0,0,45.0*
21,1,3.55600,3.04800,0,0,45.0*
1,1,1.52400,1.79605,0.71842*
1,1,1.52400,-0.71842,-1.79605*
1,1,1.52400,-1.79605,-0.71842*
1,1,1.52400,0.71842,1.79605*
%
%ADD72ROUNDEDRECTD72*%
%TA.AperFunction,ViaPad*%
%ADD73C,4.06400*%
%ADD74C,0.76200*%
%ADD75C,1.27000*%
%TA.AperFunction,Conductor*%
%ADD76C,4.06400*%
%ADD77C,7.62000*%
%ADD78C,5.33400*%
%ADD79C,4.00000*%
G36*
X4211510Y9050870D02*
X4215036Y9050165D01*
X4217856Y9048755D01*
X4220324Y9047345D01*
X4222440Y9045935D01*
X4223850Y9044524D01*
X4224907Y9043819D01*
X4225260Y9043467D01*
X4227728Y9040646D01*
X4229491Y9037473D01*
X4230901Y9034300D01*
X4231606Y9031480D01*
X4232311Y9029012D01*
X4232664Y9026897D01*
Y9025134D01*
X4231959Y9018436D01*
X4230548Y9012442D01*
X4228080Y9007154D01*
X4225613Y9002571D01*
X4222792Y8999045D01*
X4220324Y8996225D01*
X4218914Y8994815D01*
X4218209Y8994110D01*
X4215389Y8991994D01*
X4211863Y8989879D01*
X4204459Y8986353D01*
X4196351Y8983180D01*
X4188595Y8980713D01*
X4181191Y8978597D01*
X4178018Y8977892D01*
X4175198Y8977187D01*
X4172730Y8976834D01*
X4170967Y8976482D01*
X4169909Y8976129D01*
X4169557D01*
X4166384Y8975777D01*
X4163916Y8975072D01*
X4161448Y8974719D01*
X4159685Y8974367D01*
X4158275Y8974014D01*
X4157217D01*
X4156865Y8973662D01*
X4156512D01*
X4153692Y8972604D01*
X4151577Y8970841D01*
X4150166Y8969431D01*
X4149461Y8969078D01*
Y8968726D01*
X4146993Y8966258D01*
X4144878Y8964143D01*
X4142763Y8962732D01*
X4141000Y8962027D01*
X4139590Y8961322D01*
X4138532Y8960970D01*
X4137827D01*
X4137475D01*
X4136064Y8961322D01*
X4134302Y8962027D01*
X4131481Y8964848D01*
X4129366Y8967316D01*
X4129013Y8968021D01*
X4128661Y8968373D01*
X4128308Y8969078D01*
X4127603Y8969783D01*
X4127251D01*
X4122667D01*
X4117379Y8969078D01*
X4112091Y8968726D01*
X4106450Y8968021D01*
X4101867Y8967316D01*
X4097636Y8966963D01*
X4096226Y8966610D01*
X4095168Y8966258D01*
X4094463D01*
X4094111D01*
X4088470Y8965553D01*
X4083534Y8964848D01*
X4078951Y8964143D01*
X4074720Y8963790D01*
X4071195Y8963437D01*
X4068022Y8963085D01*
X4065201Y8962732D01*
X4062734D01*
X4060618Y8962380D01*
X4058855D01*
X4056388Y8962027D01*
X4054977D01*
X4054625D01*
X4051452D01*
X4048631Y8962732D01*
X4046164Y8963437D01*
X4044048Y8964143D01*
X4040875Y8966610D01*
X4038760Y8969431D01*
X4037350Y8971899D01*
X4036645Y8974367D01*
X4036292Y8975777D01*
Y8976482D01*
X4036645Y8979655D01*
X4037702Y8982475D01*
X4038760Y8984591D01*
X4039113Y8984943D01*
Y8985296D01*
X4041228Y8988116D01*
X4043343Y8989879D01*
X4044753Y8990584D01*
X4045459Y8990937D01*
X4049337Y8990584D01*
X4052862Y8990231D01*
X4056035Y8989879D01*
X4058855D01*
X4060971Y8989526D01*
X4062734D01*
X4063791D01*
X4064144D01*
X4070842D01*
X4073663Y8989879D01*
X4076483D01*
X4078598D01*
X4080714Y8990231D01*
X4081771D01*
X4082124D01*
X4101162Y8991994D01*
X4101514D01*
X4106097Y8992347D01*
X4111033Y8993052D01*
X4115616Y8993757D01*
X4119847Y8994110D01*
X4123725Y8994815D01*
X4126545Y8995167D01*
X4128661Y8995520D01*
X4129366D01*
Y8996577D01*
X4129718Y8998340D01*
X4130071Y9001866D01*
X4130424Y9003276D01*
X4130776Y9004686D01*
Y9010679D01*
X4131129Y9014910D01*
X4131834Y9018788D01*
X4132539Y9022314D01*
X4132891Y9025134D01*
X4133597Y9027602D01*
X4133949Y9029012D01*
Y9029365D01*
X4135359Y9033243D01*
X4136769Y9036063D01*
X4138532Y9037826D01*
X4140295Y9039236D01*
X4141705Y9039941D01*
X4143115Y9040646D01*
X4143821D01*
X4144173D01*
X4146641Y9040294D01*
X4148404Y9039236D01*
X4149814Y9037473D01*
X4150519Y9036063D01*
X4150872Y9034300D01*
X4151224Y9032538D01*
Y8999750D01*
X4151577Y8998693D01*
X4151929Y8998340D01*
X4152282Y8997988D01*
X4152634D01*
X4158628Y8998340D01*
X4164621Y8999045D01*
X4170967Y9000455D01*
X4176608Y9001866D01*
X4181544Y9002923D01*
X4185774Y9004334D01*
X4187184Y9004686D01*
X4188242Y9005039D01*
X4188947Y9005391D01*
X4189300D01*
X4193178Y9006801D01*
X4196351Y9008212D01*
X4199524Y9009622D01*
X4201992Y9011385D01*
X4204107Y9012442D01*
X4205870Y9013852D01*
X4208338Y9016320D01*
X4210100Y9018436D01*
X4210805Y9020198D01*
X4211158Y9021256D01*
Y9023019D01*
X4210453Y9024076D01*
X4208690Y9025839D01*
X4205870Y9026897D01*
X4203049Y9027955D01*
X4199876Y9028307D01*
X4197056Y9028660D01*
X4195293D01*
X4194941D01*
X4194588D01*
X4185422Y9028307D01*
X4183306Y9028660D01*
X4181544Y9029365D01*
X4180486Y9030070D01*
X4180133Y9030422D01*
X4179076Y9032185D01*
X4178723Y9033595D01*
X4178371Y9035006D01*
Y9035358D01*
X4178723Y9037826D01*
X4179781Y9039941D01*
X4181544Y9042057D01*
X4183306Y9043819D01*
X4185069Y9044877D01*
X4186832Y9045935D01*
X4187890Y9046287D01*
X4188242Y9046640D01*
X4192120Y9048050D01*
X4195646Y9049460D01*
X4198819Y9050165D01*
X4201639Y9050518D01*
X4204107Y9050870D01*
X4206222Y9051223D01*
X4207280D01*
X4207632D01*
X4211510Y9050870D01*
D02*
G37*
G36*
X3955981Y9020551D02*
X3958801Y9019846D01*
X3961269Y9018788D01*
X3963385Y9017378D01*
X3964795Y9015968D01*
X3966205Y9014910D01*
X3966910Y9014205D01*
X3967263Y9013852D01*
X3969378Y9011032D01*
X3970788Y9008212D01*
X3971846Y9005391D01*
X3972551Y9002571D01*
X3972903Y9000103D01*
X3973256Y8997988D01*
Y8993757D01*
X3972551Y8990937D01*
X3970788Y8985648D01*
X3967968Y8980713D01*
X3965147Y8976482D01*
X3962327Y8972604D01*
X3959506Y8969431D01*
X3957744Y8967668D01*
X3957391Y8967316D01*
X3957039Y8966963D01*
X3950693Y8961675D01*
X3943642Y8956386D01*
X3936591Y8951803D01*
X3929892Y8947573D01*
X3923899Y8944400D01*
X3921431Y8942989D01*
X3918963Y8941579D01*
X3917200Y8940874D01*
X3915790Y8940169D01*
X3915085Y8939464D01*
X3914732D01*
X3911559Y8937349D01*
X3927777Y8940169D01*
X3933065Y8941227D01*
X3935180Y8941579D01*
X3937296Y8941932D01*
X3938706Y8942284D01*
X3939764Y8942637D01*
X3940469Y8942989D01*
X3940821D01*
X3946109Y8944752D01*
X3950693Y8945810D01*
X3954218Y8946868D01*
X3957039Y8947220D01*
X3959154Y8947573D01*
X3960564Y8947925D01*
X3961269D01*
X3961622D01*
X3964442Y8947573D01*
X3966910Y8946515D01*
X3968320Y8945105D01*
X3969025Y8944752D01*
X3971141Y8942284D01*
X3972198Y8939464D01*
X3972551Y8936996D01*
Y8935938D01*
X3971846Y8932060D01*
X3970788Y8928887D01*
X3969730Y8926772D01*
X3969025Y8926420D01*
Y8926067D01*
X3966557Y8923247D01*
X3964090Y8921836D01*
X3962327Y8920779D01*
X3961974Y8920426D01*
X3961622D01*
X3959859Y8920074D01*
X3957744Y8919721D01*
X3952808Y8919016D01*
X3950693Y8918663D01*
X3948930D01*
X3947520Y8918311D01*
X3947167D01*
X3945052Y8917958D01*
X3942584D01*
X3940469Y8917606D01*
X3940116D01*
X3939764D01*
X3933418Y8916901D01*
X3927424Y8916196D01*
X3922136Y8915843D01*
X3917905Y8915490D01*
X3914380D01*
X3911559Y8915138D01*
X3910149D01*
X3909444D01*
X3904861D01*
X3900630Y8914785D01*
X3896752D01*
X3893932D01*
X3891464D01*
X3889701D01*
X3888643D01*
X3888291D01*
X3881592D01*
X3875952Y8915138D01*
X3871368Y8915843D01*
X3867490Y8916196D01*
X3864317Y8916901D01*
X3862555Y8917253D01*
X3861144Y8917606D01*
X3860792D01*
X3857971Y8919016D01*
X3856209Y8920779D01*
X3854798Y8922189D01*
X3853741Y8923952D01*
X3853036Y8925714D01*
X3852683Y8927125D01*
Y8928182D01*
X3853388Y8932765D01*
X3854446Y8936291D01*
X3855504Y8938406D01*
X3856209Y8939111D01*
X3857619Y8940522D01*
X3859734Y8941579D01*
X3863612Y8943342D01*
X3865728Y8943695D01*
X3867138Y8944047D01*
X3868195Y8944400D01*
X3868548D01*
X3879830Y8946515D01*
X3890406Y8949688D01*
X3899925Y8953213D01*
X3904156Y8955329D01*
X3908386Y8957092D01*
X3911912Y8959207D01*
X3915085Y8960970D01*
X3917905Y8962380D01*
X3920373Y8964143D01*
X3922136Y8965200D01*
X3923546Y8966258D01*
X3924251Y8966610D01*
X3924604Y8966963D01*
X3929187Y8970489D01*
X3932712Y8973662D01*
X3936238Y8976482D01*
X3939058Y8979302D01*
X3941526Y8981770D01*
X3943642Y8983886D01*
X3945052Y8985648D01*
X3946462Y8987411D01*
X3948225Y8990231D01*
X3949282Y8992347D01*
X3949635Y8993404D01*
Y8993757D01*
X3948930Y8995872D01*
X3947872Y8997988D01*
X3946815Y8999398D01*
X3946109Y9000103D01*
X3944347Y9002218D01*
X3942936Y9004334D01*
X3942231Y9006096D01*
X3941526Y9008212D01*
X3941174Y9009622D01*
X3940821Y9011032D01*
Y9012090D01*
X3941526Y9014910D01*
X3942584Y9017025D01*
X3943642Y9018083D01*
X3944347Y9018436D01*
X3947167Y9019846D01*
X3949988Y9020551D01*
X3952455Y9020903D01*
X3952808D01*
X3953160D01*
X3955981Y9020551D01*
D02*
G37*
G36*
X4123372Y8942284D02*
X4129718Y8940874D01*
X4135007Y8939111D01*
X4139590Y8936996D01*
X4143468Y8934528D01*
X4146288Y8932765D01*
X4148051Y8931355D01*
X4148756Y8931003D01*
X4153339Y8926420D01*
X4156865Y8921484D01*
X4159333Y8916548D01*
X4160743Y8911965D01*
X4161801Y8907734D01*
X4162153Y8904561D01*
X4162506Y8903151D01*
Y8901388D01*
X4162153Y8896453D01*
X4161448Y8891869D01*
X4160038Y8887286D01*
X4158275Y8883056D01*
X4154045Y8875299D01*
X4149109Y8868601D01*
X4144173Y8863313D01*
X4142058Y8861197D01*
X4139942Y8859435D01*
X4138180Y8857672D01*
X4136769Y8856614D01*
X4136064Y8856262D01*
X4135712Y8855909D01*
X4130776Y8852736D01*
X4125840Y8849916D01*
X4120905Y8847095D01*
X4115969Y8844980D01*
X4106803Y8841807D01*
X4098341Y8839692D01*
X4094816Y8838634D01*
X4091290Y8838282D01*
X4088470Y8837929D01*
X4086002Y8837576D01*
X4083887Y8837224D01*
X4082476D01*
X4081419D01*
X4081066D01*
X4075073Y8837576D01*
X4069432Y8838987D01*
X4064496Y8840397D01*
X4060618Y8842512D01*
X4057093Y8844275D01*
X4054625Y8846038D01*
X4053215Y8847095D01*
X4052510Y8847448D01*
X4048631Y8851679D01*
X4046164Y8855909D01*
X4044048Y8860140D01*
X4042638Y8864370D01*
X4041933Y8867896D01*
X4041580Y8871069D01*
X4041228Y8872832D01*
Y8873537D01*
X4041580Y8877415D01*
X4041933Y8880940D01*
X4044048Y8887991D01*
X4046516Y8894690D01*
X4049689Y8901036D01*
X4052862Y8905972D01*
X4055683Y8909850D01*
X4056740Y8911260D01*
X4057445Y8912317D01*
X4057798Y8913023D01*
X4058150Y8913375D01*
X4064849Y8920426D01*
X4071900Y8926067D01*
X4079303Y8930650D01*
X4085649Y8934528D01*
X4091643Y8937349D01*
X4094111Y8938406D01*
X4096226Y8939111D01*
X4097989Y8939817D01*
X4099399Y8940169D01*
X4100104Y8940522D01*
X4100457D01*
X4106450Y8941932D01*
X4108918Y8942284D01*
X4111386D01*
X4113501Y8942637D01*
X4115264D01*
X4116321D01*
X4116674D01*
X4123372Y8942284D01*
D02*
G37*
G36*
X3897457Y8893280D02*
X3899220Y8892575D01*
X3900630Y8891517D01*
X3901335Y8890459D01*
X3902393Y8887991D01*
Y8886934D01*
X3902040Y8885524D01*
X3901688Y8884113D01*
X3900278Y8881645D01*
X3898515Y8879883D01*
X3898162Y8879530D01*
X3897810Y8879178D01*
X3893932Y8875299D01*
X3890759Y8871069D01*
X3887586Y8867191D01*
X3885118Y8863313D01*
X3883003Y8859787D01*
X3881240Y8856262D01*
X3878772Y8849563D01*
X3877009Y8844275D01*
X3876657Y8841807D01*
X3876304Y8840044D01*
X3875952Y8838282D01*
Y8836166D01*
X3876304Y8833346D01*
X3876657Y8830878D01*
X3877362Y8828763D01*
X3878419Y8827000D01*
X3879125Y8825590D01*
X3879830Y8824532D01*
X3880182Y8824179D01*
X3880535Y8823827D01*
X3882298Y8822417D01*
X3884060Y8821359D01*
X3887233Y8820301D01*
X3888643Y8819949D01*
X3889349Y8819596D01*
X3890054D01*
X3890406D01*
X3892169Y8819949D01*
X3893227Y8821359D01*
X3893932Y8822417D01*
Y8822769D01*
X3896752Y8832641D01*
X3900278Y8841807D01*
X3904156Y8849563D01*
X3908034Y8856262D01*
X3911559Y8861550D01*
X3913322Y8863665D01*
X3914380Y8865428D01*
X3915790Y8866838D01*
X3916495Y8867896D01*
X3916848Y8868248D01*
X3917200Y8868601D01*
X3920373Y8871774D01*
X3923546Y8874594D01*
X3926719Y8877062D01*
X3929892Y8879178D01*
X3935885Y8882351D01*
X3941526Y8884818D01*
X3946109Y8885876D01*
X3949635Y8886581D01*
X3951045Y8886934D01*
X3952103D01*
X3952455D01*
X3952808D01*
X3956686Y8886581D01*
X3959859Y8885876D01*
X3963032Y8884466D01*
X3965500Y8883408D01*
X3967968Y8881998D01*
X3969378Y8880588D01*
X3970436Y8879883D01*
X3970788Y8879530D01*
X3973256Y8876710D01*
X3975371Y8873537D01*
X3976781Y8870011D01*
X3977487Y8867191D01*
X3978192Y8864370D01*
X3978544Y8862255D01*
Y8860140D01*
X3978192Y8855557D01*
X3977487Y8851326D01*
X3976076Y8847095D01*
X3974314Y8842865D01*
X3970083Y8835461D01*
X3965500Y8828763D01*
X3960564Y8823122D01*
X3958096Y8820654D01*
X3956333Y8818539D01*
X3954571Y8817128D01*
X3953160Y8816071D01*
X3952455Y8815366D01*
X3952103Y8815013D01*
X3947167Y8811135D01*
X3942231Y8807962D01*
X3937296Y8805142D01*
X3932360Y8802674D01*
X3927424Y8800911D01*
X3922841Y8799148D01*
X3914380Y8796680D01*
X3910502Y8795623D01*
X3906976Y8794918D01*
X3903803Y8794565D01*
X3900983Y8794213D01*
X3898867Y8793860D01*
X3897457D01*
X3896400D01*
X3896047D01*
X3888996Y8794213D01*
X3882650Y8795623D01*
X3877362Y8797033D01*
X3872779Y8799148D01*
X3869253Y8800911D01*
X3866785Y8802674D01*
X3865375Y8803731D01*
X3864670Y8804084D01*
X3860792Y8808315D01*
X3858324Y8812898D01*
X3856209Y8817481D01*
X3854798Y8822064D01*
X3854093Y8826295D01*
X3853741Y8829468D01*
X3853388Y8831936D01*
Y8832641D01*
X3853741Y8836871D01*
X3854093Y8841102D01*
X3855856Y8848858D01*
X3858324Y8856262D01*
X3861144Y8862255D01*
X3863612Y8867543D01*
X3865022Y8869659D01*
X3866080Y8871421D01*
X3867138Y8872832D01*
X3867843Y8873889D01*
X3868548Y8874242D01*
Y8874594D01*
X3871368Y8878120D01*
X3874189Y8880940D01*
X3876657Y8883408D01*
X3879125Y8885524D01*
X3883708Y8889049D01*
X3887586Y8891164D01*
X3890759Y8892575D01*
X3893227Y8893280D01*
X3894637Y8893632D01*
X3894989D01*
X3897457Y8893280D01*
D02*
G37*
G36*
X4157217Y8736394D02*
X4159685Y8736041D01*
X4163211Y8733926D01*
X4166031Y8731106D01*
X4168147Y8727580D01*
X4169204Y8724055D01*
X4169557Y8721234D01*
X4169909Y8719119D01*
Y8718414D01*
X4169204Y8711363D01*
X4167794Y8704664D01*
X4165326Y8697966D01*
X4162858Y8691972D01*
X4160038Y8686684D01*
X4158980Y8684569D01*
X4157570Y8682454D01*
X4156865Y8681043D01*
X4156160Y8679986D01*
X4155455Y8679281D01*
Y8678928D01*
X4152634Y8675050D01*
X4150166Y8671877D01*
X4147346Y8669057D01*
X4144526Y8666589D01*
X4141705Y8664826D01*
X4138885Y8663063D01*
X4133949Y8660595D01*
X4129366Y8658833D01*
X4125840Y8658127D01*
X4124430Y8657775D01*
X4123372D01*
X4123020D01*
X4122667D01*
X4119494Y8658127D01*
X4116321Y8658833D01*
X4113148Y8659538D01*
X4110681Y8660948D01*
X4108565Y8662006D01*
X4107155Y8662711D01*
X4106097Y8663416D01*
X4105745Y8663768D01*
X4104335Y8665179D01*
X4102924Y8666589D01*
X4099752Y8670819D01*
X4096931Y8675050D01*
X4094111Y8679986D01*
X4091643Y8684569D01*
X4089528Y8688094D01*
X4088822Y8689505D01*
X4088117Y8690562D01*
X4087765Y8691267D01*
Y8691620D01*
X4086355Y8694793D01*
X4084592Y8697613D01*
X4083182Y8700081D01*
X4082124Y8702196D01*
X4079656Y8705369D01*
X4077541Y8707837D01*
X4075778Y8709248D01*
X4074720Y8709953D01*
X4074015Y8710305D01*
X4073663D01*
X4071900Y8708542D01*
X4070490Y8706427D01*
X4068022Y8701491D01*
X4067317Y8699376D01*
X4066612Y8697261D01*
X4065907Y8695851D01*
Y8695498D01*
X4064144Y8687742D01*
X4063439Y8684216D01*
X4063086Y8681043D01*
Y8678575D01*
X4062734Y8676460D01*
Y8674697D01*
X4063086Y8671877D01*
X4063439Y8669409D01*
X4063791Y8667646D01*
Y8666941D01*
X4064496Y8664121D01*
X4065201Y8662006D01*
Y8658833D01*
X4064496Y8657070D01*
X4063439Y8653897D01*
X4062028Y8652134D01*
X4061676Y8651782D01*
X4061323Y8651429D01*
X4059913Y8650019D01*
X4058503Y8649314D01*
X4055683Y8647903D01*
X4053567Y8647551D01*
X4053215D01*
X4052862D01*
X4050394Y8647903D01*
X4048279Y8648256D01*
X4044753Y8650371D01*
X4042638Y8653544D01*
X4040875Y8657070D01*
X4039818Y8660595D01*
X4039465Y8663768D01*
X4039113Y8665884D01*
Y8666589D01*
X4039465Y8676108D01*
X4040875Y8685274D01*
X4042286Y8693383D01*
X4044401Y8700434D01*
X4045106Y8703254D01*
X4046164Y8706075D01*
X4046869Y8708542D01*
X4047926Y8710305D01*
X4048279Y8712068D01*
X4048984Y8713126D01*
X4049337Y8713831D01*
Y8714183D01*
X4051452Y8718061D01*
X4053567Y8721234D01*
X4055683Y8724055D01*
X4057798Y8726523D01*
X4059913Y8728638D01*
X4062381Y8730048D01*
X4066259Y8732868D01*
X4070137Y8734279D01*
X4072958Y8734984D01*
X4074720Y8735336D01*
X4075425D01*
X4078598Y8734984D01*
X4081419Y8734279D01*
X4084239Y8733574D01*
X4086355Y8732516D01*
X4088117Y8731106D01*
X4089880Y8730401D01*
X4090585Y8729696D01*
X4090938Y8729343D01*
X4093758Y8726523D01*
X4096579Y8722997D01*
X4099399Y8718766D01*
X4101867Y8714888D01*
X4103982Y8711010D01*
X4105745Y8707837D01*
X4106803Y8705369D01*
X4107155Y8705017D01*
Y8704664D01*
X4109270Y8700434D01*
X4111033Y8696908D01*
X4112796Y8694088D01*
X4114206Y8691620D01*
X4115264Y8690210D01*
X4115969Y8688799D01*
X4116674Y8688447D01*
Y8688094D01*
X4118084Y8686684D01*
X4119494Y8685979D01*
X4122315Y8684569D01*
X4124078Y8684216D01*
X4124430D01*
X4124783D01*
X4127956Y8684569D01*
X4130776Y8685979D01*
X4133244Y8687742D01*
X4135359Y8689857D01*
X4137122Y8691972D01*
X4138532Y8693735D01*
X4139237Y8695145D01*
X4139590Y8695498D01*
X4141705Y8699729D01*
X4143468Y8703607D01*
X4144526Y8707485D01*
X4145583Y8710305D01*
X4145936Y8713126D01*
X4146288Y8714888D01*
Y8716651D01*
X4145936Y8718061D01*
X4145583Y8719472D01*
X4145231Y8720882D01*
X4144878Y8721234D01*
X4144173Y8722997D01*
X4143821Y8724407D01*
Y8725465D01*
X4144173Y8727933D01*
X4145583Y8730048D01*
X4146641Y8731811D01*
X4146993Y8732516D01*
X4148404Y8733926D01*
X4149461Y8734984D01*
X4151929Y8736394D01*
X4153692Y8736747D01*
X4154045D01*
X4154397D01*
X4157217Y8736394D01*
D02*
G37*
G36*
X3875952Y8781521D02*
X3877362Y8781168D01*
X3879830Y8779053D01*
X3881592Y8777290D01*
X3881945Y8776585D01*
Y8776232D01*
X3883355Y8774117D01*
X3885118Y8772002D01*
X3889349Y8769181D01*
X3891464Y8768476D01*
X3893227Y8767771D01*
X3894284Y8767066D01*
X3894637D01*
X3898867Y8766008D01*
X3903451Y8765303D01*
X3908386Y8764598D01*
X3912970Y8763893D01*
X3917200Y8763541D01*
X3920726Y8763188D01*
X3922136Y8762835D01*
X3923194D01*
X3923546D01*
X3923899D01*
X3932360Y8761778D01*
X3939411Y8760720D01*
X3945404Y8759310D01*
X3950340Y8757900D01*
X3953866Y8756842D01*
X3956333Y8755784D01*
X3958096Y8755432D01*
X3958449Y8755079D01*
X3961974Y8752964D01*
X3964442Y8750144D01*
X3966205Y8747323D01*
X3967263Y8744503D01*
X3968320Y8742035D01*
X3968673Y8739920D01*
Y8738157D01*
X3968320Y8734631D01*
X3967263Y8731106D01*
X3965852Y8727933D01*
X3964442Y8725112D01*
X3962679Y8722644D01*
X3961269Y8720882D01*
X3960212Y8719472D01*
X3959859Y8719119D01*
X3958096Y8717356D01*
X3955981Y8715593D01*
X3950693Y8712068D01*
X3945052Y8708542D01*
X3939411Y8705017D01*
X3933770Y8702196D01*
X3931302Y8700786D01*
X3929187Y8699729D01*
X3927424Y8699023D01*
X3926014Y8698318D01*
X3925309Y8697613D01*
X3924956D01*
X3920726Y8695498D01*
X3917200Y8693735D01*
X3914027Y8691972D01*
X3911207Y8690562D01*
X3908739Y8689505D01*
X3906976Y8688447D01*
X3904156Y8686684D01*
X3902393Y8685274D01*
X3901335Y8684569D01*
X3900983Y8684216D01*
X3901335Y8683864D01*
X3902040Y8683511D01*
X3903098Y8683159D01*
X3904861Y8682806D01*
X3908739Y8682454D01*
X3913322Y8682101D01*
X3917905Y8681748D01*
X3921783D01*
X3923546D01*
X3924604D01*
X3925309D01*
X3925661D01*
X3930597D01*
X3934828Y8681396D01*
X3939058Y8681043D01*
X3942584Y8680691D01*
X3945757Y8679986D01*
X3948577Y8679633D01*
X3953160Y8678575D01*
X3956686Y8677165D01*
X3958801Y8676460D01*
X3960212Y8675755D01*
X3960564Y8675403D01*
X3963385Y8672935D01*
X3965147Y8670467D01*
X3966557Y8667646D01*
X3967615Y8665179D01*
X3968320Y8663063D01*
X3968673Y8661300D01*
Y8659538D01*
X3968320Y8657070D01*
X3967968Y8654954D01*
X3965852Y8650019D01*
X3962327Y8645436D01*
X3958096Y8640500D01*
X3953160Y8635917D01*
X3947520Y8631334D01*
X3941174Y8627103D01*
X3935180Y8622872D01*
X3928834Y8618994D01*
X3922488Y8615469D01*
X3916848Y8612296D01*
X3911912Y8609828D01*
X3907681Y8607360D01*
X3904156Y8605950D01*
X3902040Y8604892D01*
X3901688Y8604540D01*
X3904156D01*
X3907681Y8604892D01*
X3915085Y8606302D01*
X3918258Y8606655D01*
X3921078Y8607360D01*
X3922841Y8607713D01*
X3923546D01*
X3928129Y8608770D01*
X3932360Y8609828D01*
X3936238Y8610533D01*
X3939411Y8611238D01*
X3942231Y8611943D01*
X3945052Y8612296D01*
X3949282Y8613001D01*
X3952103Y8613353D01*
X3954218Y8613706D01*
X3955276D01*
X3955628D01*
X3959154D01*
X3962327Y8613001D01*
X3964795Y8612296D01*
X3966910Y8611238D01*
X3970436Y8608418D01*
X3972903Y8605597D01*
X3974314Y8602777D01*
X3975019Y8599956D01*
X3975371Y8598194D01*
Y8597489D01*
X3975019Y8594316D01*
X3973961Y8592200D01*
X3972551Y8590437D01*
X3972198Y8590085D01*
X3970083Y8588675D01*
X3967968Y8587970D01*
X3966205Y8587617D01*
X3965852D01*
X3965500D01*
X3958801D01*
X3952455Y8587265D01*
X3946462Y8586912D01*
X3941174Y8586207D01*
X3936591Y8585854D01*
X3933065Y8585149D01*
X3931655D01*
X3930597Y8584797D01*
X3930245D01*
X3929892D01*
X3920726Y8583739D01*
X3911559Y8582681D01*
X3902040Y8581976D01*
X3893227Y8581624D01*
X3889349D01*
X3885823D01*
X3882298Y8581271D01*
X3879477D01*
X3877362D01*
X3875599D01*
X3874541D01*
X3874189D01*
X3870663D01*
X3867490Y8581976D01*
X3865022Y8582681D01*
X3862555Y8583386D01*
X3860792Y8584444D01*
X3859029Y8585502D01*
X3856561Y8588322D01*
X3855151Y8590790D01*
X3854446Y8592905D01*
X3854093Y8594316D01*
Y8595021D01*
X3854446Y8598546D01*
X3855856Y8601719D01*
X3857619Y8603834D01*
X3859734Y8605245D01*
X3861497Y8606302D01*
X3863260Y8607007D01*
X3864670Y8607360D01*
X3865022D01*
X3873131Y8610885D01*
X3881240Y8614764D01*
X3888996Y8618994D01*
X3896400Y8623225D01*
X3902746Y8627103D01*
X3905566Y8628513D01*
X3907681Y8629923D01*
X3909797Y8630981D01*
X3911207Y8632039D01*
X3911912Y8632391D01*
X3912264Y8632744D01*
X3916848Y8635917D01*
X3921078Y8638737D01*
X3924604Y8641205D01*
X3927777Y8643320D01*
X3930245Y8645436D01*
X3932360Y8647198D01*
X3934475Y8648961D01*
X3935885Y8650019D01*
X3937648Y8652134D01*
X3938706Y8653544D01*
X3939058Y8654249D01*
Y8654602D01*
X3938706Y8655307D01*
X3937648Y8655660D01*
X3936238Y8656012D01*
X3934475Y8656717D01*
X3929540Y8657070D01*
X3924251Y8657775D01*
X3918610Y8658127D01*
X3913675Y8658480D01*
X3911912D01*
X3910502D01*
X3909444D01*
X3909091D01*
X3903098D01*
X3897810Y8658833D01*
X3893227Y8659185D01*
X3888996Y8659538D01*
X3885118Y8660243D01*
X3881945Y8660595D01*
X3879477Y8661300D01*
X3877009Y8661653D01*
X3875247Y8662358D01*
X3873836Y8663063D01*
X3871721Y8663768D01*
X3870663Y8664473D01*
X3870311Y8664826D01*
X3868548Y8667294D01*
X3867138Y8669409D01*
X3866433Y8671524D01*
X3865728Y8673640D01*
X3865375Y8675050D01*
X3865022Y8676460D01*
Y8677518D01*
X3865375Y8680338D01*
X3866433Y8683159D01*
X3867490Y8685627D01*
X3869253Y8688094D01*
X3870663Y8689857D01*
X3871721Y8691267D01*
X3872779Y8691972D01*
X3873131Y8692325D01*
X3876657Y8695145D01*
X3880887Y8697966D01*
X3885823Y8700786D01*
X3890406Y8703607D01*
X3894637Y8705722D01*
X3898515Y8707485D01*
X3899925Y8708190D01*
X3900630Y8708895D01*
X3901335Y8709248D01*
X3901688D01*
X3905919Y8711363D01*
X3909444Y8713126D01*
X3916143Y8716299D01*
X3921431Y8718766D01*
X3925661Y8720882D01*
X3928834Y8722644D01*
X3930950Y8723702D01*
X3932007Y8724055D01*
X3932360Y8724407D01*
X3934828Y8726170D01*
X3936943Y8727580D01*
X3938353Y8728638D01*
X3939058Y8729696D01*
X3939764Y8730401D01*
X3940116Y8731106D01*
Y8731458D01*
X3939764Y8732516D01*
X3939411Y8733221D01*
X3937648Y8734631D01*
X3935533Y8734984D01*
X3935180Y8735336D01*
X3934828D01*
X3932360Y8736041D01*
X3929540Y8736394D01*
X3926014Y8736747D01*
X3922488Y8737452D01*
X3919316Y8737804D01*
X3916495D01*
X3914732Y8738157D01*
X3914380D01*
X3914027D01*
X3908386Y8738509D01*
X3902746Y8739214D01*
X3898162Y8739567D01*
X3893579Y8740272D01*
X3889701Y8740977D01*
X3886176Y8741682D01*
X3883003Y8742387D01*
X3880535Y8743092D01*
X3878067Y8743798D01*
X3875952Y8744150D01*
X3873131Y8745208D01*
X3871721Y8745913D01*
X3871016Y8746265D01*
X3867490Y8748733D01*
X3865022Y8751554D01*
X3862907Y8754374D01*
X3861850Y8756842D01*
X3861144Y8759310D01*
X3860792Y8761425D01*
X3860439Y8762835D01*
Y8763188D01*
X3860792Y8765656D01*
X3861144Y8767771D01*
X3862907Y8771649D01*
X3863612Y8773412D01*
X3864317Y8774470D01*
X3864670Y8775175D01*
X3865022Y8775527D01*
X3866785Y8777643D01*
X3868548Y8779053D01*
X3869958Y8780463D01*
X3871368Y8781168D01*
X3873484Y8781873D01*
X3873836D01*
X3874189D01*
X3875952Y8781521D01*
D02*
G37*
G36*
X4085649Y8642263D02*
X4087412Y8641558D01*
X4088822Y8640500D01*
X4089528Y8639442D01*
X4090585Y8636974D01*
Y8635917D01*
X4090233Y8634506D01*
X4089880Y8633096D01*
X4088470Y8630628D01*
X4086707Y8628866D01*
X4086355Y8628513D01*
X4086002Y8628161D01*
X4082124Y8624282D01*
X4078951Y8620052D01*
X4075778Y8616174D01*
X4073310Y8612296D01*
X4071195Y8608770D01*
X4069432Y8605245D01*
X4066964Y8598546D01*
X4065201Y8593258D01*
X4064849Y8590790D01*
X4064496Y8589027D01*
X4064144Y8587265D01*
Y8585149D01*
X4064496Y8582329D01*
X4064849Y8579861D01*
X4065554Y8577746D01*
X4066612Y8575983D01*
X4067317Y8574573D01*
X4068022Y8573515D01*
X4068374Y8573162D01*
X4068727Y8572810D01*
X4070490Y8571400D01*
X4072252Y8570342D01*
X4075425Y8569284D01*
X4076836Y8568932D01*
X4077541Y8568579D01*
X4078246D01*
X4078598D01*
X4080361Y8568932D01*
X4081419Y8570342D01*
X4082124Y8571400D01*
Y8571752D01*
X4084944Y8581624D01*
X4088470Y8590790D01*
X4092348Y8598546D01*
X4096226Y8605245D01*
X4099752Y8610533D01*
X4101514Y8612648D01*
X4102572Y8614411D01*
X4103982Y8615821D01*
X4104687Y8616879D01*
X4105040Y8617231D01*
X4105392Y8617584D01*
X4108565Y8620757D01*
X4111738Y8623577D01*
X4114911Y8626045D01*
X4118084Y8628161D01*
X4124078Y8631334D01*
X4129718Y8633801D01*
X4134302Y8634859D01*
X4137827Y8635564D01*
X4139237Y8635917D01*
X4140295D01*
X4140648D01*
X4141000D01*
X4144878Y8635564D01*
X4148051Y8634859D01*
X4151224Y8633449D01*
X4153692Y8632391D01*
X4156160Y8630981D01*
X4157570Y8629571D01*
X4158628Y8628866D01*
X4158980Y8628513D01*
X4161448Y8625693D01*
X4163563Y8622520D01*
X4164974Y8618994D01*
X4165679Y8616174D01*
X4166384Y8613353D01*
X4166736Y8611238D01*
Y8609123D01*
X4166384Y8604540D01*
X4165679Y8600309D01*
X4164269Y8596078D01*
X4162506Y8591848D01*
X4158275Y8584444D01*
X4153692Y8577746D01*
X4148756Y8572105D01*
X4146288Y8569637D01*
X4144526Y8567522D01*
X4142763Y8566111D01*
X4141353Y8565054D01*
X4140648Y8564349D01*
X4140295Y8563996D01*
X4135359Y8560118D01*
X4130424Y8556945D01*
X4125488Y8554125D01*
X4120552Y8551657D01*
X4115616Y8549894D01*
X4111033Y8548131D01*
X4102572Y8545663D01*
X4098694Y8544606D01*
X4095168Y8543901D01*
X4091995Y8543548D01*
X4089175Y8543196D01*
X4087060Y8542843D01*
X4085649D01*
X4084592D01*
X4084239D01*
X4077188Y8543196D01*
X4070842Y8544606D01*
X4065554Y8546016D01*
X4060971Y8548131D01*
X4057445Y8549894D01*
X4054977Y8551657D01*
X4053567Y8552714D01*
X4052862Y8553067D01*
X4048984Y8557298D01*
X4046516Y8561881D01*
X4044401Y8566464D01*
X4042991Y8571047D01*
X4042286Y8575278D01*
X4041933Y8578451D01*
X4041580Y8580919D01*
Y8581624D01*
X4041933Y8585854D01*
X4042286Y8590085D01*
X4044048Y8597841D01*
X4046516Y8605245D01*
X4049337Y8611238D01*
X4051804Y8616526D01*
X4053215Y8618642D01*
X4054272Y8620404D01*
X4055330Y8621815D01*
X4056035Y8622872D01*
X4056740Y8623225D01*
Y8623577D01*
X4059561Y8627103D01*
X4062381Y8629923D01*
X4064849Y8632391D01*
X4067317Y8634506D01*
X4071900Y8638032D01*
X4075778Y8640147D01*
X4078951Y8641558D01*
X4081419Y8642263D01*
X4082829Y8642615D01*
X4083182D01*
X4085649Y8642263D01*
D02*
G37*
G36*
X4150166Y8522747D02*
X4152634Y8521337D01*
X4154045Y8519927D01*
X4154750Y8519575D01*
Y8519222D01*
X4156865Y8515696D01*
X4157923Y8512171D01*
X4158275Y8510408D01*
Y8507940D01*
X4157923Y8505825D01*
X4157570Y8504062D01*
X4155455Y8500889D01*
X4153692Y8499127D01*
X4152987Y8498421D01*
X4152634D01*
X4148404Y8496659D01*
X4144173Y8495601D01*
X4142410D01*
X4141000Y8495248D01*
X4139942D01*
X4139590D01*
X4138885D01*
X4137827D01*
X4135007Y8494543D01*
X4131481Y8494191D01*
X4127603Y8493486D01*
X4123725Y8492781D01*
X4120552Y8492428D01*
X4118084Y8491723D01*
X4117732D01*
X4117379D01*
X4113501Y8491018D01*
X4109976Y8490313D01*
X4108565Y8489960D01*
X4107508D01*
X4106803Y8489608D01*
X4106450D01*
X4097284Y8487845D01*
X4088822Y8486787D01*
X4081066Y8485730D01*
X4074720Y8485377D01*
X4069432Y8485024D01*
X4067317Y8484672D01*
X4065554D01*
X4064144D01*
X4063086D01*
X4062734D01*
X4062381D01*
X4058503D01*
X4055330Y8485377D01*
X4052510Y8486082D01*
X4050042Y8486787D01*
X4048279Y8487845D01*
X4046516Y8488903D01*
X4044048Y8491723D01*
X4042286Y8494191D01*
X4041580Y8496306D01*
X4041228Y8497716D01*
Y8498421D01*
X4041580Y8500537D01*
X4041933Y8502299D01*
X4043343Y8505472D01*
X4044753Y8507588D01*
X4045459Y8507940D01*
Y8508293D01*
X4046869Y8510056D01*
X4047926Y8511113D01*
X4050042Y8512523D01*
X4051452Y8513229D01*
X4051804D01*
X4053920D01*
X4054625Y8512876D01*
X4054977D01*
X4058855Y8512171D01*
X4062381Y8511818D01*
X4065201Y8511113D01*
X4067669D01*
X4069785Y8510761D01*
X4071195D01*
X4071900D01*
X4072252D01*
X4075425D01*
X4078951Y8511113D01*
X4082476D01*
X4086002Y8511466D01*
X4088822D01*
X4091290Y8511818D01*
X4092700D01*
X4093406D01*
X4098694Y8512523D01*
X4103982Y8513229D01*
X4109623Y8514639D01*
X4114911Y8515696D01*
X4119847Y8516754D01*
X4123372Y8517812D01*
X4124783Y8518164D01*
X4125840Y8518517D01*
X4126545Y8518869D01*
X4126898D01*
X4129366Y8519222D01*
X4133949Y8520632D01*
X4137827Y8521690D01*
X4141000Y8522395D01*
X4143115Y8523100D01*
X4144878D01*
X4146288Y8523453D01*
X4146641D01*
X4146993D01*
X4148404D01*
X4150166Y8522747D01*
D02*
G37*
G36*
X4207280Y8542843D02*
X4209395Y8542490D01*
X4212568Y8541080D01*
X4214683Y8539317D01*
X4215036Y8538965D01*
X4215389Y8538612D01*
X4216799Y8536850D01*
X4217856Y8534734D01*
X4219267Y8531209D01*
Y8529446D01*
X4219619Y8528036D01*
Y8526978D01*
X4219267Y8523805D01*
X4218914Y8520985D01*
X4218209Y8518517D01*
X4217151Y8516402D01*
X4216094Y8514991D01*
X4215389Y8513934D01*
X4215036Y8513229D01*
X4214683Y8512876D01*
X4212921Y8511466D01*
X4210805Y8510408D01*
X4206927Y8508998D01*
X4205165Y8508645D01*
X4203754Y8508293D01*
X4202697D01*
X4202344D01*
X4200229Y8508645D01*
X4198466Y8508998D01*
X4194941Y8510761D01*
X4193883Y8511818D01*
X4192825Y8512523D01*
X4192120Y8512876D01*
X4191768Y8513229D01*
X4190005Y8514991D01*
X4188595Y8517107D01*
X4187890Y8518869D01*
X4187184Y8520632D01*
X4186832Y8522395D01*
X4186479Y8523453D01*
Y8524510D01*
X4186832Y8526273D01*
X4187537Y8528388D01*
X4189300Y8532266D01*
X4190357Y8533677D01*
X4191415Y8535087D01*
X4191768Y8535792D01*
X4192120Y8536144D01*
X4194235Y8538612D01*
X4196703Y8540375D01*
X4198819Y8541433D01*
X4200934Y8542490D01*
X4202697Y8542843D01*
X4204107Y8543196D01*
X4204812D01*
X4205165D01*
X4207280Y8542843D01*
D02*
G37*
G36*
X4144173Y8482557D02*
X4146993Y8481851D01*
X4149461Y8480794D01*
X4151577Y8479384D01*
X4152987Y8477973D01*
X4154397Y8476916D01*
X4155102Y8476211D01*
X4155455Y8475858D01*
X4157570Y8473038D01*
X4158980Y8470217D01*
X4160038Y8467397D01*
X4160743Y8464576D01*
X4161096Y8462109D01*
X4161448Y8459993D01*
Y8455763D01*
X4160743Y8452942D01*
X4158980Y8447654D01*
X4156160Y8442718D01*
X4153339Y8438488D01*
X4150519Y8434609D01*
X4147699Y8431437D01*
X4145936Y8429674D01*
X4145583Y8429321D01*
X4145231Y8428969D01*
X4138885Y8423680D01*
X4131834Y8418392D01*
X4124783Y8413809D01*
X4118084Y8409578D01*
X4112091Y8406405D01*
X4109623Y8404995D01*
X4107155Y8403585D01*
X4105392Y8402880D01*
X4103982Y8402175D01*
X4103277Y8401470D01*
X4102924D01*
X4099752Y8399354D01*
X4115969Y8402175D01*
X4121257Y8403232D01*
X4123372Y8403585D01*
X4125488Y8403937D01*
X4126898Y8404290D01*
X4127956Y8404643D01*
X4128661Y8404995D01*
X4129013D01*
X4134302Y8406758D01*
X4138885Y8407816D01*
X4142410Y8408873D01*
X4145231Y8409226D01*
X4147346Y8409578D01*
X4148756Y8409931D01*
X4149461D01*
X4149814D01*
X4152634Y8409578D01*
X4155102Y8408521D01*
X4156512Y8407110D01*
X4157217Y8406758D01*
X4159333Y8404290D01*
X4160390Y8401470D01*
X4160743Y8399002D01*
Y8397944D01*
X4160038Y8394066D01*
X4158980Y8390893D01*
X4157923Y8388778D01*
X4157217Y8388425D01*
Y8388073D01*
X4154750Y8385252D01*
X4152282Y8383842D01*
X4150519Y8382784D01*
X4150166Y8382432D01*
X4149814D01*
X4148051Y8382079D01*
X4145936Y8381727D01*
X4141000Y8381022D01*
X4138885Y8380669D01*
X4137122D01*
X4135712Y8380316D01*
X4135359D01*
X4133244Y8379964D01*
X4130776D01*
X4128661Y8379611D01*
X4128308D01*
X4127956D01*
X4121610Y8378906D01*
X4115616Y8378201D01*
X4110328Y8377849D01*
X4106097Y8377496D01*
X4102572D01*
X4099752Y8377144D01*
X4098341D01*
X4097636D01*
X4093053D01*
X4088822Y8376791D01*
X4084944D01*
X4082124D01*
X4079656D01*
X4077893D01*
X4076836D01*
X4076483D01*
X4069785D01*
X4064144Y8377144D01*
X4059561Y8377849D01*
X4055683Y8378201D01*
X4052510Y8378906D01*
X4050747Y8379259D01*
X4049337Y8379611D01*
X4048984D01*
X4046164Y8381022D01*
X4044401Y8382784D01*
X4042991Y8384195D01*
X4041933Y8385957D01*
X4041228Y8387720D01*
X4040875Y8389130D01*
Y8390188D01*
X4041580Y8394771D01*
X4042638Y8398297D01*
X4043696Y8400412D01*
X4044401Y8401117D01*
X4045811Y8402527D01*
X4047926Y8403585D01*
X4051804Y8405348D01*
X4053920Y8405700D01*
X4055330Y8406053D01*
X4056388Y8406405D01*
X4056740D01*
X4068022Y8408521D01*
X4078598Y8411694D01*
X4088117Y8415219D01*
X4092348Y8417334D01*
X4096579Y8419097D01*
X4100104Y8421213D01*
X4103277Y8422975D01*
X4106097Y8424385D01*
X4108565Y8426148D01*
X4110328Y8427206D01*
X4111738Y8428264D01*
X4112443Y8428616D01*
X4112796Y8428969D01*
X4117379Y8432494D01*
X4120905Y8435667D01*
X4124430Y8438488D01*
X4127251Y8441308D01*
X4129718Y8443776D01*
X4131834Y8445891D01*
X4133244Y8447654D01*
X4134654Y8449417D01*
X4136417Y8452237D01*
X4137475Y8454352D01*
X4137827Y8455410D01*
Y8455763D01*
X4137122Y8457878D01*
X4136064Y8459993D01*
X4135007Y8461403D01*
X4134302Y8462109D01*
X4132539Y8464224D01*
X4131129Y8466339D01*
X4130424Y8468102D01*
X4129718Y8470217D01*
X4129366Y8471627D01*
X4129013Y8473038D01*
Y8474095D01*
X4129718Y8476916D01*
X4130776Y8479031D01*
X4131834Y8480089D01*
X4132539Y8480441D01*
X4135359Y8481851D01*
X4138180Y8482557D01*
X4140648Y8482909D01*
X4141000D01*
X4141353D01*
X4144173Y8482557D01*
D02*
G37*
G36*
X3875952Y8562938D02*
X3877362Y8562586D01*
X3879830Y8560471D01*
X3881592Y8558708D01*
X3881945Y8558003D01*
Y8557650D01*
X3883355Y8555535D01*
X3885118Y8553420D01*
X3889349Y8550599D01*
X3891464Y8549894D01*
X3893227Y8549189D01*
X3894284Y8548484D01*
X3894637D01*
X3898867Y8547426D01*
X3903451Y8546721D01*
X3908386Y8546016D01*
X3912970Y8545311D01*
X3917200Y8544958D01*
X3920726Y8544606D01*
X3922136Y8544253D01*
X3923194D01*
X3923546D01*
X3923899D01*
X3932360Y8543196D01*
X3939411Y8542138D01*
X3945404Y8540728D01*
X3950340Y8539317D01*
X3953866Y8538260D01*
X3956333Y8537202D01*
X3958096Y8536850D01*
X3958449Y8536497D01*
X3961974Y8534382D01*
X3964442Y8531561D01*
X3966205Y8528741D01*
X3967263Y8525920D01*
X3968320Y8523453D01*
X3968673Y8521337D01*
Y8519575D01*
X3968320Y8516049D01*
X3967263Y8512523D01*
X3965852Y8509351D01*
X3964442Y8506530D01*
X3962679Y8504062D01*
X3961269Y8502299D01*
X3960212Y8500889D01*
X3959859Y8500537D01*
X3958096Y8498774D01*
X3955981Y8497011D01*
X3950693Y8493486D01*
X3945052Y8489960D01*
X3939411Y8486435D01*
X3933770Y8483614D01*
X3931302Y8482204D01*
X3929187Y8481146D01*
X3927424Y8480441D01*
X3926014Y8479736D01*
X3925309Y8479031D01*
X3924956D01*
X3920726Y8476916D01*
X3917200Y8475153D01*
X3914027Y8473390D01*
X3911207Y8471980D01*
X3908739Y8470922D01*
X3906976Y8469865D01*
X3904156Y8468102D01*
X3902393Y8466692D01*
X3901335Y8465987D01*
X3900983Y8465634D01*
X3901335Y8465282D01*
X3902040Y8464929D01*
X3903098Y8464576D01*
X3904861Y8464224D01*
X3908739Y8463871D01*
X3913322Y8463519D01*
X3917905Y8463166D01*
X3921783D01*
X3923546D01*
X3924604D01*
X3925309D01*
X3925661D01*
X3930597D01*
X3934828Y8462814D01*
X3939058Y8462461D01*
X3942584Y8462109D01*
X3945757Y8461403D01*
X3948577Y8461051D01*
X3953160Y8459993D01*
X3956686Y8458583D01*
X3958801Y8457878D01*
X3960212Y8457173D01*
X3960564Y8456820D01*
X3963385Y8454352D01*
X3965147Y8451885D01*
X3966557Y8449064D01*
X3967615Y8446596D01*
X3968320Y8444481D01*
X3968673Y8442718D01*
Y8440955D01*
X3968320Y8438488D01*
X3967968Y8436372D01*
X3965852Y8431437D01*
X3962327Y8426853D01*
X3958096Y8421918D01*
X3953160Y8417334D01*
X3947520Y8412751D01*
X3941174Y8408521D01*
X3935180Y8404290D01*
X3928834Y8400412D01*
X3922488Y8396886D01*
X3916848Y8393713D01*
X3911912Y8391246D01*
X3907681Y8388778D01*
X3904156Y8387368D01*
X3902040Y8386310D01*
X3901688Y8385957D01*
X3904156D01*
X3907681Y8386310D01*
X3915085Y8387720D01*
X3918258Y8388073D01*
X3921078Y8388778D01*
X3922841Y8389130D01*
X3923546D01*
X3928129Y8390188D01*
X3932360Y8391246D01*
X3936238Y8391951D01*
X3939411Y8392656D01*
X3942231Y8393361D01*
X3945052Y8393713D01*
X3949282Y8394419D01*
X3952103Y8394771D01*
X3954218Y8395124D01*
X3955276D01*
X3955628D01*
X3959154D01*
X3962327Y8394419D01*
X3964795Y8393713D01*
X3966910Y8392656D01*
X3970436Y8389835D01*
X3972903Y8387015D01*
X3974314Y8384195D01*
X3975019Y8381374D01*
X3975371Y8379611D01*
Y8378906D01*
X3975019Y8375733D01*
X3973961Y8373618D01*
X3972551Y8371855D01*
X3972198Y8371503D01*
X3970083Y8370092D01*
X3967968Y8369387D01*
X3966205Y8369035D01*
X3965852D01*
X3965500D01*
X3958801D01*
X3952455Y8368682D01*
X3946462Y8368330D01*
X3941174Y8367625D01*
X3936591Y8367272D01*
X3933065Y8366567D01*
X3931655D01*
X3930597Y8366214D01*
X3930245D01*
X3929892D01*
X3920726Y8365157D01*
X3911559Y8364099D01*
X3902040Y8363394D01*
X3893227Y8363041D01*
X3889349D01*
X3885823D01*
X3882298Y8362689D01*
X3879477D01*
X3877362D01*
X3875599D01*
X3874541D01*
X3874189D01*
X3870663D01*
X3867490Y8363394D01*
X3865022Y8364099D01*
X3862555Y8364804D01*
X3860792Y8365862D01*
X3859029Y8366920D01*
X3856561Y8369740D01*
X3855151Y8372208D01*
X3854446Y8374323D01*
X3854093Y8375733D01*
Y8376438D01*
X3854446Y8379964D01*
X3855856Y8383137D01*
X3857619Y8385252D01*
X3859734Y8386662D01*
X3861497Y8387720D01*
X3863260Y8388425D01*
X3864670Y8388778D01*
X3865022D01*
X3873131Y8392303D01*
X3881240Y8396181D01*
X3888996Y8400412D01*
X3896400Y8404643D01*
X3902746Y8408521D01*
X3905566Y8409931D01*
X3907681Y8411341D01*
X3909797Y8412399D01*
X3911207Y8413456D01*
X3911912Y8413809D01*
X3912264Y8414161D01*
X3916848Y8417334D01*
X3921078Y8420155D01*
X3924604Y8422623D01*
X3927777Y8424738D01*
X3930245Y8426853D01*
X3932360Y8428616D01*
X3934475Y8430379D01*
X3935885Y8431437D01*
X3937648Y8433552D01*
X3938706Y8434962D01*
X3939058Y8435667D01*
Y8436020D01*
X3938706Y8436725D01*
X3937648Y8437077D01*
X3936238Y8437430D01*
X3934475Y8438135D01*
X3929540Y8438488D01*
X3924251Y8439193D01*
X3918610Y8439545D01*
X3913675Y8439898D01*
X3911912D01*
X3910502D01*
X3909444D01*
X3909091D01*
X3903098D01*
X3897810Y8440250D01*
X3893227Y8440603D01*
X3888996Y8440955D01*
X3885118Y8441661D01*
X3881945Y8442013D01*
X3879477Y8442718D01*
X3877009Y8443071D01*
X3875247Y8443776D01*
X3873836Y8444481D01*
X3871721Y8445186D01*
X3870663Y8445891D01*
X3870311Y8446244D01*
X3868548Y8448712D01*
X3867138Y8450827D01*
X3866433Y8452942D01*
X3865728Y8455058D01*
X3865375Y8456468D01*
X3865022Y8457878D01*
Y8458936D01*
X3865375Y8461756D01*
X3866433Y8464576D01*
X3867490Y8467044D01*
X3869253Y8469512D01*
X3870663Y8471275D01*
X3871721Y8472685D01*
X3872779Y8473390D01*
X3873131Y8473743D01*
X3876657Y8476563D01*
X3880887Y8479384D01*
X3885823Y8482204D01*
X3890406Y8485024D01*
X3894637Y8487140D01*
X3898515Y8488903D01*
X3899925Y8489608D01*
X3900630Y8490313D01*
X3901335Y8490665D01*
X3901688D01*
X3905919Y8492781D01*
X3909444Y8494543D01*
X3916143Y8497716D01*
X3921431Y8500184D01*
X3925661Y8502299D01*
X3928834Y8504062D01*
X3930950Y8505120D01*
X3932007Y8505472D01*
X3932360Y8505825D01*
X3934828Y8507588D01*
X3936943Y8508998D01*
X3938353Y8510056D01*
X3939058Y8511113D01*
X3939764Y8511818D01*
X3940116Y8512523D01*
Y8512876D01*
X3939764Y8513934D01*
X3939411Y8514639D01*
X3937648Y8516049D01*
X3935533Y8516402D01*
X3935180Y8516754D01*
X3934828D01*
X3932360Y8517459D01*
X3929540Y8517812D01*
X3926014Y8518164D01*
X3922488Y8518869D01*
X3919316Y8519222D01*
X3916495D01*
X3914732Y8519575D01*
X3914380D01*
X3914027D01*
X3908386Y8519927D01*
X3902746Y8520632D01*
X3898162Y8520985D01*
X3893579Y8521690D01*
X3889701Y8522395D01*
X3886176Y8523100D01*
X3883003Y8523805D01*
X3880535Y8524510D01*
X3878067Y8525215D01*
X3875952Y8525568D01*
X3873131Y8526626D01*
X3871721Y8527331D01*
X3871016Y8527683D01*
X3867490Y8530151D01*
X3865022Y8532972D01*
X3862907Y8535792D01*
X3861850Y8538260D01*
X3861144Y8540728D01*
X3860792Y8542843D01*
X3860439Y8544253D01*
Y8544606D01*
X3860792Y8547074D01*
X3861144Y8549189D01*
X3862907Y8553067D01*
X3863612Y8554830D01*
X3864317Y8555887D01*
X3864670Y8556592D01*
X3865022Y8556945D01*
X3866785Y8559060D01*
X3868548Y8560471D01*
X3869958Y8561881D01*
X3871368Y8562586D01*
X3873484Y8563291D01*
X3873836D01*
X3874189D01*
X3875952Y8562938D01*
D02*
G37*
G36*
X4123372Y8352465D02*
X4129718Y8351055D01*
X4135007Y8349292D01*
X4139590Y8347177D01*
X4143468Y8344709D01*
X4146288Y8342946D01*
X4148051Y8341536D01*
X4148756Y8341183D01*
X4153339Y8336600D01*
X4156865Y8331664D01*
X4159333Y8326729D01*
X4160743Y8322145D01*
X4161801Y8317915D01*
X4162153Y8314742D01*
X4162506Y8313332D01*
Y8311569D01*
X4162153Y8306633D01*
X4161448Y8302050D01*
X4160038Y8297467D01*
X4158275Y8293236D01*
X4154045Y8285480D01*
X4149109Y8278782D01*
X4144173Y8273493D01*
X4142058Y8271378D01*
X4139942Y8269615D01*
X4138180Y8267852D01*
X4136769Y8266795D01*
X4136064Y8266442D01*
X4135712Y8266090D01*
X4130776Y8262917D01*
X4125840Y8260096D01*
X4120905Y8257276D01*
X4115969Y8255161D01*
X4106803Y8251988D01*
X4098341Y8249872D01*
X4094816Y8248815D01*
X4091290Y8248462D01*
X4088470Y8248109D01*
X4086002Y8247757D01*
X4083887Y8247404D01*
X4082476D01*
X4081419D01*
X4081066D01*
X4075073Y8247757D01*
X4069432Y8249167D01*
X4064496Y8250577D01*
X4060618Y8252693D01*
X4057093Y8254455D01*
X4054625Y8256218D01*
X4053215Y8257276D01*
X4052510Y8257628D01*
X4048631Y8261859D01*
X4046164Y8266090D01*
X4044048Y8270320D01*
X4042638Y8274551D01*
X4041933Y8278076D01*
X4041580Y8281249D01*
X4041228Y8283012D01*
Y8283717D01*
X4041580Y8287595D01*
X4041933Y8291121D01*
X4044048Y8298172D01*
X4046516Y8304870D01*
X4049689Y8311216D01*
X4052862Y8316152D01*
X4055683Y8320030D01*
X4056740Y8321440D01*
X4057445Y8322498D01*
X4057798Y8323203D01*
X4058150Y8323556D01*
X4064849Y8330607D01*
X4071900Y8336247D01*
X4079303Y8340831D01*
X4085649Y8344709D01*
X4091643Y8347529D01*
X4094111Y8348587D01*
X4096226Y8349292D01*
X4097989Y8349997D01*
X4099399Y8350350D01*
X4100104Y8350702D01*
X4100457D01*
X4106450Y8352112D01*
X4108918Y8352465D01*
X4111386D01*
X4113501Y8352817D01*
X4115264D01*
X4116321D01*
X4116674D01*
X4123372Y8352465D01*
D02*
G37*
G36*
X3866080Y8335542D02*
X3867490Y8334485D01*
X3868195Y8333075D01*
X3868548Y8332722D01*
X3869958Y8330959D01*
X3871721Y8329549D01*
X3873836Y8328491D01*
X3876304Y8327434D01*
X3881592Y8325671D01*
X3887586Y8324613D01*
X3892874Y8323908D01*
X3895342D01*
X3897457Y8323556D01*
X3899573D01*
X3900983D01*
X3901688D01*
X3902040D01*
X3910502Y8323908D01*
X3918610Y8324613D01*
X3926014Y8325318D01*
X3932360Y8326729D01*
X3937296Y8327786D01*
X3939411Y8328139D01*
X3941526Y8328491D01*
X3942936Y8328844D01*
X3943994Y8329196D01*
X3944347Y8329549D01*
X3944699D01*
X3947872Y8330959D01*
X3950340Y8331312D01*
X3951398Y8331664D01*
X3951750D01*
X3955981Y8331312D01*
X3959154Y8329902D01*
X3961269Y8328139D01*
X3963032Y8326023D01*
X3963737Y8323908D01*
X3964090Y8322145D01*
X3964442Y8320735D01*
Y8320383D01*
X3964090Y8317915D01*
X3963385Y8315799D01*
X3961622Y8312627D01*
X3959506Y8310511D01*
X3958801Y8310159D01*
X3958449Y8309806D01*
X3955981Y8308396D01*
X3952455Y8306986D01*
X3948577Y8305575D01*
X3944699Y8304165D01*
X3940821Y8303108D01*
X3937648Y8302050D01*
X3935533Y8301697D01*
X3935180Y8301345D01*
X3934828D01*
X3927777Y8298877D01*
X3921078Y8296057D01*
X3915085Y8292531D01*
X3909444Y8289006D01*
X3904861Y8285833D01*
X3901335Y8283012D01*
X3899925Y8281954D01*
X3898867Y8281249D01*
X3898515Y8280897D01*
X3898162Y8280544D01*
X3894989Y8277724D01*
X3892522Y8274903D01*
X3890054Y8272436D01*
X3887938Y8269968D01*
X3884765Y8265737D01*
X3882650Y8262212D01*
X3881592Y8259391D01*
X3880887Y8257276D01*
X3880535Y8255866D01*
Y8255513D01*
X3881240Y8253750D01*
X3882650Y8252340D01*
X3885118Y8251282D01*
X3887586Y8250577D01*
X3890054Y8250225D01*
X3892522Y8249872D01*
X3893932D01*
X3894637D01*
X3896752D01*
X3899573Y8250577D01*
X3902746Y8250930D01*
X3905919Y8251635D01*
X3909091Y8252340D01*
X3911559Y8252693D01*
X3913322Y8253398D01*
X3914027D01*
X3919316Y8254808D01*
X3923899Y8255866D01*
X3928129Y8256923D01*
X3931302Y8257981D01*
X3933770Y8258686D01*
X3935885Y8259391D01*
X3936943Y8259744D01*
X3937296D01*
X3942231Y8261506D01*
X3946462Y8262917D01*
X3950340Y8263974D01*
X3953513Y8264679D01*
X3955628Y8265032D01*
X3957391Y8265385D01*
X3958449D01*
X3958801D01*
X3960564D01*
X3961974Y8264679D01*
X3964795Y8263622D01*
X3966557Y8262212D01*
X3966910Y8261859D01*
X3967263Y8261506D01*
X3968673Y8260096D01*
X3969730Y8258333D01*
X3971141Y8255161D01*
Y8253750D01*
X3971493Y8252693D01*
Y8251635D01*
X3971141Y8248462D01*
X3970083Y8245994D01*
X3968673Y8243526D01*
X3966910Y8241764D01*
X3965147Y8240353D01*
X3963737Y8239296D01*
X3962679Y8238943D01*
X3962327Y8238591D01*
X3957744Y8238238D01*
X3952808Y8237885D01*
X3947520Y8236828D01*
X3942231Y8235770D01*
X3937648Y8234713D01*
X3933770Y8234007D01*
X3932360Y8233655D01*
X3931302Y8233302D01*
X3930597Y8232950D01*
X3930245D01*
X3921078Y8230834D01*
X3913322Y8229424D01*
X3906624Y8228014D01*
X3901335Y8227309D01*
X3897105Y8226956D01*
X3894284Y8226604D01*
X3892522D01*
X3891816D01*
X3885471Y8226956D01*
X3880182Y8228014D01*
X3875599Y8229072D01*
X3872074Y8230834D01*
X3869253Y8232245D01*
X3867138Y8233302D01*
X3865728Y8234360D01*
X3865375Y8234713D01*
X3862555Y8237885D01*
X3860439Y8241058D01*
X3859029Y8243526D01*
X3857971Y8246347D01*
X3857266Y8248109D01*
X3856914Y8249872D01*
Y8251282D01*
X3857266Y8256571D01*
X3858677Y8261506D01*
X3860439Y8266090D01*
X3862555Y8270320D01*
X3864317Y8273846D01*
X3866080Y8276314D01*
X3867490Y8278076D01*
X3867843Y8278782D01*
X3872426Y8283717D01*
X3877009Y8288300D01*
X3881945Y8292178D01*
X3886881Y8295704D01*
X3891111Y8298877D01*
X3894284Y8300992D01*
X3895695Y8301697D01*
X3896752Y8302402D01*
X3897105Y8302755D01*
X3897457D01*
X3890406Y8303108D01*
X3884060Y8303460D01*
X3878419Y8304165D01*
X3873836Y8304870D01*
X3870311Y8305575D01*
X3867490Y8306281D01*
X3866080Y8306986D01*
X3865375D01*
X3861497Y8308748D01*
X3858677Y8310864D01*
X3856561Y8312979D01*
X3855151Y8315094D01*
X3854446Y8317210D01*
X3854093Y8318620D01*
X3853741Y8319678D01*
Y8320030D01*
X3854446Y8323556D01*
X3855504Y8327081D01*
X3856209Y8328491D01*
X3856561Y8329196D01*
X3857266Y8329902D01*
Y8330254D01*
X3858324Y8332017D01*
X3859734Y8333427D01*
X3860792Y8334485D01*
X3861850Y8335190D01*
X3863612Y8335895D01*
X3864317D01*
X3866080Y8335542D01*
D02*
G37*
G36*
X3969025Y8211797D02*
X3971493Y8211444D01*
X3975019Y8209329D01*
X3977839Y8206508D01*
X3979954Y8202983D01*
X3981012Y8199457D01*
X3981365Y8196637D01*
X3981717Y8194522D01*
Y8193816D01*
X3981012Y8186765D01*
X3979602Y8180067D01*
X3977134Y8173368D01*
X3974666Y8167375D01*
X3971846Y8162087D01*
X3970788Y8159971D01*
X3969378Y8157856D01*
X3968673Y8156446D01*
X3967968Y8155388D01*
X3967263Y8154683D01*
Y8154331D01*
X3964442Y8150453D01*
X3961974Y8147280D01*
X3959154Y8144459D01*
X3956333Y8141991D01*
X3953513Y8140229D01*
X3950693Y8138466D01*
X3945757Y8135998D01*
X3941174Y8134235D01*
X3937648Y8133530D01*
X3936238Y8133178D01*
X3935180D01*
X3934828D01*
X3934475D01*
X3931302Y8133530D01*
X3928129Y8134235D01*
X3924956Y8134940D01*
X3922488Y8136351D01*
X3920373Y8137408D01*
X3918963Y8138113D01*
X3917905Y8138818D01*
X3917553Y8139171D01*
X3916143Y8140581D01*
X3914732Y8141991D01*
X3911559Y8146222D01*
X3908739Y8150453D01*
X3905919Y8155388D01*
X3903451Y8159971D01*
X3901335Y8163497D01*
X3900630Y8164907D01*
X3899925Y8165965D01*
X3899573Y8166670D01*
Y8167023D01*
X3898162Y8170195D01*
X3896400Y8173016D01*
X3894989Y8175484D01*
X3893932Y8177599D01*
X3891464Y8180772D01*
X3889349Y8183240D01*
X3887586Y8184650D01*
X3886528Y8185355D01*
X3885823Y8185708D01*
X3885471D01*
X3883708Y8183945D01*
X3882298Y8181830D01*
X3879830Y8176894D01*
X3879125Y8174779D01*
X3878419Y8172663D01*
X3877714Y8171253D01*
Y8170901D01*
X3875952Y8163144D01*
X3875247Y8159619D01*
X3874894Y8156446D01*
Y8153978D01*
X3874541Y8151863D01*
Y8150100D01*
X3874894Y8147280D01*
X3875247Y8144812D01*
X3875599Y8143049D01*
Y8142344D01*
X3876304Y8139523D01*
X3877009Y8137408D01*
Y8134235D01*
X3876304Y8132472D01*
X3875247Y8129299D01*
X3873836Y8127537D01*
X3873484Y8127184D01*
X3873131Y8126832D01*
X3871721Y8125421D01*
X3870311Y8124716D01*
X3867490Y8123306D01*
X3865375Y8122954D01*
X3865022D01*
X3864670D01*
X3862202Y8123306D01*
X3860087Y8123659D01*
X3856561Y8125774D01*
X3854446Y8128947D01*
X3852683Y8132472D01*
X3851626Y8135998D01*
X3851273Y8139171D01*
X3850920Y8141286D01*
Y8141991D01*
X3851273Y8151510D01*
X3852683Y8160677D01*
X3854093Y8168785D01*
X3856209Y8175836D01*
X3856914Y8178657D01*
X3857971Y8181477D01*
X3858677Y8183945D01*
X3859734Y8185708D01*
X3860087Y8187471D01*
X3860792Y8188528D01*
X3861144Y8189233D01*
Y8189586D01*
X3863260Y8193464D01*
X3865375Y8196637D01*
X3867490Y8199457D01*
X3869606Y8201925D01*
X3871721Y8204040D01*
X3874189Y8205451D01*
X3878067Y8208271D01*
X3881945Y8209681D01*
X3884765Y8210386D01*
X3886528Y8210739D01*
X3887233D01*
X3890406Y8210386D01*
X3893227Y8209681D01*
X3896047Y8208976D01*
X3898162Y8207919D01*
X3899925Y8206508D01*
X3901688Y8205803D01*
X3902393Y8205098D01*
X3902746Y8204746D01*
X3905566Y8201925D01*
X3908386Y8198400D01*
X3911207Y8194169D01*
X3913675Y8190291D01*
X3915790Y8186413D01*
X3917553Y8183240D01*
X3918610Y8180772D01*
X3918963Y8180420D01*
Y8180067D01*
X3921078Y8175836D01*
X3922841Y8172311D01*
X3924604Y8169490D01*
X3926014Y8167023D01*
X3927072Y8165612D01*
X3927777Y8164202D01*
X3928482Y8163850D01*
Y8163497D01*
X3929892Y8162087D01*
X3931302Y8161382D01*
X3934123Y8159971D01*
X3935885Y8159619D01*
X3936238D01*
X3936591D01*
X3939764Y8159971D01*
X3942584Y8161382D01*
X3945052Y8163144D01*
X3947167Y8165260D01*
X3948930Y8167375D01*
X3950340Y8169138D01*
X3951045Y8170548D01*
X3951398Y8170901D01*
X3953513Y8175131D01*
X3955276Y8179009D01*
X3956333Y8182887D01*
X3957391Y8185708D01*
X3957744Y8188528D01*
X3958096Y8190291D01*
Y8192054D01*
X3957744Y8193464D01*
X3957391Y8194874D01*
X3957039Y8196284D01*
X3956686Y8196637D01*
X3955981Y8198400D01*
X3955628Y8199810D01*
Y8200868D01*
X3955981Y8203335D01*
X3957391Y8205451D01*
X3958449Y8207213D01*
X3958801Y8207919D01*
X3960212Y8209329D01*
X3961269Y8210386D01*
X3963737Y8211797D01*
X3965500Y8212149D01*
X3965852D01*
X3966205D01*
X3969025Y8211797D01*
D02*
G37*
G36*
X4064144Y8233655D02*
X4065554Y8233302D01*
X4068022Y8231187D01*
X4069785Y8229424D01*
X4070137Y8228719D01*
Y8228367D01*
X4071547Y8226251D01*
X4073310Y8224136D01*
X4077541Y8221316D01*
X4079656Y8220610D01*
X4081419Y8219905D01*
X4082476Y8219200D01*
X4082829D01*
X4087060Y8218143D01*
X4091643Y8217437D01*
X4096579Y8216732D01*
X4101162Y8216027D01*
X4105392Y8215675D01*
X4108918Y8215322D01*
X4110328Y8214970D01*
X4111386D01*
X4111738D01*
X4112091D01*
X4120552Y8213912D01*
X4127603Y8212854D01*
X4133597Y8211444D01*
X4138532Y8210034D01*
X4142058Y8208976D01*
X4144526Y8207919D01*
X4146288Y8207566D01*
X4146641Y8207213D01*
X4150166Y8205098D01*
X4152634Y8202278D01*
X4154397Y8199457D01*
X4155455Y8196637D01*
X4156512Y8194169D01*
X4156865Y8192054D01*
Y8190291D01*
X4156512Y8186765D01*
X4155455Y8183240D01*
X4154045Y8180067D01*
X4152634Y8177247D01*
X4150872Y8174779D01*
X4149461Y8173016D01*
X4148404Y8171606D01*
X4148051Y8171253D01*
X4146288Y8169490D01*
X4144173Y8167728D01*
X4138885Y8164202D01*
X4133244Y8160677D01*
X4127603Y8157151D01*
X4121962Y8154331D01*
X4119494Y8152920D01*
X4117379Y8151863D01*
X4115616Y8151158D01*
X4114206Y8150453D01*
X4113501Y8149747D01*
X4113148D01*
X4108918Y8147632D01*
X4105392Y8145869D01*
X4102219Y8144107D01*
X4099399Y8142696D01*
X4096931Y8141639D01*
X4095168Y8140581D01*
X4092348Y8138818D01*
X4090585Y8137408D01*
X4089528Y8136703D01*
X4089175Y8136351D01*
X4089528Y8135998D01*
X4090233Y8135645D01*
X4091290Y8135293D01*
X4093053Y8134940D01*
X4096931Y8134588D01*
X4101514Y8134235D01*
X4106097Y8133883D01*
X4109976D01*
X4111738D01*
X4112796D01*
X4113501D01*
X4113854D01*
X4118789D01*
X4123020Y8133530D01*
X4127251Y8133178D01*
X4130776Y8132825D01*
X4133949Y8132120D01*
X4136769Y8131767D01*
X4141353Y8130710D01*
X4144878Y8129299D01*
X4146993Y8128594D01*
X4148404Y8127889D01*
X4148756Y8127537D01*
X4151577Y8125069D01*
X4153339Y8122601D01*
X4154750Y8119781D01*
X4155807Y8117313D01*
X4156512Y8115197D01*
X4156865Y8113435D01*
Y8111672D01*
X4156512Y8109204D01*
X4156160Y8107089D01*
X4154045Y8102153D01*
X4150519Y8097570D01*
X4146288Y8092634D01*
X4141353Y8088051D01*
X4135712Y8083468D01*
X4129366Y8079237D01*
X4123372Y8075006D01*
X4117027Y8071128D01*
X4110681Y8067603D01*
X4105040Y8064430D01*
X4100104Y8061962D01*
X4095873Y8059494D01*
X4092348Y8058084D01*
X4090233Y8057026D01*
X4089880Y8056674D01*
X4092348D01*
X4095873Y8057026D01*
X4103277Y8058437D01*
X4106450Y8058789D01*
X4109270Y8059494D01*
X4111033Y8059847D01*
X4111738D01*
X4116321Y8060904D01*
X4120552Y8061962D01*
X4124430Y8062667D01*
X4127603Y8063372D01*
X4130424Y8064077D01*
X4133244Y8064430D01*
X4137475Y8065135D01*
X4140295Y8065488D01*
X4142410Y8065840D01*
X4143468D01*
X4143821D01*
X4147346D01*
X4150519Y8065135D01*
X4152987Y8064430D01*
X4155102Y8063372D01*
X4158628Y8060552D01*
X4161096Y8057731D01*
X4162506Y8054911D01*
X4163211Y8052091D01*
X4163563Y8050328D01*
Y8049623D01*
X4163211Y8046450D01*
X4162153Y8044334D01*
X4160743Y8042572D01*
X4160390Y8042219D01*
X4158275Y8040809D01*
X4156160Y8040104D01*
X4154397Y8039751D01*
X4154045D01*
X4153692D01*
X4146993D01*
X4140648Y8039399D01*
X4134654Y8039046D01*
X4129366Y8038341D01*
X4124783Y8037988D01*
X4121257Y8037283D01*
X4119847D01*
X4118789Y8036931D01*
X4118437D01*
X4118084D01*
X4108918Y8035873D01*
X4099752Y8034816D01*
X4090233Y8034110D01*
X4081419Y8033758D01*
X4077541D01*
X4074015D01*
X4070490Y8033405D01*
X4067669D01*
X4065554D01*
X4063791D01*
X4062734D01*
X4062381D01*
X4058855D01*
X4055683Y8034110D01*
X4053215Y8034816D01*
X4050747Y8035521D01*
X4048984Y8036578D01*
X4047221Y8037636D01*
X4044753Y8040456D01*
X4043343Y8042924D01*
X4042638Y8045040D01*
X4042286Y8046450D01*
Y8047155D01*
X4042638Y8050680D01*
X4044048Y8053853D01*
X4045811Y8055969D01*
X4047926Y8057379D01*
X4049689Y8058437D01*
X4051452Y8059142D01*
X4052862Y8059494D01*
X4053215D01*
X4061323Y8063020D01*
X4069432Y8066898D01*
X4077188Y8071128D01*
X4084592Y8075359D01*
X4090938Y8079237D01*
X4093758Y8080647D01*
X4095873Y8082057D01*
X4097989Y8083115D01*
X4099399Y8084173D01*
X4100104Y8084525D01*
X4100457Y8084878D01*
X4105040Y8088051D01*
X4109270Y8090871D01*
X4112796Y8093339D01*
X4115969Y8095454D01*
X4118437Y8097570D01*
X4120552Y8099333D01*
X4122667Y8101095D01*
X4124078Y8102153D01*
X4125840Y8104268D01*
X4126898Y8105678D01*
X4127251Y8106384D01*
Y8106736D01*
X4126898Y8107441D01*
X4125840Y8107794D01*
X4124430Y8108146D01*
X4122667Y8108851D01*
X4117732Y8109204D01*
X4112443Y8109909D01*
X4106803Y8110262D01*
X4101867Y8110614D01*
X4100104D01*
X4098694D01*
X4097636D01*
X4097284D01*
X4091290D01*
X4086002Y8110967D01*
X4081419Y8111319D01*
X4077188Y8111672D01*
X4073310Y8112377D01*
X4070137Y8112730D01*
X4067669Y8113435D01*
X4065201Y8113787D01*
X4063439Y8114492D01*
X4062028Y8115197D01*
X4059913Y8115902D01*
X4058855Y8116608D01*
X4058503Y8116960D01*
X4056740Y8119428D01*
X4055330Y8121543D01*
X4054625Y8123659D01*
X4053920Y8125774D01*
X4053567Y8127184D01*
X4053215Y8128594D01*
Y8129652D01*
X4053567Y8132472D01*
X4054625Y8135293D01*
X4055683Y8137761D01*
X4057445Y8140229D01*
X4058855Y8141991D01*
X4059913Y8143402D01*
X4060971Y8144107D01*
X4061323Y8144459D01*
X4064849Y8147280D01*
X4069079Y8150100D01*
X4074015Y8152920D01*
X4078598Y8155741D01*
X4082829Y8157856D01*
X4086707Y8159619D01*
X4088117Y8160324D01*
X4088822Y8161029D01*
X4089528Y8161382D01*
X4089880D01*
X4094111Y8163497D01*
X4097636Y8165260D01*
X4104335Y8168433D01*
X4109623Y8170901D01*
X4113854Y8173016D01*
X4117027Y8174779D01*
X4119142Y8175836D01*
X4120200Y8176189D01*
X4120552Y8176541D01*
X4123020Y8178304D01*
X4125135Y8179714D01*
X4126545Y8180772D01*
X4127251Y8181830D01*
X4127956Y8182535D01*
X4128308Y8183240D01*
Y8183592D01*
X4127956Y8184650D01*
X4127603Y8185355D01*
X4125840Y8186765D01*
X4123725Y8187118D01*
X4123372Y8187471D01*
X4123020D01*
X4120552Y8188176D01*
X4117732Y8188528D01*
X4114206Y8188881D01*
X4110681Y8189586D01*
X4107508Y8189938D01*
X4104687D01*
X4102924Y8190291D01*
X4102572D01*
X4102219D01*
X4096579Y8190644D01*
X4090938Y8191349D01*
X4086355Y8191701D01*
X4081771Y8192406D01*
X4077893Y8193111D01*
X4074368Y8193816D01*
X4071195Y8194522D01*
X4068727Y8195227D01*
X4066259Y8195932D01*
X4064144Y8196284D01*
X4061323Y8197342D01*
X4059913Y8198047D01*
X4059208Y8198400D01*
X4055683Y8200868D01*
X4053215Y8203688D01*
X4051099Y8206508D01*
X4050042Y8208976D01*
X4049337Y8211444D01*
X4048984Y8213559D01*
X4048631Y8214970D01*
Y8215322D01*
X4048984Y8217790D01*
X4049337Y8219905D01*
X4051099Y8223783D01*
X4051804Y8225546D01*
X4052510Y8226604D01*
X4052862Y8227309D01*
X4053215Y8227661D01*
X4054977Y8229777D01*
X4056740Y8231187D01*
X4058150Y8232597D01*
X4059561Y8233302D01*
X4061676Y8234007D01*
X4062028D01*
X4062381D01*
X4064144Y8233655D01*
D02*
G37*
G36*
X4085649Y8013662D02*
X4087412Y8012957D01*
X4088822Y8011900D01*
X4089528Y8010842D01*
X4090585Y8008374D01*
Y8007316D01*
X4090233Y8005906D01*
X4089880Y8004496D01*
X4088470Y8002028D01*
X4086707Y8000265D01*
X4086355Y7999913D01*
X4086002Y7999560D01*
X4082124Y7995682D01*
X4078951Y7991452D01*
X4075778Y7987574D01*
X4073310Y7983695D01*
X4071195Y7980170D01*
X4069432Y7976644D01*
X4066964Y7969946D01*
X4065201Y7964658D01*
X4064849Y7962190D01*
X4064496Y7960427D01*
X4064144Y7958664D01*
Y7956549D01*
X4064496Y7953729D01*
X4064849Y7951261D01*
X4065554Y7949145D01*
X4066612Y7947383D01*
X4067317Y7945972D01*
X4068022Y7944915D01*
X4068374Y7944562D01*
X4068727Y7944210D01*
X4070490Y7942799D01*
X4072252Y7941742D01*
X4075425Y7940684D01*
X4076836Y7940332D01*
X4077541Y7939979D01*
X4078246D01*
X4078598D01*
X4080361Y7940332D01*
X4081419Y7941742D01*
X4082124Y7942799D01*
Y7943152D01*
X4084944Y7953023D01*
X4088470Y7962190D01*
X4092348Y7969946D01*
X4096226Y7976644D01*
X4099752Y7981933D01*
X4101514Y7984048D01*
X4102572Y7985811D01*
X4103982Y7987221D01*
X4104687Y7988279D01*
X4105040Y7988631D01*
X4105392Y7988984D01*
X4108565Y7992157D01*
X4111738Y7994977D01*
X4114911Y7997445D01*
X4118084Y7999560D01*
X4124078Y8002733D01*
X4129718Y8005201D01*
X4134302Y8006259D01*
X4137827Y8006964D01*
X4139237Y8007316D01*
X4140295D01*
X4140648D01*
X4141000D01*
X4144878Y8006964D01*
X4148051Y8006259D01*
X4151224Y8004849D01*
X4153692Y8003791D01*
X4156160Y8002381D01*
X4157570Y8000971D01*
X4158628Y8000265D01*
X4158980Y7999913D01*
X4161448Y7997092D01*
X4163563Y7993919D01*
X4164974Y7990394D01*
X4165679Y7987574D01*
X4166384Y7984753D01*
X4166736Y7982638D01*
Y7980523D01*
X4166384Y7975939D01*
X4165679Y7971709D01*
X4164269Y7967478D01*
X4162506Y7963247D01*
X4158275Y7955844D01*
X4153692Y7949145D01*
X4148756Y7943505D01*
X4146288Y7941037D01*
X4144526Y7938921D01*
X4142763Y7937511D01*
X4141353Y7936454D01*
X4140648Y7935748D01*
X4140295Y7935396D01*
X4135359Y7931518D01*
X4130424Y7928345D01*
X4125488Y7925524D01*
X4120552Y7923057D01*
X4115616Y7921294D01*
X4111033Y7919531D01*
X4102572Y7917063D01*
X4098694Y7916006D01*
X4095168Y7915300D01*
X4091995Y7914948D01*
X4089175Y7914595D01*
X4087060Y7914243D01*
X4085649D01*
X4084592D01*
X4084239D01*
X4077188Y7914595D01*
X4070842Y7916006D01*
X4065554Y7917416D01*
X4060971Y7919531D01*
X4057445Y7921294D01*
X4054977Y7923057D01*
X4053567Y7924114D01*
X4052862Y7924467D01*
X4048984Y7928697D01*
X4046516Y7933281D01*
X4044401Y7937864D01*
X4042991Y7942447D01*
X4042286Y7946678D01*
X4041933Y7949850D01*
X4041580Y7952318D01*
Y7953023D01*
X4041933Y7957254D01*
X4042286Y7961485D01*
X4044048Y7969241D01*
X4046516Y7976644D01*
X4049337Y7982638D01*
X4051804Y7987926D01*
X4053215Y7990041D01*
X4054272Y7991804D01*
X4055330Y7993214D01*
X4056035Y7994272D01*
X4056740Y7994625D01*
Y7994977D01*
X4059561Y7998503D01*
X4062381Y8001323D01*
X4064849Y8003791D01*
X4067317Y8005906D01*
X4071900Y8009432D01*
X4075778Y8011547D01*
X4078951Y8012957D01*
X4081419Y8013662D01*
X4082829Y8014015D01*
X4083182D01*
X4085649Y8013662D01*
D02*
G37*
G36*
X3948225Y8033053D02*
X3953866Y8032348D01*
X3958801Y8031643D01*
X3963032Y8030585D01*
X3966205Y8029175D01*
X3968673Y8028470D01*
X3970436Y8027764D01*
X3970788Y8027412D01*
X3975019Y8024944D01*
X3979249Y8021419D01*
X3982775Y8017540D01*
X3985948Y8014015D01*
X3988768Y8010137D01*
X3990884Y8007316D01*
X3992294Y8005201D01*
X3992646Y8004849D01*
Y8004496D01*
X3996172Y7998150D01*
X3998640Y7992509D01*
X4000402Y7986868D01*
X4001460Y7982285D01*
X4002518Y7978407D01*
X4002870Y7975234D01*
Y7972766D01*
X4002518Y7968888D01*
X4002165Y7965010D01*
X4000402Y7957254D01*
X3997582Y7949498D01*
X3994409Y7942799D01*
X3991236Y7936806D01*
X3989826Y7933986D01*
X3988768Y7931870D01*
X3987358Y7930108D01*
X3986653Y7928697D01*
X3986300Y7927992D01*
X3985948Y7927640D01*
X3979249Y7918826D01*
X3972551Y7911070D01*
X3965500Y7904724D01*
X3958801Y7899436D01*
X3953160Y7895205D01*
X3950693Y7893795D01*
X3948577Y7892385D01*
X3946815Y7891327D01*
X3945404Y7890622D01*
X3944699Y7889917D01*
X3944347D01*
X3935180Y7885686D01*
X3926719Y7882866D01*
X3918610Y7880750D01*
X3911912Y7878988D01*
X3906271Y7878282D01*
X3903803Y7877930D01*
X3902040D01*
X3900278Y7877577D01*
X3899220D01*
X3898515D01*
X3898162D01*
X3891464Y7877930D01*
X3885823Y7879340D01*
X3880535Y7880750D01*
X3876304Y7882866D01*
X3872779Y7884628D01*
X3869958Y7886391D01*
X3868548Y7887449D01*
X3867843Y7887801D01*
X3863965Y7892032D01*
X3861144Y7896615D01*
X3859029Y7901198D01*
X3857619Y7905429D01*
X3856914Y7909660D01*
X3856561Y7912833D01*
X3856209Y7914948D01*
Y7915653D01*
X3856561Y7923762D01*
X3857619Y7931870D01*
X3859029Y7939626D01*
X3860792Y7947030D01*
X3862907Y7954081D01*
X3865375Y7960780D01*
X3867843Y7967126D01*
X3870663Y7972766D01*
X3873131Y7978055D01*
X3875599Y7982638D01*
X3878067Y7986868D01*
X3880182Y7990394D01*
X3882298Y7993214D01*
X3883708Y7994977D01*
X3884413Y7996387D01*
X3884765Y7996740D01*
X3890054Y8003086D01*
X3895342Y8008727D01*
X3900630Y8013662D01*
X3905919Y8017893D01*
X3910502Y8021419D01*
X3915437Y8024592D01*
X3920021Y8027059D01*
X3923899Y8028822D01*
X3927777Y8030232D01*
X3931302Y8031643D01*
X3934475Y8032348D01*
X3936943Y8032700D01*
X3939058Y8033053D01*
X3940469Y8033405D01*
X3941526D01*
X3941879D01*
X3948225Y8033053D01*
D02*
G37*
G36*
X3880182Y7874404D02*
X3882298Y7873347D01*
X3883708Y7872289D01*
X3884413Y7871584D01*
X3885823Y7870174D01*
X3886528Y7869116D01*
X3887938Y7866648D01*
X3888291Y7865238D01*
Y7864533D01*
X3887938Y7861007D01*
X3887233Y7857834D01*
X3886528Y7855719D01*
X3886176Y7855367D01*
Y7855014D01*
X3885118Y7851841D01*
X3884413Y7849021D01*
X3884060Y7847258D01*
Y7844790D01*
X3884413Y7842675D01*
X3884765Y7837386D01*
X3885118Y7834919D01*
Y7833156D01*
X3885471Y7831746D01*
Y7831040D01*
X3886176Y7826810D01*
X3886528Y7823284D01*
X3886881Y7820464D01*
Y7817996D01*
X3887233Y7816233D01*
Y7804599D01*
X3886528Y7796490D01*
X3886176Y7789792D01*
X3885471Y7784504D01*
X3884765Y7779920D01*
X3884413Y7777100D01*
X3883708Y7775337D01*
Y7774632D01*
X3890054Y7786266D01*
X3896400Y7796843D01*
X3899925Y7801779D01*
X3903098Y7806009D01*
X3906271Y7810240D01*
X3909091Y7813765D01*
X3911912Y7817291D01*
X3914732Y7820111D01*
X3916848Y7822579D01*
X3918963Y7824695D01*
X3920726Y7826457D01*
X3921783Y7827515D01*
X3922488Y7828220D01*
X3922841Y7828573D01*
X3927072Y7832451D01*
X3931302Y7835624D01*
X3935533Y7838444D01*
X3939411Y7840912D01*
X3942936Y7843027D01*
X3946462Y7844437D01*
X3952808Y7847258D01*
X3957744Y7848668D01*
X3959859Y7849021D01*
X3961622Y7849373D01*
X3963032Y7849726D01*
X3964090D01*
X3964442D01*
X3964795D01*
X3969730Y7849021D01*
X3974666Y7847610D01*
X3978897Y7845495D01*
X3982775Y7843027D01*
X3986300Y7840559D01*
X3988768Y7838444D01*
X3990178Y7837034D01*
X3990884Y7836329D01*
X3995114Y7831393D01*
X3998287Y7826457D01*
X4000402Y7821874D01*
X4002165Y7817643D01*
X4002870Y7814118D01*
X4003223Y7811298D01*
X4003575Y7809535D01*
Y7808830D01*
X4003223Y7803189D01*
X4002870Y7797901D01*
X4002165Y7793317D01*
X4001460Y7789439D01*
X4000402Y7786619D01*
X3999697Y7784151D01*
X3999345Y7782741D01*
X3998992Y7782388D01*
X3997229Y7778510D01*
X3994409Y7773927D01*
X3991941Y7769344D01*
X3989121Y7764761D01*
X3986300Y7760883D01*
X3984185Y7757357D01*
X3982775Y7755242D01*
X3982070Y7754889D01*
Y7754537D01*
X3980307Y7752069D01*
X3978897Y7749954D01*
X3978192Y7748543D01*
X3977839Y7748191D01*
X3976076Y7745370D01*
X3973961Y7743608D01*
X3972551Y7742197D01*
X3970788Y7741140D01*
X3969730Y7740435D01*
X3968673Y7740082D01*
X3968320D01*
X3967968D01*
X3964795Y7740435D01*
X3961622Y7741845D01*
X3959506Y7742902D01*
X3958801Y7743255D01*
X3958449D01*
X3956686Y7744313D01*
X3955628Y7745723D01*
X3954218Y7747838D01*
X3953513Y7749601D01*
Y7750306D01*
X3953866Y7754184D01*
X3954218Y7757357D01*
X3955276Y7759825D01*
X3956333Y7761940D01*
X3957039Y7763703D01*
X3958096Y7764761D01*
X3958449Y7765466D01*
X3958801Y7765818D01*
X3961974Y7768639D01*
X3964795Y7771812D01*
X3967263Y7774985D01*
X3969730Y7777805D01*
X3971493Y7780626D01*
X3972903Y7782741D01*
X3973609Y7784151D01*
X3973961Y7784504D01*
X3976429Y7788382D01*
X3978192Y7791907D01*
X3979249Y7794728D01*
X3980307Y7796843D01*
X3980660Y7798253D01*
X3981012Y7799663D01*
Y7800368D01*
X3980660Y7803541D01*
X3980307Y7806714D01*
X3979249Y7809182D01*
X3978192Y7811298D01*
X3977134Y7813060D01*
X3976429Y7814471D01*
X3975724Y7815176D01*
X3975371Y7815528D01*
X3973256Y7817643D01*
X3970788Y7819054D01*
X3968673Y7820464D01*
X3966557Y7821169D01*
X3964795Y7821522D01*
X3963385Y7821874D01*
X3962327D01*
X3961974D01*
X3959154Y7821522D01*
X3955981Y7820464D01*
X3952808Y7819054D01*
X3949635Y7817643D01*
X3946462Y7815881D01*
X3944347Y7814471D01*
X3942936Y7813413D01*
X3942231Y7813060D01*
X3937648Y7809535D01*
X3933418Y7806009D01*
X3929187Y7802484D01*
X3925661Y7798958D01*
X3922841Y7795785D01*
X3920726Y7793317D01*
X3918963Y7791555D01*
X3918610Y7790850D01*
X3914380Y7785561D01*
X3910149Y7779215D01*
X3905919Y7772869D01*
X3902040Y7766876D01*
X3898515Y7761588D01*
X3897105Y7759120D01*
X3896047Y7757005D01*
X3894989Y7755594D01*
X3894284Y7754184D01*
X3893579Y7753479D01*
Y7753126D01*
X3889701Y7746781D01*
X3886176Y7741492D01*
X3883003Y7737262D01*
X3880182Y7734089D01*
X3878067Y7731621D01*
X3876304Y7730211D01*
X3875247Y7729153D01*
X3874894Y7728800D01*
X3872074Y7726685D01*
X3868901Y7725275D01*
X3866080Y7724217D01*
X3863612Y7723512D01*
X3861497Y7723160D01*
X3859734Y7722807D01*
X3858677D01*
X3858324D01*
X3854798Y7723160D01*
X3852331Y7724570D01*
X3850568Y7726685D01*
X3849510Y7728800D01*
X3848805Y7730916D01*
X3848100Y7733031D01*
Y7734794D01*
X3848453Y7737614D01*
X3849158Y7740082D01*
X3849863Y7742197D01*
X3850920Y7743960D01*
X3851978Y7745370D01*
X3853036Y7746428D01*
X3853388Y7746781D01*
X3853741Y7747133D01*
X3856561Y7750306D01*
X3858677Y7753126D01*
X3860087Y7755242D01*
X3860439Y7755594D01*
Y7755947D01*
X3861144Y7758062D01*
X3861850Y7760178D01*
X3863260Y7764761D01*
X3863612Y7766876D01*
X3863965Y7768639D01*
X3864317Y7770049D01*
Y7770402D01*
X3865728Y7778158D01*
X3866080Y7781683D01*
Y7785209D01*
X3866433Y7788029D01*
Y7792260D01*
X3866080Y7801074D01*
X3865728Y7808830D01*
X3865022Y7815881D01*
X3864317Y7821522D01*
X3863260Y7826105D01*
X3862555Y7829278D01*
X3862202Y7831393D01*
X3861850Y7832098D01*
X3861497Y7833861D01*
X3861144Y7836329D01*
X3860792Y7841617D01*
Y7847610D01*
X3861144Y7850783D01*
X3861497Y7854309D01*
X3862202Y7857129D01*
X3862907Y7859950D01*
X3863612Y7862065D01*
X3864317Y7864180D01*
X3865022Y7865238D01*
Y7865591D01*
X3866785Y7868764D01*
X3868901Y7871231D01*
X3871016Y7872642D01*
X3873131Y7874052D01*
X3874894Y7874757D01*
X3876657Y7875109D01*
X3877714D01*
X3878067D01*
X3880182Y7874404D01*
D02*
G37*
G36*
X4064144Y7901903D02*
X4065554Y7901551D01*
X4068022Y7899436D01*
X4069785Y7897673D01*
X4070137Y7896968D01*
Y7896615D01*
X4071547Y7894500D01*
X4073310Y7892385D01*
X4077541Y7889564D01*
X4079656Y7888859D01*
X4081419Y7888154D01*
X4082476Y7887449D01*
X4082829D01*
X4087060Y7886391D01*
X4091643Y7885686D01*
X4096579Y7884981D01*
X4101162Y7884276D01*
X4105392Y7883923D01*
X4108918Y7883571D01*
X4110328Y7883218D01*
X4111386D01*
X4111738D01*
X4112091D01*
X4120552Y7882161D01*
X4127603Y7881103D01*
X4133597Y7879693D01*
X4138532Y7878282D01*
X4142058Y7877225D01*
X4144526Y7876167D01*
X4146288Y7875815D01*
X4146641Y7875462D01*
X4150166Y7873347D01*
X4152634Y7870526D01*
X4154397Y7867706D01*
X4155455Y7864885D01*
X4156512Y7862418D01*
X4156865Y7860302D01*
Y7858540D01*
X4156512Y7855014D01*
X4155455Y7851488D01*
X4154045Y7848316D01*
X4152634Y7845495D01*
X4150872Y7843027D01*
X4149461Y7841264D01*
X4148404Y7839854D01*
X4148051Y7839502D01*
X4146288Y7837739D01*
X4144173Y7835976D01*
X4138885Y7832451D01*
X4133244Y7828925D01*
X4127603Y7825400D01*
X4121962Y7822579D01*
X4119494Y7821169D01*
X4117379Y7820111D01*
X4115616Y7819406D01*
X4114206Y7818701D01*
X4113501Y7817996D01*
X4113148D01*
X4108918Y7815881D01*
X4105392Y7814118D01*
X4102219Y7812355D01*
X4099399Y7810945D01*
X4096931Y7809887D01*
X4095168Y7808830D01*
X4092348Y7807067D01*
X4090585Y7805657D01*
X4089528Y7804952D01*
X4089175Y7804599D01*
X4089528Y7804247D01*
X4090233Y7803894D01*
X4091290Y7803541D01*
X4093053Y7803189D01*
X4096931Y7802836D01*
X4101514Y7802484D01*
X4106097Y7802131D01*
X4109976D01*
X4111738D01*
X4112796D01*
X4113501D01*
X4113854D01*
X4118789D01*
X4123020Y7801779D01*
X4127251Y7801426D01*
X4130776Y7801074D01*
X4133949Y7800368D01*
X4136769Y7800016D01*
X4141353Y7798958D01*
X4144878Y7797548D01*
X4146993Y7796843D01*
X4148404Y7796138D01*
X4148756Y7795785D01*
X4151577Y7793317D01*
X4153339Y7790850D01*
X4154750Y7788029D01*
X4155807Y7785561D01*
X4156512Y7783446D01*
X4156865Y7781683D01*
Y7779920D01*
X4156512Y7777453D01*
X4156160Y7775337D01*
X4154045Y7770402D01*
X4150519Y7765818D01*
X4146288Y7760883D01*
X4141353Y7756299D01*
X4135712Y7751716D01*
X4129366Y7747486D01*
X4123372Y7743255D01*
X4117027Y7739377D01*
X4110681Y7735851D01*
X4105040Y7732678D01*
X4100104Y7730211D01*
X4095873Y7727743D01*
X4092348Y7726333D01*
X4090233Y7725275D01*
X4089880Y7724922D01*
X4092348D01*
X4095873Y7725275D01*
X4103277Y7726685D01*
X4106450Y7727038D01*
X4109270Y7727743D01*
X4111033Y7728095D01*
X4111738D01*
X4116321Y7729153D01*
X4120552Y7730211D01*
X4124430Y7730916D01*
X4127603Y7731621D01*
X4130424Y7732326D01*
X4133244Y7732678D01*
X4137475Y7733384D01*
X4140295Y7733736D01*
X4142410Y7734089D01*
X4143468D01*
X4143821D01*
X4147346D01*
X4150519Y7733384D01*
X4152987Y7732678D01*
X4155102Y7731621D01*
X4158628Y7728800D01*
X4161096Y7725980D01*
X4162506Y7723160D01*
X4163211Y7720339D01*
X4163563Y7718576D01*
Y7717871D01*
X4163211Y7714698D01*
X4162153Y7712583D01*
X4160743Y7710820D01*
X4160390Y7710468D01*
X4158275Y7709057D01*
X4156160Y7708352D01*
X4154397Y7708000D01*
X4154045D01*
X4153692D01*
X4146993D01*
X4140648Y7707647D01*
X4134654Y7707295D01*
X4129366Y7706590D01*
X4124783Y7706237D01*
X4121257Y7705532D01*
X4119847D01*
X4118789Y7705179D01*
X4118437D01*
X4118084D01*
X4108918Y7704122D01*
X4099752Y7703064D01*
X4090233Y7702359D01*
X4081419Y7702006D01*
X4077541D01*
X4074015D01*
X4070490Y7701654D01*
X4067669D01*
X4065554D01*
X4063791D01*
X4062734D01*
X4062381D01*
X4058855D01*
X4055683Y7702359D01*
X4053215Y7703064D01*
X4050747Y7703769D01*
X4048984Y7704827D01*
X4047221Y7705885D01*
X4044753Y7708705D01*
X4043343Y7711173D01*
X4042638Y7713288D01*
X4042286Y7714698D01*
Y7715403D01*
X4042638Y7718929D01*
X4044048Y7722102D01*
X4045811Y7724217D01*
X4047926Y7725627D01*
X4049689Y7726685D01*
X4051452Y7727390D01*
X4052862Y7727743D01*
X4053215D01*
X4061323Y7731268D01*
X4069432Y7735146D01*
X4077188Y7739377D01*
X4084592Y7743608D01*
X4090938Y7747486D01*
X4093758Y7748896D01*
X4095873Y7750306D01*
X4097989Y7751364D01*
X4099399Y7752421D01*
X4100104Y7752774D01*
X4100457Y7753126D01*
X4105040Y7756299D01*
X4109270Y7759120D01*
X4112796Y7761588D01*
X4115969Y7763703D01*
X4118437Y7765818D01*
X4120552Y7767581D01*
X4122667Y7769344D01*
X4124078Y7770402D01*
X4125840Y7772517D01*
X4126898Y7773927D01*
X4127251Y7774632D01*
Y7774985D01*
X4126898Y7775690D01*
X4125840Y7776042D01*
X4124430Y7776395D01*
X4122667Y7777100D01*
X4117732Y7777453D01*
X4112443Y7778158D01*
X4106803Y7778510D01*
X4101867Y7778863D01*
X4100104D01*
X4098694D01*
X4097636D01*
X4097284D01*
X4091290D01*
X4086002Y7779215D01*
X4081419Y7779568D01*
X4077188Y7779920D01*
X4073310Y7780626D01*
X4070137Y7780978D01*
X4067669Y7781683D01*
X4065201Y7782036D01*
X4063439Y7782741D01*
X4062028Y7783446D01*
X4059913Y7784151D01*
X4058855Y7784856D01*
X4058503Y7785209D01*
X4056740Y7787677D01*
X4055330Y7789792D01*
X4054625Y7791907D01*
X4053920Y7794023D01*
X4053567Y7795433D01*
X4053215Y7796843D01*
Y7797901D01*
X4053567Y7800721D01*
X4054625Y7803541D01*
X4055683Y7806009D01*
X4057445Y7808477D01*
X4058855Y7810240D01*
X4059913Y7811650D01*
X4060971Y7812355D01*
X4061323Y7812708D01*
X4064849Y7815528D01*
X4069079Y7818349D01*
X4074015Y7821169D01*
X4078598Y7823989D01*
X4082829Y7826105D01*
X4086707Y7827868D01*
X4088117Y7828573D01*
X4088822Y7829278D01*
X4089528Y7829630D01*
X4089880D01*
X4094111Y7831746D01*
X4097636Y7833508D01*
X4104335Y7836681D01*
X4109623Y7839149D01*
X4113854Y7841264D01*
X4117027Y7843027D01*
X4119142Y7844085D01*
X4120200Y7844437D01*
X4120552Y7844790D01*
X4123020Y7846553D01*
X4125135Y7847963D01*
X4126545Y7849021D01*
X4127251Y7850078D01*
X4127956Y7850783D01*
X4128308Y7851488D01*
Y7851841D01*
X4127956Y7852899D01*
X4127603Y7853604D01*
X4125840Y7855014D01*
X4123725Y7855367D01*
X4123372Y7855719D01*
X4123020D01*
X4120552Y7856424D01*
X4117732Y7856777D01*
X4114206Y7857129D01*
X4110681Y7857834D01*
X4107508Y7858187D01*
X4104687D01*
X4102924Y7858540D01*
X4102572D01*
X4102219D01*
X4096579Y7858892D01*
X4090938Y7859597D01*
X4086355Y7859950D01*
X4081771Y7860655D01*
X4077893Y7861360D01*
X4074368Y7862065D01*
X4071195Y7862770D01*
X4068727Y7863475D01*
X4066259Y7864180D01*
X4064144Y7864533D01*
X4061323Y7865591D01*
X4059913Y7866296D01*
X4059208Y7866648D01*
X4055683Y7869116D01*
X4053215Y7871937D01*
X4051099Y7874757D01*
X4050042Y7877225D01*
X4049337Y7879693D01*
X4048984Y7881808D01*
X4048631Y7883218D01*
Y7883571D01*
X4048984Y7886039D01*
X4049337Y7888154D01*
X4051099Y7892032D01*
X4051804Y7893795D01*
X4052510Y7894852D01*
X4052862Y7895557D01*
X4053215Y7895910D01*
X4054977Y7898025D01*
X4056740Y7899436D01*
X4058150Y7900846D01*
X4059561Y7901551D01*
X4061676Y7902256D01*
X4062028D01*
X4062381D01*
X4064144Y7901903D01*
D02*
G37*
G36*
X3948225Y7714346D02*
X3953866Y7713641D01*
X3958801Y7712936D01*
X3963032Y7711878D01*
X3966205Y7710468D01*
X3968673Y7709763D01*
X3970436Y7709057D01*
X3970788Y7708705D01*
X3975019Y7706237D01*
X3979249Y7702712D01*
X3982775Y7698833D01*
X3985948Y7695308D01*
X3988768Y7691430D01*
X3990884Y7688609D01*
X3992294Y7686494D01*
X3992646Y7686142D01*
Y7685789D01*
X3996172Y7679443D01*
X3998640Y7673802D01*
X4000402Y7668161D01*
X4001460Y7663578D01*
X4002518Y7659700D01*
X4002870Y7656527D01*
Y7654059D01*
X4002518Y7650181D01*
X4002165Y7646303D01*
X4000402Y7638547D01*
X3997582Y7630791D01*
X3994409Y7624092D01*
X3991236Y7618099D01*
X3989826Y7615279D01*
X3988768Y7613163D01*
X3987358Y7611401D01*
X3986653Y7609990D01*
X3986300Y7609285D01*
X3985948Y7608933D01*
X3979249Y7600119D01*
X3972551Y7592363D01*
X3965500Y7586017D01*
X3958801Y7580729D01*
X3953160Y7576498D01*
X3950693Y7575088D01*
X3948577Y7573678D01*
X3946815Y7572620D01*
X3945404Y7571915D01*
X3944699Y7571210D01*
X3944347D01*
X3935180Y7566979D01*
X3926719Y7564159D01*
X3918610Y7562043D01*
X3911912Y7560281D01*
X3906271Y7559575D01*
X3903803Y7559223D01*
X3902040D01*
X3900278Y7558870D01*
X3899220D01*
X3898515D01*
X3898162D01*
X3891464Y7559223D01*
X3885823Y7560633D01*
X3880535Y7562043D01*
X3876304Y7564159D01*
X3872779Y7565921D01*
X3869958Y7567684D01*
X3868548Y7568742D01*
X3867843Y7569094D01*
X3863965Y7573325D01*
X3861144Y7577908D01*
X3859029Y7582491D01*
X3857619Y7586722D01*
X3856914Y7590953D01*
X3856561Y7594126D01*
X3856209Y7596241D01*
Y7596946D01*
X3856561Y7605055D01*
X3857619Y7613163D01*
X3859029Y7620919D01*
X3860792Y7628323D01*
X3862907Y7635374D01*
X3865375Y7642073D01*
X3867843Y7648419D01*
X3870663Y7654059D01*
X3873131Y7659348D01*
X3875599Y7663931D01*
X3878067Y7668161D01*
X3880182Y7671687D01*
X3882298Y7674507D01*
X3883708Y7676270D01*
X3884413Y7677680D01*
X3884765Y7678033D01*
X3890054Y7684379D01*
X3895342Y7690020D01*
X3900630Y7694955D01*
X3905919Y7699186D01*
X3910502Y7702712D01*
X3915437Y7705885D01*
X3920021Y7708352D01*
X3923899Y7710115D01*
X3927777Y7711525D01*
X3931302Y7712936D01*
X3934475Y7713641D01*
X3936943Y7713993D01*
X3939058Y7714346D01*
X3940469Y7714698D01*
X3941526D01*
X3941879D01*
X3948225Y7714346D01*
D02*
G37*
G36*
X4071195Y7599414D02*
X4072605Y7599061D01*
X4073663Y7598004D01*
X4074368Y7597298D01*
X4075073Y7595183D01*
Y7592715D01*
X4074720Y7590600D01*
X4074368Y7589190D01*
X4074015Y7588837D01*
Y7588485D01*
X4073310Y7586017D01*
X4072958Y7584254D01*
Y7582491D01*
X4073310Y7581434D01*
X4074720Y7580729D01*
X4076483Y7579671D01*
X4079303Y7578613D01*
X4082124Y7577908D01*
X4085297Y7577203D01*
X4092700Y7575793D01*
X4100104Y7574735D01*
X4103277Y7574030D01*
X4106450Y7573678D01*
X4108918Y7573325D01*
X4110681D01*
X4112091Y7572972D01*
X4112443D01*
X4119494Y7571915D01*
X4125488Y7570505D01*
X4130424Y7568742D01*
X4135007Y7566626D01*
X4138885Y7564159D01*
X4142058Y7561691D01*
X4144526Y7559223D01*
X4146641Y7556755D01*
X4148404Y7554287D01*
X4149461Y7551819D01*
X4150872Y7547589D01*
X4151224Y7546178D01*
X4151577Y7544768D01*
Y7543711D01*
X4150872Y7538422D01*
X4149109Y7533134D01*
X4146641Y7528198D01*
X4143115Y7523615D01*
X4138885Y7519032D01*
X4134302Y7514801D01*
X4124430Y7507045D01*
X4119142Y7503872D01*
X4114206Y7500699D01*
X4109623Y7498231D01*
X4105392Y7496116D01*
X4101867Y7494353D01*
X4099399Y7492943D01*
X4097636Y7492238D01*
X4096931Y7491885D01*
X4102219Y7492943D01*
X4107155Y7494001D01*
X4111386Y7494706D01*
X4115616Y7495411D01*
X4119142Y7496116D01*
X4122315Y7496821D01*
X4125135Y7497174D01*
X4127603Y7497526D01*
X4131481Y7497879D01*
X4134302Y7498231D01*
X4136064D01*
X4136417D01*
X4141000D01*
X4144526Y7497526D01*
X4147699Y7497174D01*
X4149814Y7496469D01*
X4151224Y7495764D01*
X4152282Y7495411D01*
X4152987Y7494706D01*
X4154750Y7491885D01*
X4155807Y7488712D01*
X4156160Y7487302D01*
Y7485187D01*
X4155807Y7483424D01*
X4155102Y7481661D01*
X4153339Y7478841D01*
X4151224Y7476726D01*
X4150519Y7476373D01*
X4150166Y7476021D01*
X4148051Y7474610D01*
X4146288Y7473553D01*
X4142763Y7472495D01*
X4141353Y7472143D01*
X4140295Y7471790D01*
X4139942D01*
X4139590D01*
X4127603D01*
X4116674Y7471085D01*
X4111738Y7470732D01*
X4107155Y7470380D01*
X4102924Y7470027D01*
X4098694Y7469675D01*
X4095168Y7469322D01*
X4092348Y7468970D01*
X4089528Y7468617D01*
X4087412Y7468264D01*
X4085649Y7467912D01*
X4084239D01*
X4083534Y7467559D01*
X4083182D01*
X4077188Y7466502D01*
X4071900Y7465797D01*
X4068022Y7465091D01*
X4064849Y7464739D01*
X4062734D01*
X4061323Y7464386D01*
X4060618D01*
X4060266D01*
X4057798Y7464739D01*
X4055330Y7465091D01*
X4051804Y7466854D01*
X4048984Y7469675D01*
X4047221Y7472495D01*
X4046164Y7475316D01*
X4045811Y7478136D01*
X4045459Y7479899D01*
Y7480604D01*
X4045811Y7482367D01*
X4046869Y7484129D01*
X4047574Y7485187D01*
X4047926Y7485540D01*
X4050042Y7487302D01*
X4052510Y7488360D01*
X4053920Y7489065D01*
X4054625D01*
X4060266Y7491533D01*
X4066964Y7494706D01*
X4074015Y7498584D01*
X4081066Y7502462D01*
X4087060Y7506340D01*
X4089880Y7507750D01*
X4092348Y7509513D01*
X4094111Y7510571D01*
X4095521Y7511628D01*
X4096579Y7511981D01*
X4096931Y7512333D01*
X4101867Y7515859D01*
X4106450Y7519032D01*
X4110328Y7521852D01*
X4113501Y7524673D01*
X4116321Y7527141D01*
X4118437Y7529256D01*
X4120552Y7531019D01*
X4121962Y7532781D01*
X4124078Y7535602D01*
X4125135Y7537717D01*
X4125488Y7538775D01*
Y7539127D01*
X4125135Y7540538D01*
X4124430Y7541948D01*
X4123020Y7543005D01*
X4121257Y7544063D01*
X4116674Y7546178D01*
X4111738Y7547589D01*
X4106803Y7548646D01*
X4102219Y7549351D01*
X4100457D01*
X4099046Y7549704D01*
X4098341D01*
X4097989D01*
X4093406Y7550057D01*
X4088822Y7550762D01*
X4084944Y7551114D01*
X4081066Y7551819D01*
X4077893Y7552524D01*
X4075073Y7552877D01*
X4070137Y7554287D01*
X4066612Y7555345D01*
X4063791Y7556402D01*
X4062381Y7556755D01*
X4062028Y7557108D01*
X4058503Y7559223D01*
X4056035Y7562043D01*
X4053920Y7564864D01*
X4052862Y7568037D01*
X4052157Y7570505D01*
X4051804Y7572620D01*
X4051452Y7574030D01*
Y7574735D01*
X4051804Y7578613D01*
X4052510Y7582139D01*
X4053215Y7584959D01*
X4054625Y7587427D01*
X4055683Y7589542D01*
X4056388Y7590953D01*
X4057093Y7592010D01*
X4057445Y7592363D01*
X4059913Y7594831D01*
X4062028Y7596593D01*
X4063791Y7598004D01*
X4065554Y7598709D01*
X4066964Y7599414D01*
X4068022Y7599766D01*
X4068727D01*
X4069079D01*
X4071195Y7599414D01*
D02*
G37*
G36*
X4190357Y7446406D02*
X4194235Y7445349D01*
X4195646Y7444643D01*
X4196703Y7444291D01*
X4197056Y7443586D01*
X4197408D01*
X4199171Y7442176D01*
X4200581Y7440765D01*
X4201286Y7439355D01*
X4201992Y7437945D01*
X4202344Y7436535D01*
X4202697Y7435477D01*
Y7434419D01*
X4202344Y7432304D01*
X4201286Y7429836D01*
X4199876Y7427721D01*
X4199524Y7427368D01*
Y7427016D01*
X4197408Y7424195D01*
X4195293Y7422080D01*
X4193883Y7420670D01*
X4193530Y7420317D01*
X4192120Y7419612D01*
X4190357Y7419260D01*
X4187890Y7418555D01*
X4185422Y7418202D01*
X4183306Y7417850D01*
X4181191D01*
X4179781Y7417497D01*
X4179428D01*
X4173435Y7416792D01*
X4170262Y7416087D01*
X4167794Y7415734D01*
X4165326Y7415382D01*
X4163563Y7415029D01*
X4162506Y7414677D01*
X4162153D01*
X4120552Y7408683D01*
X4113854Y7407978D01*
X4107860Y7407273D01*
X4102219Y7406568D01*
X4097284Y7406215D01*
X4092700Y7405510D01*
X4088822Y7405158D01*
X4085649Y7404805D01*
X4082476D01*
X4080009Y7404453D01*
X4078246D01*
X4076483Y7404100D01*
X4075073D01*
X4073310D01*
X4072958D01*
X4067317D01*
X4062381Y7404453D01*
X4058503Y7405158D01*
X4055330Y7405863D01*
X4052862Y7406215D01*
X4051452Y7406920D01*
X4050394Y7407273D01*
X4050042D01*
X4047926Y7408683D01*
X4046516Y7410446D01*
X4045106Y7411856D01*
X4044401Y7413619D01*
X4044048Y7415382D01*
X4043696Y7416792D01*
Y7417850D01*
X4044048Y7419965D01*
X4044401Y7421728D01*
X4045811Y7425253D01*
X4046516Y7426311D01*
X4047221Y7427368D01*
X4047926Y7428074D01*
Y7428426D01*
X4050042Y7430189D01*
X4052157Y7431247D01*
X4054625Y7431952D01*
X4056740Y7432304D01*
X4058855Y7432657D01*
X4060618Y7432304D01*
X4062028D01*
X4062381D01*
X4072605Y7431599D01*
X4077188Y7431247D01*
X4081419D01*
X4084944Y7430894D01*
X4087765D01*
X4089528D01*
X4090233D01*
X4094111D01*
X4098694Y7431247D01*
X4103630Y7431952D01*
X4108918Y7432657D01*
X4113854Y7433009D01*
X4117732Y7433714D01*
X4119142D01*
X4120200Y7434067D01*
X4120905D01*
X4121257D01*
X4125840Y7434772D01*
X4129366Y7435477D01*
X4132186Y7435830D01*
X4133949D01*
X4135712Y7436182D01*
X4136417D01*
X4137122D01*
X4142058Y7436887D01*
X4146993Y7437945D01*
X4149461Y7438650D01*
X4151224Y7439003D01*
X4152282Y7439355D01*
X4152634D01*
X4185422Y7447111D01*
X4190357Y7446406D01*
D02*
G37*
G36*
X3880182Y7555697D02*
X3882298Y7554640D01*
X3883708Y7553582D01*
X3884413Y7552877D01*
X3885823Y7551467D01*
X3886528Y7550409D01*
X3887938Y7547941D01*
X3888291Y7546531D01*
Y7545826D01*
X3887938Y7542300D01*
X3887233Y7539127D01*
X3886528Y7537012D01*
X3886176Y7536660D01*
Y7536307D01*
X3885118Y7533134D01*
X3884413Y7530314D01*
X3884060Y7528551D01*
Y7526083D01*
X3884413Y7523968D01*
X3884765Y7518679D01*
X3885118Y7516212D01*
Y7514449D01*
X3885471Y7513039D01*
Y7512333D01*
X3886176Y7508103D01*
X3886528Y7504577D01*
X3886881Y7501757D01*
Y7499289D01*
X3887233Y7497526D01*
Y7485892D01*
X3886528Y7477783D01*
X3886176Y7471085D01*
X3885471Y7465797D01*
X3884765Y7461213D01*
X3884413Y7458393D01*
X3883708Y7456630D01*
Y7455925D01*
X3890054Y7467559D01*
X3896400Y7478136D01*
X3899925Y7483072D01*
X3903098Y7487302D01*
X3906271Y7491533D01*
X3909091Y7495058D01*
X3911912Y7498584D01*
X3914732Y7501404D01*
X3916848Y7503872D01*
X3918963Y7505988D01*
X3920726Y7507750D01*
X3921783Y7508808D01*
X3922488Y7509513D01*
X3922841Y7509866D01*
X3927072Y7513744D01*
X3931302Y7516917D01*
X3935533Y7519737D01*
X3939411Y7522205D01*
X3942936Y7524320D01*
X3946462Y7525730D01*
X3952808Y7528551D01*
X3957744Y7529961D01*
X3959859Y7530314D01*
X3961622Y7530666D01*
X3963032Y7531019D01*
X3964090D01*
X3964442D01*
X3964795D01*
X3969730Y7530314D01*
X3974666Y7528903D01*
X3978897Y7526788D01*
X3982775Y7524320D01*
X3986300Y7521852D01*
X3988768Y7519737D01*
X3990178Y7518327D01*
X3990884Y7517622D01*
X3995114Y7512686D01*
X3998287Y7507750D01*
X4000402Y7503167D01*
X4002165Y7498936D01*
X4002870Y7495411D01*
X4003223Y7492591D01*
X4003575Y7490828D01*
Y7490123D01*
X4003223Y7484482D01*
X4002870Y7479194D01*
X4002165Y7474610D01*
X4001460Y7470732D01*
X4000402Y7467912D01*
X3999697Y7465444D01*
X3999345Y7464034D01*
X3998992Y7463681D01*
X3997229Y7459803D01*
X3994409Y7455220D01*
X3991941Y7450637D01*
X3989121Y7446054D01*
X3986300Y7442176D01*
X3984185Y7438650D01*
X3982775Y7436535D01*
X3982070Y7436182D01*
Y7435830D01*
X3980307Y7433362D01*
X3978897Y7431247D01*
X3978192Y7429836D01*
X3977839Y7429484D01*
X3976076Y7426663D01*
X3973961Y7424901D01*
X3972551Y7423490D01*
X3970788Y7422433D01*
X3969730Y7421728D01*
X3968673Y7421375D01*
X3968320D01*
X3967968D01*
X3964795Y7421728D01*
X3961622Y7423138D01*
X3959506Y7424195D01*
X3958801Y7424548D01*
X3958449D01*
X3956686Y7425606D01*
X3955628Y7427016D01*
X3954218Y7429131D01*
X3953513Y7430894D01*
Y7431599D01*
X3953866Y7435477D01*
X3954218Y7438650D01*
X3955276Y7441118D01*
X3956333Y7443233D01*
X3957039Y7444996D01*
X3958096Y7446054D01*
X3958449Y7446759D01*
X3958801Y7447111D01*
X3961974Y7449932D01*
X3964795Y7453105D01*
X3967263Y7456278D01*
X3969730Y7459098D01*
X3971493Y7461919D01*
X3972903Y7464034D01*
X3973609Y7465444D01*
X3973961Y7465797D01*
X3976429Y7469675D01*
X3978192Y7473200D01*
X3979249Y7476021D01*
X3980307Y7478136D01*
X3980660Y7479546D01*
X3981012Y7480956D01*
Y7481661D01*
X3980660Y7484834D01*
X3980307Y7488007D01*
X3979249Y7490475D01*
X3978192Y7492591D01*
X3977134Y7494353D01*
X3976429Y7495764D01*
X3975724Y7496469D01*
X3975371Y7496821D01*
X3973256Y7498936D01*
X3970788Y7500347D01*
X3968673Y7501757D01*
X3966557Y7502462D01*
X3964795Y7502815D01*
X3963385Y7503167D01*
X3962327D01*
X3961974D01*
X3959154Y7502815D01*
X3955981Y7501757D01*
X3952808Y7500347D01*
X3949635Y7498936D01*
X3946462Y7497174D01*
X3944347Y7495764D01*
X3942936Y7494706D01*
X3942231Y7494353D01*
X3937648Y7490828D01*
X3933418Y7487302D01*
X3929187Y7483777D01*
X3925661Y7480251D01*
X3922841Y7477078D01*
X3920726Y7474610D01*
X3918963Y7472848D01*
X3918610Y7472143D01*
X3914380Y7466854D01*
X3910149Y7460508D01*
X3905919Y7454162D01*
X3902040Y7448169D01*
X3898515Y7442881D01*
X3897105Y7440413D01*
X3896047Y7438298D01*
X3894989Y7436887D01*
X3894284Y7435477D01*
X3893579Y7434772D01*
Y7434419D01*
X3889701Y7428074D01*
X3886176Y7422785D01*
X3883003Y7418555D01*
X3880182Y7415382D01*
X3878067Y7412914D01*
X3876304Y7411504D01*
X3875247Y7410446D01*
X3874894Y7410093D01*
X3872074Y7407978D01*
X3868901Y7406568D01*
X3866080Y7405510D01*
X3863612Y7404805D01*
X3861497Y7404453D01*
X3859734Y7404100D01*
X3858677D01*
X3858324D01*
X3854798Y7404453D01*
X3852331Y7405863D01*
X3850568Y7407978D01*
X3849510Y7410093D01*
X3848805Y7412209D01*
X3848100Y7414324D01*
Y7416087D01*
X3848453Y7418907D01*
X3849158Y7421375D01*
X3849863Y7423490D01*
X3850920Y7425253D01*
X3851978Y7426663D01*
X3853036Y7427721D01*
X3853388Y7428074D01*
X3853741Y7428426D01*
X3856561Y7431599D01*
X3858677Y7434419D01*
X3860087Y7436535D01*
X3860439Y7436887D01*
Y7437240D01*
X3861144Y7439355D01*
X3861850Y7441471D01*
X3863260Y7446054D01*
X3863612Y7448169D01*
X3863965Y7449932D01*
X3864317Y7451342D01*
Y7451695D01*
X3865728Y7459451D01*
X3866080Y7462976D01*
Y7466502D01*
X3866433Y7469322D01*
Y7473553D01*
X3866080Y7482367D01*
X3865728Y7490123D01*
X3865022Y7497174D01*
X3864317Y7502815D01*
X3863260Y7507398D01*
X3862555Y7510571D01*
X3862202Y7512686D01*
X3861850Y7513391D01*
X3861497Y7515154D01*
X3861144Y7517622D01*
X3860792Y7522910D01*
Y7528903D01*
X3861144Y7532076D01*
X3861497Y7535602D01*
X3862202Y7538422D01*
X3862907Y7541243D01*
X3863612Y7543358D01*
X3864317Y7545473D01*
X3865022Y7546531D01*
Y7546884D01*
X3866785Y7550057D01*
X3868901Y7552524D01*
X3871016Y7553935D01*
X3873131Y7555345D01*
X3874894Y7556050D01*
X3876657Y7556402D01*
X3877714D01*
X3878067D01*
X3880182Y7555697D01*
D02*
G37*
G36*
X4124556Y7207409D02*
X4131609Y7206469D01*
X4138661Y7205058D01*
X4145243Y7203648D01*
X4150885Y7202237D01*
X4161699Y7198006D01*
X4170631Y7193304D01*
X4178154Y7188133D01*
X4184266Y7182491D01*
X4188967Y7176849D01*
X4193199Y7171207D01*
X4196020Y7165565D01*
X4197900Y7160394D01*
X4199311Y7155692D01*
X4200251Y7151461D01*
X4200721Y7148640D01*
Y7145819D01*
X4200251Y7139707D01*
X4199781Y7134535D01*
X4198371Y7128893D01*
X4196020Y7124192D01*
X4191318Y7115729D01*
X4184266Y7108207D01*
X4176743Y7101624D01*
X4167811Y7096453D01*
X4158407Y7092221D01*
X4148534Y7088460D01*
X4138661Y7086109D01*
X4129258Y7083759D01*
X4120795Y7082348D01*
X4112803Y7081408D01*
X4106220Y7080938D01*
X4101049Y7080467D01*
X4099168D01*
X4097758D01*
X4096817D01*
X4096347D01*
X3953420D01*
X3942607D01*
X3933204Y7080938D01*
X3924271Y7081878D01*
X3916278Y7082348D01*
X3908756Y7083288D01*
X3902644Y7084699D01*
X3897002Y7085639D01*
X3891830Y7087050D01*
X3887599Y7087990D01*
X3884308Y7088930D01*
X3881017Y7090341D01*
X3878666Y7091281D01*
X3877255Y7092221D01*
X3875845Y7092691D01*
X3875375Y7093162D01*
X3874905D01*
X3871614Y7095983D01*
X3868322Y7099274D01*
X3863621Y7106796D01*
X3860330Y7115729D01*
X3857979Y7124662D01*
X3856569Y7132655D01*
X3856098Y7136416D01*
Y7139237D01*
X3855628Y7142058D01*
Y7145819D01*
X3856098Y7151461D01*
X3856569Y7156632D01*
X3857979Y7161804D01*
X3859860Y7166506D01*
X3864561Y7174498D01*
X3871143Y7181551D01*
X3878196Y7187663D01*
X3886658Y7192834D01*
X3895591Y7197066D01*
X3904524Y7200357D01*
X3913457Y7202707D01*
X3922390Y7204588D01*
X3930853Y7205999D01*
X3938375Y7206939D01*
X3944487Y7207409D01*
X3949189Y7207879D01*
X3951070D01*
X3952480D01*
X3952950D01*
X3953420D01*
X4108101D01*
X4116564D01*
X4124556Y7207409D01*
D02*
G37*
G36*
X4123146Y7029691D02*
X4130668Y7028750D01*
X4137721Y7027340D01*
X4144303Y7026400D01*
X4150415Y7024519D01*
X4161228Y7020758D01*
X4170161Y7016056D01*
X4177684Y7010885D01*
X4183796Y7005243D01*
X4188967Y6999601D01*
X4192729Y6993959D01*
X4195550Y6988317D01*
X4197900Y6983146D01*
X4199311Y6978444D01*
X4200251Y6974683D01*
X4200721Y6971862D01*
Y6969041D01*
X4200251Y6963399D01*
X4199781Y6958227D01*
X4196960Y6948824D01*
X4192729Y6940832D01*
X4187087Y6933779D01*
X4180035Y6928138D01*
X4172982Y6923436D01*
X4164990Y6919205D01*
X4156527Y6915914D01*
X4148064Y6913563D01*
X4140542Y6911682D01*
X4133019Y6910272D01*
X4125967Y6909331D01*
X4120325Y6908861D01*
X4116094Y6908391D01*
X4113273D01*
X4112803D01*
X4112332D01*
X4104340D01*
X4095407Y6908861D01*
X4086474D01*
X4078481Y6909331D01*
X4070959Y6909802D01*
X4067668D01*
X4064847D01*
X4062966Y6910272D01*
X4061086D01*
X4060145D01*
X4059675D01*
Y6952115D01*
X4064377Y6951645D01*
X4068608Y6951175D01*
X4072369Y6950705D01*
X4075190D01*
X4077541Y6950235D01*
X4079422D01*
X4080362D01*
X4080832D01*
X4085534D01*
X4090235Y6950705D01*
X4093526Y6951645D01*
X4096817Y6952586D01*
X4099638Y6953996D01*
X4101989Y6955406D01*
X4105280Y6958227D01*
X4107161Y6961048D01*
X4108101Y6963869D01*
X4108571Y6965750D01*
Y6966220D01*
X4108101Y6969041D01*
X4107631Y6971392D01*
X4104340Y6975153D01*
X4100579Y6977974D01*
X4095877Y6979854D01*
X4090705Y6980795D01*
X4086944Y6981735D01*
X4083653D01*
X4083183D01*
X4082713D01*
X4078481Y6981265D01*
X4074250Y6980325D01*
X4069548Y6978444D01*
X4065317Y6976563D01*
X4056384Y6971392D01*
X4047921Y6965280D01*
X4040399Y6958698D01*
X4037578Y6955877D01*
X4034757Y6953526D01*
X4032406Y6951645D01*
X4030996Y6949765D01*
X4030055Y6948824D01*
X4029585Y6948354D01*
X4020652Y6939891D01*
X4011249Y6932839D01*
X4000906Y6926257D01*
X3990092Y6921085D01*
X3979279Y6916384D01*
X3967995Y6912622D01*
X3957182Y6909331D01*
X3946368Y6906981D01*
X3936495Y6904630D01*
X3927092Y6903219D01*
X3918629Y6902279D01*
X3911106Y6901809D01*
X3904994Y6901339D01*
X3900293Y6900869D01*
X3898882D01*
X3897472D01*
X3897002D01*
X3896532D01*
X3860800D01*
Y7027340D01*
X3988212D01*
Y6985496D01*
X3947308D01*
Y6946944D01*
X3953890Y6947884D01*
X3960002Y6949765D01*
X3965644Y6952115D01*
X3971286Y6954936D01*
X3982100Y6961518D01*
X3991033Y6969041D01*
X3999025Y6976093D01*
X4001846Y6979384D01*
X4004667Y6982205D01*
X4006548Y6985026D01*
X4007958Y6986907D01*
X4008899Y6987847D01*
X4009369Y6988317D01*
X4015481Y6995840D01*
X4022063Y7001952D01*
X4029585Y7007594D01*
X4037108Y7012295D01*
X4045100Y7016526D01*
X4053563Y7019818D01*
X4061556Y7022638D01*
X4069548Y7024989D01*
X4077071Y7026870D01*
X4083653Y7027810D01*
X4090235Y7028750D01*
X4095877Y7029691D01*
X4100108D01*
X4103870Y7030161D01*
X4105750D01*
X4106691D01*
X4115153D01*
X4123146Y7029691D01*
D02*
G37*
G36*
X3927562Y6811539D02*
X3860800D01*
Y6858555D01*
X3927562D01*
Y6811539D01*
D02*
G37*
G36*
X3968935Y6765934D02*
X3979279Y6764994D01*
X3988682Y6763584D01*
X3997145Y6761703D01*
X4004667Y6759352D01*
X4010779Y6756531D01*
X4016421Y6754181D01*
X4021593Y6751360D01*
X4025354Y6748069D01*
X4029115Y6745718D01*
X4031466Y6742897D01*
X4033817Y6740546D01*
X4035227Y6738665D01*
X4036167Y6737255D01*
X4037108Y6736315D01*
Y6735845D01*
X4039459Y6731143D01*
X4042750Y6736785D01*
X4046981Y6741486D01*
X4052153Y6746188D01*
X4057795Y6749479D01*
X4064377Y6752770D01*
X4071429Y6755121D01*
X4085534Y6759352D01*
X4092586Y6760293D01*
X4099168Y6761233D01*
X4105280Y6762173D01*
X4110452Y6762643D01*
X4114683Y6763113D01*
X4118444D01*
X4120325D01*
X4121265D01*
X4135370Y6762643D01*
X4147594Y6760763D01*
X4157937Y6757472D01*
X4167340Y6754181D01*
X4174863Y6749479D01*
X4181445Y6744307D01*
X4186617Y6739136D01*
X4190848Y6733964D01*
X4194139Y6728322D01*
X4196490Y6723150D01*
X4198371Y6717979D01*
X4199311Y6713747D01*
X4200251Y6709986D01*
X4200721Y6706695D01*
Y6699173D01*
X4199781Y6694001D01*
X4196960Y6685068D01*
X4192729Y6677075D01*
X4187557Y6670493D01*
X4180975Y6664851D01*
X4173452Y6660150D01*
X4165930Y6655918D01*
X4157937Y6653097D01*
X4149945Y6650277D01*
X4142422Y6648866D01*
X4134900Y6647456D01*
X4128318Y6646515D01*
X4123146Y6646045D01*
X4118915Y6645575D01*
X4116094D01*
X4115623D01*
X4115153D01*
X4104340Y6646045D01*
X4094467Y6646985D01*
X4085534Y6648396D01*
X4077541Y6650747D01*
X4070959Y6653097D01*
X4064377Y6655918D01*
X4059205Y6658739D01*
X4054503Y6661560D01*
X4050742Y6664381D01*
X4047451Y6667672D01*
X4044630Y6670023D01*
X4042750Y6672374D01*
X4041339Y6674725D01*
X4040399Y6676135D01*
X4039459Y6677075D01*
Y6677545D01*
X4036167Y6671433D01*
X4031466Y6665792D01*
X4025824Y6661090D01*
X4019712Y6656859D01*
X4012660Y6653568D01*
X4005607Y6650747D01*
X3998085Y6648396D01*
X3991033Y6646515D01*
X3983510Y6644635D01*
X3976928Y6643694D01*
X3970816Y6642754D01*
X3965174Y6642284D01*
X3960473D01*
X3956711Y6641814D01*
X3954831D01*
X3953890D01*
X3944958D01*
X3936495Y6642284D01*
X3928972Y6643224D01*
X3921450Y6644635D01*
X3914868Y6645575D01*
X3908286Y6647456D01*
X3897002Y6651217D01*
X3887599Y6655918D01*
X3879606Y6661090D01*
X3873024Y6666732D01*
X3867852Y6672374D01*
X3864091Y6678016D01*
X3860800Y6683187D01*
X3858449Y6688359D01*
X3857039Y6693061D01*
X3856098Y6696822D01*
X3855628Y6699643D01*
Y6702464D01*
X3856098Y6708105D01*
X3856569Y6713747D01*
X3857979Y6718919D01*
X3859860Y6723621D01*
X3865031Y6732083D01*
X3871614Y6739606D01*
X3879136Y6745718D01*
X3887599Y6750889D01*
X3897002Y6755121D01*
X3906405Y6758412D01*
X3915808Y6761233D01*
X3925211Y6763113D01*
X3933674Y6764524D01*
X3941196Y6765464D01*
X3947778Y6765934D01*
X3952950Y6766405D01*
X3954831D01*
X3956241D01*
X3956711D01*
X3957182D01*
X3968935Y6765934D01*
D02*
G37*
G36*
X4124556Y6588216D02*
X4131609Y6587276D01*
X4138661Y6585865D01*
X4145243Y6584455D01*
X4150885Y6583044D01*
X4161699Y6578813D01*
X4170631Y6574112D01*
X4178154Y6568940D01*
X4184266Y6563298D01*
X4188967Y6557656D01*
X4193199Y6552014D01*
X4196020Y6546372D01*
X4197900Y6541201D01*
X4199311Y6536499D01*
X4200251Y6532268D01*
X4200721Y6529447D01*
Y6526626D01*
X4200251Y6520514D01*
X4199781Y6515342D01*
X4198371Y6509700D01*
X4196020Y6504999D01*
X4191318Y6496536D01*
X4184266Y6489014D01*
X4176743Y6482432D01*
X4167811Y6477260D01*
X4158407Y6473028D01*
X4148534Y6469267D01*
X4138661Y6466916D01*
X4129258Y6464566D01*
X4120795Y6463155D01*
X4112803Y6462215D01*
X4106220Y6461745D01*
X4101049Y6461275D01*
X4099168D01*
X4097758D01*
X4096817D01*
X4096347D01*
X3953420D01*
X3942607D01*
X3933204Y6461745D01*
X3924271Y6462685D01*
X3916278Y6463155D01*
X3908756Y6464096D01*
X3902644Y6465506D01*
X3897002Y6466446D01*
X3891830Y6467857D01*
X3887599Y6468797D01*
X3884308Y6469737D01*
X3881017Y6471148D01*
X3878666Y6472088D01*
X3877255Y6473028D01*
X3875845Y6473499D01*
X3875375Y6473969D01*
X3874905D01*
X3871614Y6476790D01*
X3868322Y6480081D01*
X3863621Y6487603D01*
X3860330Y6496536D01*
X3857979Y6505469D01*
X3856569Y6513462D01*
X3856098Y6517223D01*
Y6520044D01*
X3855628Y6522865D01*
Y6526626D01*
X3856098Y6532268D01*
X3856569Y6537440D01*
X3857979Y6542611D01*
X3859860Y6547313D01*
X3864561Y6555305D01*
X3871143Y6562358D01*
X3878196Y6568470D01*
X3886658Y6573641D01*
X3895591Y6577873D01*
X3904524Y6581164D01*
X3913457Y6583515D01*
X3922390Y6585395D01*
X3930853Y6586806D01*
X3938375Y6587746D01*
X3944487Y6588216D01*
X3949189Y6588686D01*
X3951070D01*
X3952480D01*
X3952950D01*
X3953420D01*
X4108101D01*
X4116564D01*
X4124556Y6588216D01*
D02*
G37*
G36*
X3927562Y6370535D02*
X3860800D01*
Y6417550D01*
X3927562D01*
Y6370535D01*
D02*
G37*
G36*
X4124556Y6326340D02*
X4131609Y6325400D01*
X4138661Y6323990D01*
X4145243Y6322579D01*
X4150885Y6321169D01*
X4161699Y6316937D01*
X4170631Y6312236D01*
X4178154Y6307064D01*
X4184266Y6301422D01*
X4188967Y6295780D01*
X4193199Y6290139D01*
X4196020Y6284497D01*
X4197900Y6279325D01*
X4199311Y6274623D01*
X4200251Y6270392D01*
X4200721Y6267571D01*
Y6264750D01*
X4200251Y6258638D01*
X4199781Y6253467D01*
X4198371Y6247825D01*
X4196020Y6243123D01*
X4191318Y6234660D01*
X4184266Y6227138D01*
X4176743Y6220556D01*
X4167811Y6215384D01*
X4158407Y6211153D01*
X4148534Y6207391D01*
X4138661Y6205041D01*
X4129258Y6202690D01*
X4120795Y6201279D01*
X4112803Y6200339D01*
X4106220Y6199869D01*
X4101049Y6199399D01*
X4099168D01*
X4097758D01*
X4096817D01*
X4096347D01*
X3953420D01*
X3942607D01*
X3933204Y6199869D01*
X3924271Y6200809D01*
X3916278Y6201279D01*
X3908756Y6202220D01*
X3902644Y6203630D01*
X3897002Y6204571D01*
X3891830Y6205981D01*
X3887599Y6206921D01*
X3884308Y6207862D01*
X3881017Y6209272D01*
X3878666Y6210212D01*
X3877255Y6211153D01*
X3875845Y6211623D01*
X3875375Y6212093D01*
X3874905D01*
X3871614Y6214914D01*
X3868322Y6218205D01*
X3863621Y6225727D01*
X3860330Y6234660D01*
X3857979Y6243593D01*
X3856569Y6251586D01*
X3856098Y6255347D01*
Y6258168D01*
X3855628Y6260989D01*
Y6264750D01*
X3856098Y6270392D01*
X3856569Y6275564D01*
X3857979Y6280735D01*
X3859860Y6285437D01*
X3864561Y6293430D01*
X3871143Y6300482D01*
X3878196Y6306594D01*
X3886658Y6311766D01*
X3895591Y6315997D01*
X3904524Y6319288D01*
X3913457Y6321639D01*
X3922390Y6323519D01*
X3930853Y6324930D01*
X3938375Y6325870D01*
X3944487Y6326340D01*
X3949189Y6326811D01*
X3951070D01*
X3952480D01*
X3952950D01*
X3953420D01*
X4108101D01*
X4116564D01*
X4124556Y6326340D01*
D02*
G37*
G36*
X4123146Y6148622D02*
X4130668Y6147682D01*
X4137721Y6146271D01*
X4144303Y6145331D01*
X4150415Y6143451D01*
X4161228Y6139689D01*
X4170161Y6134988D01*
X4177684Y6129816D01*
X4183796Y6124174D01*
X4188967Y6118532D01*
X4192729Y6112890D01*
X4195550Y6107249D01*
X4197900Y6102077D01*
X4199311Y6097375D01*
X4200251Y6093614D01*
X4200721Y6090793D01*
Y6087972D01*
X4200251Y6082330D01*
X4199781Y6077159D01*
X4196960Y6067756D01*
X4192729Y6059763D01*
X4187087Y6052711D01*
X4180035Y6047069D01*
X4172982Y6042367D01*
X4164990Y6038136D01*
X4156527Y6034845D01*
X4148064Y6032494D01*
X4140542Y6030614D01*
X4133019Y6029203D01*
X4125967Y6028263D01*
X4120325Y6027793D01*
X4116094Y6027322D01*
X4113273D01*
X4112803D01*
X4112332D01*
X4104340D01*
X4095407Y6027793D01*
X4086474D01*
X4078481Y6028263D01*
X4070959Y6028733D01*
X4067668D01*
X4064847D01*
X4062966Y6029203D01*
X4061086D01*
X4060145D01*
X4059675D01*
Y6071047D01*
X4064377Y6070577D01*
X4068608Y6070106D01*
X4072369Y6069636D01*
X4075190D01*
X4077541Y6069166D01*
X4079422D01*
X4080362D01*
X4080832D01*
X4085534D01*
X4090235Y6069636D01*
X4093526Y6070577D01*
X4096817Y6071517D01*
X4099638Y6072927D01*
X4101989Y6074338D01*
X4105280Y6077159D01*
X4107161Y6079980D01*
X4108101Y6082801D01*
X4108571Y6084681D01*
Y6085151D01*
X4108101Y6087972D01*
X4107631Y6090323D01*
X4104340Y6094084D01*
X4100579Y6096905D01*
X4095877Y6098786D01*
X4090705Y6099726D01*
X4086944Y6100666D01*
X4083653D01*
X4083183D01*
X4082713D01*
X4078481Y6100196D01*
X4074250Y6099256D01*
X4069548Y6097375D01*
X4065317Y6095495D01*
X4056384Y6090323D01*
X4047921Y6084211D01*
X4040399Y6077629D01*
X4037578Y6074808D01*
X4034757Y6072457D01*
X4032406Y6070577D01*
X4030996Y6068696D01*
X4030055Y6067756D01*
X4029585Y6067286D01*
X4020652Y6058823D01*
X4011249Y6051770D01*
X4000906Y6045188D01*
X3990092Y6040017D01*
X3979279Y6035315D01*
X3967995Y6031554D01*
X3957182Y6028263D01*
X3946368Y6025912D01*
X3936495Y6023561D01*
X3927092Y6022151D01*
X3918629Y6021210D01*
X3911106Y6020740D01*
X3904994Y6020270D01*
X3900293Y6019800D01*
X3898882D01*
X3897472D01*
X3897002D01*
X3896532D01*
X3860800D01*
Y6146271D01*
X3988212D01*
Y6104428D01*
X3947308D01*
Y6065875D01*
X3953890Y6066815D01*
X3960002Y6068696D01*
X3965644Y6071047D01*
X3971286Y6073868D01*
X3982100Y6080450D01*
X3991033Y6087972D01*
X3999025Y6095025D01*
X4001846Y6098316D01*
X4004667Y6101137D01*
X4006548Y6103958D01*
X4007958Y6105838D01*
X4008899Y6106778D01*
X4009369Y6107249D01*
X4015481Y6114771D01*
X4022063Y6120883D01*
X4029585Y6126525D01*
X4037108Y6131226D01*
X4045100Y6135458D01*
X4053563Y6138749D01*
X4061556Y6141570D01*
X4069548Y6143921D01*
X4077071Y6145801D01*
X4083653Y6146742D01*
X4090235Y6147682D01*
X4095877Y6148622D01*
X4100108D01*
X4103870Y6149092D01*
X4105750D01*
X4106691D01*
X4115153D01*
X4123146Y6148622D01*
D02*
G37*
G36*
X3981669Y10490824D02*
X3985196Y10489061D01*
X3987547Y10487298D01*
X3988723Y10486122D01*
X3991661Y10480832D01*
X3993425Y10475543D01*
X3994012Y10473192D01*
Y10464375D01*
X3993425Y10460261D01*
X3992837Y10456147D01*
X3992249Y10453208D01*
X3991661Y10450269D01*
X3991074Y10448506D01*
X3990486Y10447918D01*
Y10447330D01*
X3989310Y10444979D01*
X3988135Y10442628D01*
X3985196Y10440277D01*
X3983433Y10439102D01*
X3982257Y10438514D01*
X3977555Y10437926D01*
X3972853D01*
X3970502D01*
X3968739D01*
X3967563D01*
X3966976D01*
X3960510D01*
X3955808Y10438514D01*
X3951694Y10439690D01*
X3948755Y10440277D01*
X3946992Y10441453D01*
X3945816Y10442041D01*
X3944641Y10442628D01*
X3942290Y10447330D01*
X3941114Y10452620D01*
X3940527Y10454971D01*
Y10458498D01*
X3941114Y10460849D01*
X3941702Y10463788D01*
X3944641Y10469077D01*
X3945816Y10471428D01*
X3946992Y10473192D01*
X3947580Y10474367D01*
X3948167Y10474955D01*
X3951106Y10478481D01*
X3954045Y10481420D01*
X3955808Y10483771D01*
X3958159Y10485535D01*
X3960510Y10487886D01*
X3961686Y10488473D01*
X3966388Y10490824D01*
X3971678Y10491412D01*
X3974029Y10492000D01*
X3975792D01*
X3976967D01*
X3977555D01*
X3981669Y10490824D01*
D02*
G37*
G36*
X4102747Y10409126D02*
X4110976Y10408538D01*
X4125082Y10405012D01*
X4138013Y10399722D01*
X4148592Y10394432D01*
X4156821Y10388555D01*
X4160347Y10385616D01*
X4162698Y10383265D01*
X4165049Y10381502D01*
X4166813Y10379738D01*
X4167400Y10379151D01*
X4167988Y10378563D01*
X4172690Y10372685D01*
X4177392Y10366220D01*
X4184445Y10353289D01*
X4189147Y10339771D01*
X4192674Y10327428D01*
X4195025Y10315673D01*
X4195613Y10310971D01*
Y10306857D01*
X4196200Y10303330D01*
Y10292751D01*
X4195613Y10285697D01*
Y10279232D01*
X4195025Y10272767D01*
X4194437Y10267477D01*
Y10262775D01*
X4193849Y10259836D01*
Y10258661D01*
X4193262Y10248669D01*
X4192674Y10239265D01*
X4192086Y10231624D01*
Y10225746D01*
X4191498Y10220457D01*
Y10213991D01*
X4192674Y10189893D01*
X4192086Y10186954D01*
X4191498Y10183428D01*
X4188560Y10178138D01*
X4185621Y10174612D01*
X4185033Y10174024D01*
X4184445Y10173436D01*
X4181506Y10171085D01*
X4178568Y10169322D01*
X4173866Y10166971D01*
X4169751Y10165795D01*
X4169164D01*
X4168576D01*
X4164462Y10166383D01*
X4160935Y10168734D01*
X4157996Y10171673D01*
X4155645Y10175199D01*
X4153882Y10178726D01*
X4152706Y10181665D01*
X4151531Y10184016D01*
Y10184603D01*
X4150943Y10186367D01*
X4149768Y10186954D01*
X4148592Y10187542D01*
X4148004D01*
X4145066D01*
X4141539Y10186954D01*
X4134486Y10186367D01*
X4130959Y10185779D01*
X4128608Y10185191D01*
X4126845Y10184603D01*
X4126257D01*
X4101572Y10180489D01*
X4077474Y10177550D01*
X4066306Y10175787D01*
X4055727Y10174612D01*
X4045147Y10173436D01*
X4035743Y10172848D01*
X4027514Y10171673D01*
X4019874Y10171085D01*
X4012821Y10170497D01*
X4006943Y10169910D01*
X4002829D01*
X3999302Y10169322D01*
X3996951D01*
X3996363D01*
X3988723Y10168734D01*
X3982257Y10168146D01*
X3976967Y10167559D01*
X3972265Y10166971D01*
X3969327Y10166383D01*
X3966976D01*
X3965800Y10165795D01*
X3965212D01*
X3954633Y10162269D01*
X3949931Y10160505D01*
X3946992Y10159330D01*
X3944641Y10158742D01*
X3944053D01*
X3941702Y10159330D01*
X3939351Y10159918D01*
X3934649Y10162269D01*
X3931122Y10164620D01*
X3930535Y10165795D01*
X3929947D01*
X3927008Y10168734D01*
X3924657Y10171085D01*
X3923482Y10174024D01*
X3922306Y10176375D01*
X3921131Y10180489D01*
Y10181665D01*
X3921718Y10186367D01*
X3922306Y10190481D01*
X3925833Y10198122D01*
X3927008Y10201061D01*
X3928771Y10203412D01*
X3929359Y10205175D01*
X3929947Y10205763D01*
X3933473Y10212228D01*
X3936412Y10217518D01*
X3937588Y10221044D01*
X3938176Y10221632D01*
Y10222220D01*
X3939351Y10225746D01*
X3940527Y10229273D01*
X3942878Y10237501D01*
X3944053Y10241616D01*
X3944641Y10244555D01*
X3945229Y10246906D01*
Y10247493D01*
X3948167Y10259836D01*
X3951694Y10271591D01*
X3955808Y10283346D01*
X3959922Y10293926D01*
X3964625Y10303918D01*
X3969327Y10313322D01*
X3974029Y10322138D01*
X3978731Y10330367D01*
X3982845Y10337420D01*
X3987547Y10343885D01*
X3991074Y10349175D01*
X3994600Y10353877D01*
X3996951Y10357404D01*
X3999302Y10359755D01*
X4000478Y10361518D01*
X4001065Y10362106D01*
X4009294Y10370334D01*
X4016935Y10377975D01*
X4025163Y10384440D01*
X4033392Y10389730D01*
X4041033Y10394432D01*
X4049261Y10397959D01*
X4056314Y10401485D01*
X4063368Y10403836D01*
X4069833Y10405600D01*
X4075710Y10407363D01*
X4081000Y10408538D01*
X4085702Y10409126D01*
X4089229D01*
X4092168Y10409714D01*
X4093931D01*
X4094519D01*
X4102747Y10409126D01*
D02*
G37*
G36*
X3981669Y10111722D02*
X3985196Y10109958D01*
X3987547Y10108195D01*
X3988723Y10107020D01*
X3991661Y10101730D01*
X3993425Y10096440D01*
X3994012Y10094089D01*
Y10085273D01*
X3993425Y10081158D01*
X3992837Y10077044D01*
X3992249Y10074105D01*
X3991661Y10071167D01*
X3991074Y10069403D01*
X3990486Y10068816D01*
Y10068228D01*
X3989310Y10065877D01*
X3988135Y10063526D01*
X3985196Y10061175D01*
X3983433Y10059999D01*
X3982257Y10059411D01*
X3977555Y10058824D01*
X3972853D01*
X3970502D01*
X3968739D01*
X3967563D01*
X3966976D01*
X3960510D01*
X3955808Y10059411D01*
X3951694Y10060587D01*
X3948755Y10061175D01*
X3946992Y10062350D01*
X3945816Y10062938D01*
X3944641Y10063526D01*
X3942290Y10068228D01*
X3941114Y10073518D01*
X3940527Y10075869D01*
Y10079395D01*
X3941114Y10081746D01*
X3941702Y10084685D01*
X3944641Y10089975D01*
X3945816Y10092326D01*
X3946992Y10094089D01*
X3947580Y10095265D01*
X3948167Y10095852D01*
X3951106Y10099379D01*
X3954045Y10102318D01*
X3955808Y10104669D01*
X3958159Y10106432D01*
X3960510Y10108783D01*
X3961686Y10109371D01*
X3966388Y10111722D01*
X3971678Y10112309D01*
X3974029Y10112897D01*
X3975792D01*
X3976967D01*
X3977555D01*
X3981669Y10111722D01*
D02*
G37*
G36*
X4164462Y10031787D02*
X4169751Y10029436D01*
X4174453Y10027085D01*
X4178568Y10023558D01*
X4181506Y10020620D01*
X4184445Y10017681D01*
X4185621Y10015330D01*
X4186209Y10014742D01*
X4190323Y10007689D01*
X4193262Y10000048D01*
X4195613Y9992407D01*
X4196788Y9984766D01*
X4197964Y9977713D01*
X4198551Y9972424D01*
Y9967134D01*
X4197964Y9957730D01*
X4197376Y9948326D01*
X4193849Y9930693D01*
X4189735Y9915411D01*
X4186796Y9908358D01*
X4184445Y9901893D01*
X4181506Y9896015D01*
X4179155Y9891313D01*
X4176217Y9886611D01*
X4174453Y9883085D01*
X4172690Y9880146D01*
X4170927Y9877795D01*
X4170339Y9876619D01*
X4169751Y9876032D01*
X4164462Y9869566D01*
X4158584Y9863689D01*
X4153294Y9858399D01*
X4148004Y9853697D01*
X4142715Y9850170D01*
X4137425Y9847232D01*
X4128021Y9842529D01*
X4119792Y9839591D01*
X4113327Y9838415D01*
X4110976Y9837827D01*
X4109213D01*
X4108037D01*
X4107449D01*
X4100396Y9838415D01*
X4094519Y9839591D01*
X4089229Y9840766D01*
X4084527Y9843117D01*
X4080412Y9844880D01*
X4077474Y9846056D01*
X4075710Y9847232D01*
X4075123Y9847819D01*
X4070421Y9851934D01*
X4066306Y9856636D01*
X4062780Y9861338D01*
X4059841Y9866040D01*
X4057490Y9870742D01*
X4055727Y9874268D01*
X4054551Y9876619D01*
X4053963Y9877207D01*
X4051025Y9885436D01*
X4047498Y9894252D01*
X4043972Y9904244D01*
X4040445Y9913648D01*
X4037506Y9921877D01*
X4035743Y9928930D01*
X4034567Y9931868D01*
X4033980Y9933632D01*
X4033392Y9934807D01*
Y9935395D01*
X4030453Y9944799D01*
X4027514Y9951852D01*
X4025163Y9958317D01*
X4022812Y9963019D01*
X4021049Y9966546D01*
X4019874Y9968897D01*
X4018698Y9970073D01*
Y9970660D01*
X4016347Y9973599D01*
X4014584Y9975950D01*
X4012233Y9977126D01*
X4010469Y9978301D01*
X4008118Y9979477D01*
X4006943D01*
X4004004Y9978889D01*
X4001065Y9977713D01*
X3998714Y9975950D01*
X3995776Y9974187D01*
X3990486Y9968309D01*
X3985784Y9961844D01*
X3982257Y9955379D01*
X3979318Y9949501D01*
X3978143Y9947738D01*
X3976967Y9945975D01*
X3976380Y9944799D01*
Y9944211D01*
X3971090Y9931868D01*
X3967563Y9920113D01*
X3964625Y9909534D01*
X3962861Y9900130D01*
X3961686Y9892489D01*
X3961098Y9886611D01*
Y9881909D01*
X3961686Y9876032D01*
X3962274Y9869566D01*
X3963449Y9863689D01*
X3965212Y9858399D01*
X3966388Y9854285D01*
X3967563Y9850170D01*
X3968151Y9847819D01*
X3968739Y9847232D01*
X3969914Y9844293D01*
X3970502Y9841942D01*
Y9839003D01*
X3969914Y9836652D01*
X3969327Y9834301D01*
X3966976Y9830774D01*
X3964037Y9827836D01*
X3963449Y9827248D01*
X3962861D01*
X3956984Y9824309D01*
X3951694Y9823134D01*
X3949343Y9822546D01*
X3947580D01*
X3946404D01*
X3945816D01*
X3942290Y9823134D01*
X3938763Y9824309D01*
X3932886Y9827836D01*
X3930535Y9829599D01*
X3928771Y9831362D01*
X3928184Y9832538D01*
X3927596Y9833125D01*
X3925245Y9837827D01*
X3923482Y9842529D01*
X3921131Y9851934D01*
X3920543Y9856048D01*
X3919955Y9859574D01*
Y9862513D01*
X3920543Y9873093D01*
X3921131Y9883672D01*
X3924657Y9903068D01*
X3928771Y9921877D01*
X3931710Y9930105D01*
X3934061Y9938334D01*
X3937000Y9945387D01*
X3939351Y9951852D01*
X3941702Y9957142D01*
X3944053Y9962432D01*
X3945816Y9965958D01*
X3946992Y9968897D01*
X3947580Y9970660D01*
X3948167Y9971248D01*
X3953457Y9980652D01*
X3959335Y9988881D01*
X3964625Y9995934D01*
X3969914Y10001811D01*
X3975792Y10007101D01*
X3980494Y10011215D01*
X3985784Y10014742D01*
X3990486Y10017681D01*
X3994600Y10019444D01*
X3998714Y10021207D01*
X4005180Y10023558D01*
X4007531D01*
X4009294Y10024146D01*
X4010469D01*
X4011057D01*
X4018698Y10022971D01*
X4025163Y10020620D01*
X4031041Y10017681D01*
X4036331Y10013566D01*
X4040445Y10009452D01*
X4043972Y10006513D01*
X4045735Y10004162D01*
X4046323Y10002987D01*
X4051612Y9994171D01*
X4056902Y9984766D01*
X4061604Y9974187D01*
X4065131Y9963607D01*
X4068657Y9954791D01*
X4069833Y9950677D01*
X4071008Y9947150D01*
X4072184Y9944211D01*
X4072772Y9941860D01*
X4073359Y9940685D01*
Y9940097D01*
X4075710Y9933044D01*
X4077474Y9926579D01*
X4079825Y9920701D01*
X4081588Y9915411D01*
X4084527Y9906595D01*
X4087466Y9900130D01*
X4089817Y9895428D01*
X4091580Y9892489D01*
X4092168Y9890725D01*
X4092755Y9890138D01*
X4095694Y9887199D01*
X4099221Y9884848D01*
X4102747Y9883085D01*
X4105686Y9881909D01*
X4108037Y9881321D01*
X4110388Y9880734D01*
X4111564D01*
X4112151D01*
X4115678Y9881321D01*
X4118617Y9881909D01*
X4124494Y9884848D01*
X4130372Y9888962D01*
X4135074Y9893664D01*
X4139188Y9897779D01*
X4142127Y9901893D01*
X4143890Y9904832D01*
X4144478Y9906007D01*
X4149180Y9915999D01*
X4152706Y9925991D01*
X4155645Y9935395D01*
X4157408Y9944211D01*
X4158584Y9951264D01*
X4159172Y9957142D01*
Y9968897D01*
X4157996Y9974187D01*
X4156821Y9978301D01*
X4155645Y9982415D01*
X4154470Y9985354D01*
X4153294Y9987117D01*
X4152706Y9988293D01*
X4152119Y9988881D01*
X4149180Y9991819D01*
X4145653Y9994171D01*
X4141539Y9995934D01*
X4137425Y9997109D01*
X4133898Y9997697D01*
X4130959Y9998285D01*
X4128608D01*
X4128021D01*
X4128608Y10004162D01*
X4129196Y10009452D01*
X4130959Y10014154D01*
X4132723Y10018269D01*
X4135074Y10021207D01*
X4138013Y10024146D01*
X4143890Y10028260D01*
X4149180Y10030611D01*
X4154470Y10031787D01*
X4157996Y10032375D01*
X4158584D01*
X4159172D01*
X4164462Y10031787D01*
D02*
G37*
G36*
X4111564Y9645631D02*
X4115678Y9644456D01*
X4118617Y9643868D01*
X4120968Y9642692D01*
X4122143Y9641517D01*
X4123319Y9640929D01*
X4125082Y9639166D01*
X4126257Y9636227D01*
X4128021Y9630937D01*
X4128608Y9628586D01*
Y9624472D01*
X4128021Y9618594D01*
X4126257Y9613892D01*
X4124494Y9611541D01*
X4123906Y9610366D01*
X4120380Y9607427D01*
X4117441Y9605664D01*
X4115090Y9604488D01*
X4113915D01*
X4111564Y9603901D01*
X4107449D01*
X4103335Y9603313D01*
X4099221D01*
X4095106Y9602725D01*
X4091580D01*
X4089229D01*
X4088053D01*
X4076298Y9602137D01*
X4066306Y9601550D01*
X4058665Y9600374D01*
X4052200Y9599786D01*
X4048086Y9599198D01*
X4045147Y9598611D01*
X4043384Y9598023D01*
X4042796D01*
X4035743Y9595672D01*
X4030453Y9592733D01*
X4026927Y9590970D01*
X4026339Y9589794D01*
X4025751D01*
X4022812Y9587443D01*
X4019874Y9584505D01*
X4013408Y9577452D01*
X4011057Y9573925D01*
X4008706Y9571574D01*
X4006943Y9569223D01*
X4006355Y9568635D01*
X4002241Y9562758D01*
X3998127Y9557468D01*
X3995188Y9552178D01*
X3992837Y9548064D01*
X3991074Y9544537D01*
X3989898Y9542186D01*
X3988723Y9540423D01*
Y9539835D01*
X3985784Y9531607D01*
X3984608Y9524553D01*
X3984020Y9522202D01*
Y9518676D01*
X3984608Y9516913D01*
X3985196Y9515737D01*
X3987547Y9513386D01*
X3989310Y9511623D01*
X3990486Y9511035D01*
X3996363Y9509272D01*
X4002241Y9508684D01*
X4005180Y9508096D01*
X4007531D01*
X4008706D01*
X4009294D01*
X4018698Y9508684D01*
X4028102Y9510447D01*
X4038094Y9512798D01*
X4046910Y9515737D01*
X4054551Y9518676D01*
X4061017Y9521027D01*
X4063368Y9522202D01*
X4065131Y9522790D01*
X4065719Y9523378D01*
X4066306D01*
X4071008Y9525729D01*
X4075710Y9527492D01*
X4082763Y9531019D01*
X4088053Y9533370D01*
X4091580Y9534545D01*
X4093931Y9535721D01*
X4095694Y9536309D01*
X4096282D01*
X4102747Y9535721D01*
X4108037Y9533958D01*
X4111564Y9532194D01*
X4112151Y9531607D01*
X4112739D01*
X4115090Y9529843D01*
X4117441Y9527492D01*
X4119204Y9523378D01*
X4120380Y9519851D01*
Y9518088D01*
X4119792Y9512798D01*
X4118617Y9508096D01*
X4117441Y9503982D01*
X4115678Y9500455D01*
X4113327Y9498104D01*
X4112151Y9496341D01*
X4110976Y9495753D01*
X4110388Y9495166D01*
X4108037Y9493990D01*
X4105098Y9492815D01*
X4098045Y9489876D01*
X4089817Y9486937D01*
X4081000Y9484586D01*
X4072772Y9482235D01*
X4065719Y9480472D01*
X4063368Y9479884D01*
X4061017Y9479296D01*
X4059841Y9478709D01*
X4059253D01*
X4044559Y9475182D01*
X4032216Y9472831D01*
X4021049Y9471068D01*
X4012233Y9469892D01*
X4005180Y9469304D01*
X4000478Y9468717D01*
X3997539D01*
X3996363D01*
X3988723Y9469304D01*
X3981669Y9470480D01*
X3975792Y9472243D01*
X3970502Y9474594D01*
X3965800Y9476357D01*
X3962861Y9478121D01*
X3960510Y9479296D01*
X3959922Y9479884D01*
X3954633Y9484586D01*
X3951106Y9489288D01*
X3948167Y9494578D01*
X3946404Y9499280D01*
X3945229Y9503394D01*
X3944641Y9506921D01*
Y9509860D01*
X3945229Y9515737D01*
X3946404Y9522202D01*
X3948755Y9528668D01*
X3951694Y9535721D01*
X3958747Y9549827D01*
X3966976Y9563933D01*
X3974616Y9576276D01*
X3978731Y9581566D01*
X3981669Y9586268D01*
X3984608Y9589794D01*
X3986959Y9592733D01*
X3988135Y9594496D01*
X3988723Y9595084D01*
X3969914Y9592733D01*
X3952869Y9589794D01*
X3938176Y9586268D01*
X3931122Y9584505D01*
X3925245Y9582741D01*
X3919955Y9580978D01*
X3914665Y9579215D01*
X3910551Y9578039D01*
X3907024Y9576864D01*
X3904086Y9575688D01*
X3902322Y9574513D01*
X3901147Y9573925D01*
X3900559D01*
X3894094Y9570986D01*
X3888216Y9568047D01*
X3883514Y9565109D01*
X3879400Y9562170D01*
X3875873Y9559231D01*
X3872347Y9556292D01*
X3868233Y9551002D01*
X3865294Y9546888D01*
X3864118Y9543362D01*
X3863530Y9541011D01*
Y9540423D01*
X3864118Y9532782D01*
X3864706Y9525141D01*
X3868233Y9511623D01*
X3872935Y9500455D01*
X3878224Y9491051D01*
X3883514Y9483411D01*
X3888216Y9478121D01*
X3891743Y9475182D01*
X3892331Y9474006D01*
X3892918D01*
X3895857Y9470480D01*
X3897033Y9467541D01*
X3897620Y9465190D01*
Y9464015D01*
X3897033Y9459900D01*
X3895269Y9456374D01*
X3893506Y9454023D01*
X3892918Y9453435D01*
X3888804Y9451084D01*
X3884690Y9449908D01*
X3881163Y9449321D01*
X3880575D01*
X3879988D01*
X3876461Y9449908D01*
X3872347Y9451672D01*
X3868820Y9453435D01*
X3865294Y9456374D01*
X3862355Y9458725D01*
X3860004Y9460488D01*
X3858241Y9462251D01*
X3857653Y9462839D01*
X3848837Y9474006D01*
X3845310Y9479296D01*
X3842371Y9484586D01*
X3840020Y9489288D01*
X3838257Y9492815D01*
X3837669Y9495166D01*
X3837081Y9495753D01*
X3834143Y9503982D01*
X3831792Y9512211D01*
X3830028Y9519851D01*
X3828853Y9526904D01*
X3828265Y9532782D01*
X3827677Y9537484D01*
Y9541598D01*
X3828265Y9549827D01*
X3829441Y9556880D01*
X3831792Y9563345D01*
X3834143Y9569223D01*
X3835906Y9573337D01*
X3838257Y9576864D01*
X3839433Y9579215D01*
X3840020Y9579803D01*
X3845310Y9585680D01*
X3851775Y9591558D01*
X3859416Y9596847D01*
X3867057Y9601550D01*
X3873522Y9605076D01*
X3879400Y9608015D01*
X3881751Y9609190D01*
X3883514Y9609778D01*
X3884102Y9610366D01*
X3884690D01*
X3897033Y9615068D01*
X3909963Y9619770D01*
X3922306Y9623296D01*
X3933473Y9626235D01*
X3943465Y9628586D01*
X3947580Y9629762D01*
X3951106Y9630350D01*
X3953457Y9630937D01*
X3955808D01*
X3956984Y9631525D01*
X3957571D01*
X3972853Y9634464D01*
X3987547Y9636227D01*
X4001653Y9637990D01*
X4014584Y9639754D01*
X4020461Y9640341D01*
X4025163Y9640929D01*
X4029865D01*
X4033980Y9641517D01*
X4036919D01*
X4039270Y9642105D01*
X4040445D01*
X4041033D01*
X4099808Y9646219D01*
X4106274D01*
X4111564Y9645631D01*
D02*
G37*
G36*
X4092168Y9441680D02*
X4098633Y9440504D01*
X4104510Y9438741D01*
X4109213Y9436978D01*
X4113327Y9434627D01*
X4116853Y9432864D01*
X4118617Y9431688D01*
X4119204Y9431100D01*
X4123906Y9426986D01*
X4127433Y9422284D01*
X4130372Y9416994D01*
X4132135Y9412880D01*
X4133311Y9408766D01*
X4133898Y9405827D01*
Y9402888D01*
X4133311Y9395247D01*
X4130959Y9387019D01*
X4128021Y9378790D01*
X4125082Y9371737D01*
X4121555Y9365272D01*
X4118617Y9360570D01*
X4116266Y9357043D01*
X4115678Y9356455D01*
Y9355867D01*
X4108625Y9346463D01*
X4100396Y9337647D01*
X4092755Y9329418D01*
X4085115Y9322365D01*
X4078061Y9315900D01*
X4072772Y9311786D01*
X4069245Y9308847D01*
X4068736Y9307828D01*
X4078061Y9310023D01*
X4087466Y9311786D01*
X4096282Y9313549D01*
X4104510Y9315312D01*
X4112151Y9317076D01*
X4119204Y9318839D01*
X4125082Y9320014D01*
X4130959Y9321190D01*
X4135662Y9322365D01*
X4139776Y9323541D01*
X4143302Y9324129D01*
X4146241Y9325304D01*
X4148592Y9325892D01*
X4150355D01*
X4150943Y9326480D01*
X4151531D01*
X4161523Y9329418D01*
X4170339Y9331770D01*
X4178568Y9333533D01*
X4186209Y9335296D01*
X4192674Y9337059D01*
X4199139Y9338235D01*
X4204429Y9338823D01*
X4208543Y9339998D01*
X4212658Y9340586D01*
X4216184Y9341174D01*
X4218535D01*
X4220886Y9341761D01*
X4223825D01*
X4224413D01*
X4229115D01*
X4233229Y9341174D01*
X4239694Y9339410D01*
X4244396Y9337059D01*
X4247335Y9334708D01*
X4249686Y9331770D01*
X4250274Y9329418D01*
X4250862Y9327655D01*
Y9327067D01*
X4250274Y9320602D01*
X4247923Y9314725D01*
X4244984Y9310023D01*
X4241458Y9306496D01*
X4237343Y9303557D01*
X4234405Y9301794D01*
X4232054Y9300618D01*
X4231466Y9300031D01*
X4226764Y9298855D01*
X4220886Y9297092D01*
X4213245Y9295329D01*
X4204429Y9292978D01*
X4195025Y9291214D01*
X4184445Y9288863D01*
X4163874Y9285337D01*
X4153294Y9282986D01*
X4143302Y9281222D01*
X4134486Y9279459D01*
X4126257Y9278284D01*
X4119204Y9277108D01*
X4114502Y9275933D01*
X4110976Y9275345D01*
X4110388D01*
X4109800D01*
X4035743Y9263590D01*
X4023400Y9261827D01*
X4013408Y9260651D01*
X4005767Y9259476D01*
X3999302Y9258888D01*
X3994600D01*
X3991661Y9258300D01*
X3989898D01*
X3989310D01*
X3982845Y9258888D01*
X3978731Y9260651D01*
X3975792Y9262414D01*
X3974616Y9263002D01*
X3971090Y9265941D01*
X3969914Y9267116D01*
X3969327D01*
X3967563Y9268880D01*
X3964625Y9269467D01*
X3962274Y9270055D01*
X3961686D01*
X3961098D01*
X3956984Y9271231D01*
X3952869Y9272994D01*
X3946404Y9277696D01*
X3944053Y9280047D01*
X3942290Y9281810D01*
X3941702Y9282986D01*
X3941114Y9283574D01*
X3938763Y9288276D01*
X3937000Y9292978D01*
X3934649Y9301794D01*
X3934061Y9305320D01*
X3933473Y9308259D01*
Y9310610D01*
X3934061Y9319427D01*
X3935824Y9328243D01*
X3938176Y9336472D01*
X3941114Y9344700D01*
X3948755Y9359394D01*
X3957571Y9372912D01*
X3962274Y9378790D01*
X3966388Y9384080D01*
X3970502Y9388782D01*
X3974029Y9392896D01*
X3976967Y9395835D01*
X3979906Y9398186D01*
X3981082Y9399361D01*
X3981669Y9399949D01*
X3991074Y9407590D01*
X3999890Y9414055D01*
X4009294Y9419345D01*
X4018698Y9424635D01*
X4027514Y9428749D01*
X4035743Y9431688D01*
X4043972Y9434627D01*
X4051612Y9436978D01*
X4058665Y9438741D01*
X4065131Y9439917D01*
X4071008Y9441092D01*
X4075710Y9441680D01*
X4079825Y9442268D01*
X4082763D01*
X4084527D01*
X4085115D01*
X4092168Y9441680D01*
D02*
G37*
%LPC*%
G36*
X4116321Y8916901D02*
X4114911D01*
X4114559D01*
X4107508Y8916196D01*
X4100809Y8914785D01*
X4094816Y8912317D01*
X4089528Y8909850D01*
X4085297Y8907029D01*
X4082124Y8904561D01*
X4080009Y8903151D01*
X4079656Y8902446D01*
X4079303D01*
X4076483Y8899978D01*
X4074368Y8897158D01*
X4070490Y8892222D01*
X4067669Y8887639D01*
X4065907Y8883408D01*
X4064496Y8879883D01*
X4064144Y8877415D01*
X4063791Y8875652D01*
Y8874947D01*
X4064144Y8873184D01*
X4064849Y8871421D01*
X4066612Y8868601D01*
X4068727Y8867191D01*
X4069079Y8866486D01*
X4069432D01*
X4074015Y8864723D01*
X4078951Y8863665D01*
X4080714D01*
X4082476Y8863313D01*
X4083534D01*
X4083887D01*
X4089528Y8863665D01*
X4094816Y8864370D01*
X4099752Y8865428D01*
X4103982Y8866838D01*
X4107860Y8868248D01*
X4110681Y8869306D01*
X4112443Y8870011D01*
X4113148Y8870364D01*
X4118084Y8873184D01*
X4122667Y8875652D01*
X4126193Y8878120D01*
X4129013Y8880235D01*
X4131481Y8881998D01*
X4132891Y8883408D01*
X4133949Y8884466D01*
X4134302Y8884818D01*
X4136064Y8887286D01*
X4137475Y8889754D01*
X4138532Y8892222D01*
X4139237Y8894337D01*
X4139590Y8896453D01*
X4139942Y8897863D01*
Y8899273D01*
X4139590Y8902093D01*
X4138885Y8904561D01*
X4137475Y8907029D01*
X4136417Y8908792D01*
X4135007Y8910202D01*
X4133597Y8911260D01*
X4132891Y8911612D01*
X4132539Y8911965D01*
X4129718Y8913728D01*
X4126898Y8914785D01*
X4120905Y8916196D01*
X4118437Y8916548D01*
X4116321Y8916901D01*
D02*
G37*
G36*
X3949282Y8864370D02*
X3948577D01*
X3945052Y8863665D01*
X3941526Y8862255D01*
X3938001Y8860140D01*
X3934828Y8858024D01*
X3932360Y8855557D01*
X3929892Y8853441D01*
X3928482Y8852031D01*
X3928129Y8851326D01*
X3924251Y8846390D01*
X3921431Y8841102D01*
X3918963Y8836166D01*
X3916848Y8831583D01*
X3915790Y8827352D01*
X3914732Y8824179D01*
X3914027Y8822064D01*
Y8821359D01*
X3919668Y8823122D01*
X3925309Y8825237D01*
X3930245Y8827705D01*
X3934475Y8830173D01*
X3938001Y8832288D01*
X3940821Y8834403D01*
X3942584Y8835814D01*
X3943289Y8836166D01*
X3947872Y8840397D01*
X3951398Y8844275D01*
X3953866Y8847800D01*
X3955276Y8850973D01*
X3956333Y8853441D01*
X3956686Y8855204D01*
X3957039Y8856614D01*
Y8856967D01*
X3956686Y8859082D01*
X3955981Y8860845D01*
X3954923Y8861903D01*
X3954571Y8862255D01*
X3952455Y8863665D01*
X3950693Y8864018D01*
X3949282Y8864370D01*
D02*
G37*
G36*
X4137475Y8613353D02*
X4136769D01*
X4133244Y8612648D01*
X4129718Y8611238D01*
X4126193Y8609123D01*
X4123020Y8607007D01*
X4120552Y8604540D01*
X4118084Y8602424D01*
X4116674Y8601014D01*
X4116321Y8600309D01*
X4112443Y8595373D01*
X4109623Y8590085D01*
X4107155Y8585149D01*
X4105040Y8580566D01*
X4103982Y8576335D01*
X4102924Y8573162D01*
X4102219Y8571047D01*
Y8570342D01*
X4107860Y8572105D01*
X4113501Y8574220D01*
X4118437Y8576688D01*
X4122667Y8579156D01*
X4126193Y8581271D01*
X4129013Y8583386D01*
X4130776Y8584797D01*
X4131481Y8585149D01*
X4136064Y8589380D01*
X4139590Y8593258D01*
X4142058Y8596783D01*
X4143468Y8599956D01*
X4144526Y8602424D01*
X4144878Y8604187D01*
X4145231Y8605597D01*
Y8605950D01*
X4144878Y8608065D01*
X4144173Y8609828D01*
X4143115Y8610885D01*
X4142763Y8611238D01*
X4140648Y8612648D01*
X4138885Y8613001D01*
X4137475Y8613353D01*
D02*
G37*
G36*
X4116321Y8327081D02*
X4114911D01*
X4114559D01*
X4107508Y8326376D01*
X4100809Y8324966D01*
X4094816Y8322498D01*
X4089528Y8320030D01*
X4085297Y8317210D01*
X4082124Y8314742D01*
X4080009Y8313332D01*
X4079656Y8312627D01*
X4079303D01*
X4076483Y8310159D01*
X4074368Y8307338D01*
X4070490Y8302402D01*
X4067669Y8297819D01*
X4065907Y8293589D01*
X4064496Y8290063D01*
X4064144Y8287595D01*
X4063791Y8285833D01*
Y8285127D01*
X4064144Y8283365D01*
X4064849Y8281602D01*
X4066612Y8278782D01*
X4068727Y8277371D01*
X4069079Y8276666D01*
X4069432D01*
X4074015Y8274903D01*
X4078951Y8273846D01*
X4080714D01*
X4082476Y8273493D01*
X4083534D01*
X4083887D01*
X4089528Y8273846D01*
X4094816Y8274551D01*
X4099752Y8275609D01*
X4103982Y8277019D01*
X4107860Y8278429D01*
X4110681Y8279487D01*
X4112443Y8280192D01*
X4113148Y8280544D01*
X4118084Y8283365D01*
X4122667Y8285833D01*
X4126193Y8288300D01*
X4129013Y8290416D01*
X4131481Y8292178D01*
X4132891Y8293589D01*
X4133949Y8294646D01*
X4134302Y8294999D01*
X4136064Y8297467D01*
X4137475Y8299935D01*
X4138532Y8302402D01*
X4139237Y8304518D01*
X4139590Y8306633D01*
X4139942Y8308043D01*
Y8309454D01*
X4139590Y8312274D01*
X4138885Y8314742D01*
X4137475Y8317210D01*
X4136417Y8318972D01*
X4135007Y8320383D01*
X4133597Y8321440D01*
X4132891Y8321793D01*
X4132539Y8322145D01*
X4129718Y8323908D01*
X4126898Y8324966D01*
X4120905Y8326376D01*
X4118437Y8326729D01*
X4116321Y8327081D01*
D02*
G37*
G36*
X4137475Y7984753D02*
X4136769D01*
X4133244Y7984048D01*
X4129718Y7982638D01*
X4126193Y7980523D01*
X4123020Y7978407D01*
X4120552Y7975939D01*
X4118084Y7973824D01*
X4116674Y7972414D01*
X4116321Y7971709D01*
X4112443Y7966773D01*
X4109623Y7961485D01*
X4107155Y7956549D01*
X4105040Y7951966D01*
X4103982Y7947735D01*
X4102924Y7944562D01*
X4102219Y7942447D01*
Y7941742D01*
X4107860Y7943505D01*
X4113501Y7945620D01*
X4118437Y7948088D01*
X4122667Y7950556D01*
X4126193Y7952671D01*
X4129013Y7954786D01*
X4130776Y7956196D01*
X4131481Y7956549D01*
X4136064Y7960780D01*
X4139590Y7964658D01*
X4142058Y7968183D01*
X4143468Y7971356D01*
X4144526Y7973824D01*
X4144878Y7975587D01*
X4145231Y7976997D01*
Y7977350D01*
X4144878Y7979465D01*
X4144173Y7981228D01*
X4143115Y7982285D01*
X4142763Y7982638D01*
X4140648Y7984048D01*
X4138885Y7984401D01*
X4137475Y7984753D01*
D02*
G37*
G36*
X3940821Y8007669D02*
X3939764D01*
X3939058D01*
X3938706D01*
X3935180Y8006964D01*
X3931302Y8005554D01*
X3927424Y8003086D01*
X3923899Y8000618D01*
X3920373Y7997798D01*
X3917905Y7995330D01*
X3916143Y7993919D01*
X3915437Y7993214D01*
X3910149Y7987574D01*
X3905213Y7981933D01*
X3900983Y7976292D01*
X3897457Y7971004D01*
X3894284Y7966420D01*
X3892169Y7962542D01*
X3891111Y7961132D01*
X3890406Y7960075D01*
X3890054Y7959722D01*
Y7959369D01*
X3886528Y7952318D01*
X3884060Y7946325D01*
X3881945Y7941037D01*
X3880887Y7936454D01*
X3880182Y7932928D01*
X3879830Y7930460D01*
X3879477Y7929050D01*
Y7928345D01*
X3879830Y7924114D01*
X3880535Y7920589D01*
Y7919178D01*
X3880887Y7918121D01*
X3881240Y7917768D01*
Y7917416D01*
X3882650Y7914243D01*
X3883355Y7912127D01*
X3884060Y7910717D01*
X3884413Y7910365D01*
X3885118Y7909660D01*
X3886176Y7908954D01*
X3888643Y7907897D01*
X3890759Y7907192D01*
X3891464Y7906839D01*
X3891816D01*
X3896047Y7906134D01*
X3899925Y7905781D01*
X3901335Y7905429D01*
X3902393D01*
X3903098D01*
X3903451D01*
X3909444Y7905781D01*
X3914732Y7906839D01*
X3920021Y7908249D01*
X3924604Y7909660D01*
X3928482Y7911070D01*
X3931302Y7912480D01*
X3933065Y7913538D01*
X3933770Y7913890D01*
X3939058Y7917063D01*
X3943994Y7920589D01*
X3948577Y7923762D01*
X3952103Y7926935D01*
X3955276Y7929755D01*
X3957744Y7931870D01*
X3959154Y7933281D01*
X3959506Y7933633D01*
X3963385Y7937864D01*
X3966557Y7941389D01*
X3969025Y7944562D01*
X3971141Y7947383D01*
X3972551Y7949498D01*
X3973609Y7950908D01*
X3973961Y7951966D01*
X3974314Y7952318D01*
X3975724Y7955139D01*
X3976781Y7958312D01*
X3978192Y7964305D01*
Y7966773D01*
X3978544Y7968888D01*
Y7970651D01*
X3978192Y7971709D01*
X3977487Y7973471D01*
X3976429Y7974882D01*
X3976076Y7975587D01*
X3975019Y7977702D01*
X3974314Y7979465D01*
X3973961Y7980170D01*
Y7980523D01*
X3974314Y7983695D01*
X3975019Y7986163D01*
X3975371Y7987926D01*
X3975724Y7988279D01*
X3973609Y7990394D01*
X3971141Y7992862D01*
X3969025Y7994977D01*
X3968673Y7995330D01*
X3968320Y7995682D01*
X3966557Y7997445D01*
X3964795Y7998855D01*
X3962327Y8000971D01*
X3960917Y8002028D01*
X3960564Y8002381D01*
X3959506Y8003086D01*
X3958096Y8003438D01*
X3954923Y8004496D01*
X3953513Y8004849D01*
X3952103Y8005201D01*
X3951398Y8005554D01*
X3951045D01*
X3946109Y8006964D01*
X3942231Y8007316D01*
X3940821Y8007669D01*
D02*
G37*
G36*
Y7688962D02*
X3939764D01*
X3939058D01*
X3938706D01*
X3935180Y7688257D01*
X3931302Y7686847D01*
X3927424Y7684379D01*
X3923899Y7681911D01*
X3920373Y7679091D01*
X3917905Y7676623D01*
X3916143Y7675212D01*
X3915437Y7674507D01*
X3910149Y7668867D01*
X3905213Y7663226D01*
X3900983Y7657585D01*
X3897457Y7652297D01*
X3894284Y7647713D01*
X3892169Y7643835D01*
X3891111Y7642425D01*
X3890406Y7641367D01*
X3890054Y7641015D01*
Y7640662D01*
X3886528Y7633611D01*
X3884060Y7627618D01*
X3881945Y7622330D01*
X3880887Y7617747D01*
X3880182Y7614221D01*
X3879830Y7611753D01*
X3879477Y7610343D01*
Y7609638D01*
X3879830Y7605407D01*
X3880535Y7601882D01*
Y7600471D01*
X3880887Y7599414D01*
X3881240Y7599061D01*
Y7598709D01*
X3882650Y7595536D01*
X3883355Y7593420D01*
X3884060Y7592010D01*
X3884413Y7591658D01*
X3885118Y7590953D01*
X3886176Y7590247D01*
X3888643Y7589190D01*
X3890759Y7588485D01*
X3891464Y7588132D01*
X3891816D01*
X3896047Y7587427D01*
X3899925Y7587074D01*
X3901335Y7586722D01*
X3902393D01*
X3903098D01*
X3903451D01*
X3909444Y7587074D01*
X3914732Y7588132D01*
X3920021Y7589542D01*
X3924604Y7590953D01*
X3928482Y7592363D01*
X3931302Y7593773D01*
X3933065Y7594831D01*
X3933770Y7595183D01*
X3939058Y7598356D01*
X3943994Y7601882D01*
X3948577Y7605055D01*
X3952103Y7608228D01*
X3955276Y7611048D01*
X3957744Y7613163D01*
X3959154Y7614574D01*
X3959506Y7614926D01*
X3963385Y7619157D01*
X3966557Y7622682D01*
X3969025Y7625855D01*
X3971141Y7628676D01*
X3972551Y7630791D01*
X3973609Y7632201D01*
X3973961Y7633259D01*
X3974314Y7633611D01*
X3975724Y7636432D01*
X3976781Y7639605D01*
X3978192Y7645598D01*
Y7648066D01*
X3978544Y7650181D01*
Y7651944D01*
X3978192Y7653002D01*
X3977487Y7654764D01*
X3976429Y7656175D01*
X3976076Y7656880D01*
X3975019Y7658995D01*
X3974314Y7660758D01*
X3973961Y7661463D01*
Y7661816D01*
X3974314Y7664988D01*
X3975019Y7667456D01*
X3975371Y7669219D01*
X3975724Y7669572D01*
X3973609Y7671687D01*
X3971141Y7674155D01*
X3969025Y7676270D01*
X3968673Y7676623D01*
X3968320Y7676975D01*
X3966557Y7678738D01*
X3964795Y7680148D01*
X3962327Y7682264D01*
X3960917Y7683321D01*
X3960564Y7683674D01*
X3959506Y7684379D01*
X3958096Y7684731D01*
X3954923Y7685789D01*
X3953513Y7686142D01*
X3952103Y7686494D01*
X3951398Y7686847D01*
X3951045D01*
X3946109Y7688257D01*
X3942231Y7688609D01*
X3940821Y7688962D01*
D02*
G37*
G36*
X4071899Y7160864D02*
X3990563D01*
X3983510D01*
X3977398Y7159923D01*
X3971756Y7159453D01*
X3967055Y7158043D01*
X3963294Y7156632D01*
X3960002Y7155222D01*
X3957182Y7153811D01*
X3955301Y7152401D01*
X3953420Y7150520D01*
X3952480Y7149110D01*
X3950599Y7146289D01*
X3950129Y7144408D01*
Y7143468D01*
X3950599Y7139237D01*
X3952480Y7135475D01*
X3954831Y7132655D01*
X3957652Y7130774D01*
X3960473Y7129363D01*
X3962823Y7128423D01*
X3964704Y7127953D01*
X3965174D01*
X3976928Y7127483D01*
X3987742D01*
X4071899D01*
X4078951D01*
X4085063Y7128423D01*
X4090235Y7128893D01*
X4094937Y7130304D01*
X4098698Y7131244D01*
X4101989Y7132655D01*
X4104810Y7134535D01*
X4106691Y7135946D01*
X4109982Y7139237D01*
X4111392Y7141587D01*
X4111862Y7143468D01*
Y7144408D01*
X4111392Y7147229D01*
X4110922Y7149580D01*
X4107631Y7153811D01*
X4103399Y7156632D01*
X4098698Y7158513D01*
X4093996Y7159453D01*
X4089765Y7160394D01*
X4086474D01*
X4086004D01*
X4085534D01*
X4071899Y7160864D01*
D02*
G37*
G36*
X4088355Y6717979D02*
X4085534D01*
X4085063D01*
X4084593D01*
X4080362D01*
X4076131Y6717509D01*
X4072839Y6716568D01*
X4070019Y6716098D01*
X4065317Y6713747D01*
X4062496Y6711397D01*
X4060615Y6709046D01*
X4059675Y6706695D01*
X4059205Y6705285D01*
Y6704814D01*
X4059675Y6702464D01*
X4060145Y6700113D01*
X4061556Y6698232D01*
X4063436Y6696822D01*
X4067668Y6694001D01*
X4072839Y6692590D01*
X4077541Y6691650D01*
X4081772Y6691180D01*
X4083653Y6690710D01*
X4085063D01*
X4085534D01*
X4086004D01*
X4089765D01*
X4093526Y6691180D01*
X4099168Y6692590D01*
X4102929Y6694941D01*
X4105750Y6697292D01*
X4107631Y6699643D01*
X4108101Y6701993D01*
X4108571Y6703404D01*
Y6703874D01*
X4108101Y6706225D01*
X4107631Y6708576D01*
X4104810Y6711867D01*
X4101049Y6714688D01*
X4096817Y6716098D01*
X4092116Y6717038D01*
X4088355Y6717979D01*
D02*
G37*
G36*
X3990092Y6721270D02*
X3988212D01*
X3986801D01*
X3985861D01*
X3985391D01*
X3979279D01*
X3973637Y6720800D01*
X3968935Y6719859D01*
X3965174Y6718919D01*
X3961413Y6717509D01*
X3958592Y6716568D01*
X3956241Y6715158D01*
X3954361Y6713747D01*
X3952010Y6710456D01*
X3950599Y6708105D01*
X3950129Y6706225D01*
Y6705755D01*
X3950599Y6702934D01*
X3951540Y6700113D01*
X3952950Y6698232D01*
X3955301Y6696352D01*
X3960473Y6693531D01*
X3966585Y6691180D01*
X3972226Y6690240D01*
X3977398Y6689769D01*
X3979749Y6689299D01*
X3981159D01*
X3982100D01*
X3982570D01*
X3988212D01*
X3993383Y6689769D01*
X3997615Y6690710D01*
X4001376Y6691650D01*
X4004667Y6693061D01*
X4007018Y6694471D01*
X4009369Y6695881D01*
X4010779Y6697292D01*
X4013130Y6700113D01*
X4014540Y6702934D01*
X4015011Y6704814D01*
Y6705285D01*
X4014540Y6708105D01*
X4013600Y6710456D01*
X4012190Y6712807D01*
X4010309Y6714688D01*
X4005607Y6717509D01*
X4000436Y6719389D01*
X3994794Y6720329D01*
X3990092Y6721270D01*
D02*
G37*
G36*
X4071899Y6541671D02*
X3990563D01*
X3983510D01*
X3977398Y6540731D01*
X3971756Y6540260D01*
X3967055Y6538850D01*
X3963294Y6537440D01*
X3960002Y6536029D01*
X3957182Y6534619D01*
X3955301Y6533208D01*
X3953420Y6531328D01*
X3952480Y6529917D01*
X3950599Y6527096D01*
X3950129Y6525216D01*
Y6524275D01*
X3950599Y6520044D01*
X3952480Y6516283D01*
X3954831Y6513462D01*
X3957652Y6511581D01*
X3960473Y6510171D01*
X3962823Y6509230D01*
X3964704Y6508760D01*
X3965174D01*
X3976928Y6508290D01*
X3987742D01*
X4071899D01*
X4078951D01*
X4085063Y6509230D01*
X4090235Y6509700D01*
X4094937Y6511111D01*
X4098698Y6512051D01*
X4101989Y6513462D01*
X4104810Y6515342D01*
X4106691Y6516753D01*
X4109982Y6520044D01*
X4111392Y6522395D01*
X4111862Y6524275D01*
Y6525216D01*
X4111392Y6528036D01*
X4110922Y6530387D01*
X4107631Y6534619D01*
X4103399Y6537440D01*
X4098698Y6539320D01*
X4093996Y6540260D01*
X4089765Y6541201D01*
X4086474D01*
X4086004D01*
X4085534D01*
X4071899Y6541671D01*
D02*
G37*
G36*
Y6279795D02*
X3990563D01*
X3983510D01*
X3977398Y6278855D01*
X3971756Y6278385D01*
X3967055Y6276974D01*
X3963294Y6275564D01*
X3960002Y6274153D01*
X3957182Y6272743D01*
X3955301Y6271332D01*
X3953420Y6269452D01*
X3952480Y6268041D01*
X3950599Y6265220D01*
X3950129Y6263340D01*
Y6262399D01*
X3950599Y6258168D01*
X3952480Y6254407D01*
X3954831Y6251586D01*
X3957652Y6249705D01*
X3960473Y6248295D01*
X3962823Y6247355D01*
X3964704Y6246884D01*
X3965174D01*
X3976928Y6246414D01*
X3987742D01*
X4071899D01*
X4078951D01*
X4085063Y6247355D01*
X4090235Y6247825D01*
X4094937Y6249235D01*
X4098698Y6250175D01*
X4101989Y6251586D01*
X4104810Y6253467D01*
X4106691Y6254877D01*
X4109982Y6258168D01*
X4111392Y6260519D01*
X4111862Y6262399D01*
Y6263340D01*
X4111392Y6266161D01*
X4110922Y6268511D01*
X4107631Y6272743D01*
X4103399Y6275564D01*
X4098698Y6277444D01*
X4093996Y6278385D01*
X4089765Y6279325D01*
X4086474D01*
X4086004D01*
X4085534D01*
X4071899Y6279795D01*
D02*
G37*
G36*
X4096870Y10366808D02*
X4096282D01*
X4095694D01*
X4089229Y10366220D01*
X4082176Y10365632D01*
X4070421Y10362694D01*
X4059253Y10357991D01*
X4049261Y10352702D01*
X4041621Y10347412D01*
X4035743Y10343298D01*
X4033392Y10340947D01*
X4031629Y10339771D01*
X4031041Y10339183D01*
X4030453Y10338596D01*
X4020461Y10327428D01*
X4011645Y10315673D01*
X4004592Y10303330D01*
X3998714Y10292163D01*
X3994012Y10282171D01*
X3992249Y10277469D01*
X3990486Y10273942D01*
X3989310Y10270416D01*
X3988723Y10268065D01*
X3988135Y10266889D01*
Y10266302D01*
X3985784Y10258661D01*
X3983433Y10251608D01*
X3981669Y10245142D01*
X3980494Y10239265D01*
X3979318Y10234563D01*
X3978143Y10229861D01*
X3976967Y10226334D01*
X3976380Y10222808D01*
X3975204Y10218106D01*
X3974616Y10215167D01*
Y10212816D01*
X3978143Y10212228D01*
X3982257D01*
X3985784D01*
X3986372D01*
X3986959D01*
X3996951D01*
X4008118Y10212816D01*
X4020461Y10213991D01*
X4033980Y10215167D01*
X4061604Y10218106D01*
X4089229Y10221632D01*
X4102747Y10223395D01*
X4114502Y10225159D01*
X4125670Y10226922D01*
X4135662Y10228097D01*
X4143890Y10229273D01*
X4149768Y10230448D01*
X4152119D01*
X4153882Y10231036D01*
X4154470D01*
X4155057D01*
Y10232799D01*
X4155645Y10235150D01*
Y10237501D01*
X4157408Y10249257D01*
X4158584Y10259248D01*
X4159172Y10268653D01*
X4159760Y10276881D01*
X4160347Y10283346D01*
Y10292163D01*
X4159760Y10303918D01*
X4157408Y10314498D01*
X4155057Y10323902D01*
X4151531Y10331542D01*
X4148592Y10338008D01*
X4145653Y10342710D01*
X4143302Y10345061D01*
X4142715Y10346236D01*
X4135662Y10353289D01*
X4128021Y10357991D01*
X4120380Y10361518D01*
X4112739Y10364457D01*
X4105686Y10365632D01*
X4100396Y10366220D01*
X4096870Y10366808D01*
D02*
G37*
G36*
X4082176Y9401125D02*
X4079237D01*
X4076886D01*
X4076298D01*
X4069245Y9400537D01*
X4061604Y9398774D01*
X4053376Y9396423D01*
X4046323Y9393484D01*
X4039857Y9390545D01*
X4034567Y9388194D01*
X4031041Y9386431D01*
X4030453Y9385843D01*
X4029865D01*
X4019874Y9379965D01*
X4011057Y9374088D01*
X4004004Y9367623D01*
X3997539Y9362333D01*
X3992837Y9357043D01*
X3989310Y9353516D01*
X3986959Y9351165D01*
X3986372Y9349990D01*
X3981082Y9342937D01*
X3977555Y9335884D01*
X3974616Y9329418D01*
X3972853Y9324129D01*
X3971678Y9319427D01*
X3971090Y9315900D01*
Y9312961D01*
X3971678Y9309435D01*
X3972853Y9306496D01*
X3977555Y9301206D01*
X3981669Y9297680D01*
X3982845Y9297092D01*
X3983433Y9296504D01*
X3988723Y9297092D01*
X3994600Y9298267D01*
X3999890Y9300031D01*
X4005767Y9301794D01*
X4017523Y9307672D01*
X4028690Y9314137D01*
X4038094Y9320602D01*
X4042208Y9323541D01*
X4045735Y9326480D01*
X4048674Y9328243D01*
X4051025Y9330006D01*
X4052200Y9331182D01*
X4052788Y9331770D01*
X4060429Y9338235D01*
X4066306Y9344700D01*
X4072184Y9350578D01*
X4076886Y9356455D01*
X4081000Y9362333D01*
X4084527Y9367623D01*
X4086878Y9372325D01*
X4089229Y9377027D01*
X4092168Y9384668D01*
X4093931Y9390545D01*
X4094519Y9392308D01*
Y9395247D01*
X4093931Y9397010D01*
X4091580Y9398774D01*
X4088641Y9399949D01*
X4085702Y9400537D01*
X4082176Y9401125D01*
D02*
G37*
%LPD*%
D10*
X6045200Y9244238D02*
G03*
X6058421Y9212319I45140J0D01*
G01*
X6366458Y7789143D02*
G03*
X6531841Y7705156I211742J212126D01*
G01*
X9127690Y7543800D02*
G03*
X9307295Y7618195I0J254000D01*
G01*
X6987751Y7631218D02*
G03*
X6972883Y7636106I-23110J-45240D01*
G01*
X7821559Y7545020D02*
G03*
X7820358Y7545020I-612J-377573D01*
G01*
X7067581Y7575583D02*
G03*
X7144604Y7543740I77022J77229D01*
G01*
X7042299Y7600821D02*
G03*
X7029570Y7609972I-35663J-36179D01*
G01*
X6248921Y8009160D02*
G03*
X6366458Y7789143I420295J83125D01*
G01*
X6692900Y10998200D02*
G03*
X6438900Y10744200I0J-254000D01*
G01*
X10610995Y9687215D02*
G03*
X10685390Y9507610I254000J0D01*
G01*
X10610995Y10505495D02*
G03*
X10536600Y10685100I-254000J0D01*
G01*
X10297895Y10923805D02*
G03*
X10118290Y10998200I-179605J-179605D01*
G01*
X6438900Y10010846D02*
Y10744200D01*
Y9906000D02*
Y10010846D01*
X6058421Y9212319D02*
X6248921Y8003581D01*
X6045200Y9244238D02*
Y9305283D01*
X6531841Y7705156D02*
X6972702Y7636136D01*
X9307295Y7618195D02*
X9474200Y7785100D01*
X7821559Y7545020D02*
X9127690Y7543800D01*
X6972702Y7636136D02*
X6972883Y7636106D01*
X7042267Y7600835D02*
X7067574Y7575590D01*
X7144812Y7543732D02*
X7820358Y7545020D01*
X6987751Y7631218D02*
X7029570Y7609972D01*
X6692900Y10998200D02*
X10118290D01*
X5537200Y8898795D02*
Y9660795D01*
X10018534Y8448530D02*
X10029966Y8328166D01*
X9956800Y8255000D02*
X10029966Y8328166D01*
X9474200Y7785100D02*
X9956800Y8255000D01*
X10685390Y9507610D02*
X10795000Y9398000D01*
X10610995Y9687215D02*
Y10505495D01*
X10297895Y10923805D02*
X10536600Y10685100D01*
X5524500Y9648095D02*
Y10664095D01*
Y7870095D02*
Y8886095D01*
D11*
X5679388Y5558473D02*
G03*
X5776778Y5518132I97390J97390D01*
G01*
X7900677Y6524454D02*
G03*
X7969250Y6496050I68573J68573D01*
G01*
X7854375Y6458317D02*
G03*
X7997849Y6400800I143474J150186D01*
G01*
X7861924Y6435216D02*
G03*
X7945011Y6400800I83087J83087D01*
G01*
X7851322Y6456595D02*
G03*
X7798947Y6416528I124278J-216720D01*
G01*
X7851322Y6456595D02*
G03*
X7861924Y6435216I37021J5040D01*
G01*
X7854375Y6458317D02*
G03*
X7851322Y6456595I121225J-218443D01*
G01*
X7850980Y6461635D02*
G03*
X7851322Y6456595I37362J0D01*
G01*
X7758615Y6479581D02*
G03*
X7791165Y6493064I0J46032D01*
G01*
X7710186Y6483514D02*
G03*
X7719681Y6479581I9495J9495D01*
G01*
X7683305Y6424395D02*
G03*
X7862910Y6350000I179605J179605D01*
G01*
X7850980Y6517840D02*
G03*
X7779858Y6547300I-71122J-71122D01*
G01*
X7588775Y6522266D02*
G03*
X7607271Y6500429I141067J100735D01*
G01*
X7603595Y6671205D02*
G03*
X7742183Y6613800I138588J138588D01*
G01*
X7820468Y6644832D02*
G03*
X7640863Y6719227I-179605J-179605D01*
G01*
X7742183Y6613800D02*
G03*
X7765428Y6557681I79364J0D01*
G01*
X7624490Y6608039D02*
G03*
X7594600Y6680200I-102052J0D01*
G01*
X7588775Y6522266D02*
G03*
X7571111Y6629328I-222775J18234D01*
G01*
X7592496Y6719227D02*
G03*
X7571111Y6667600I51627J-51627D01*
G01*
X7854195Y6570937D02*
G03*
X7865960Y6599340I-28404J28404D01*
G01*
X7646400Y6554405D02*
G03*
X7624490Y6607300I-74805J0D01*
G01*
X7779729Y6504500D02*
G03*
X7676400Y6547300I-103329J-103329D01*
G01*
X8106320Y6358980D02*
G03*
X8128000Y6350000I21680J21680D01*
G01*
X5649855Y5588005D02*
X5679388Y5558473D01*
X7969250Y6496050D02*
X8064500Y6400800D01*
X7945011D02*
X7997849D01*
X8064500D01*
X7854195Y6570937D02*
X7900678Y6524454D01*
X7862910Y6350000D02*
X8128000D01*
X7850980Y6461635D02*
Y6517840D01*
X7765428Y6557681D02*
X7775810Y6547300D01*
X7719681Y6479581D02*
X7758615D01*
X7646400Y6547300D02*
X7710186Y6483514D01*
X7673900Y6433800D02*
X7683305Y6424395D01*
X7646400Y6547300D02*
Y6554405D01*
X7779729Y6504500D02*
X7791165Y6493064D01*
X7775810Y6547300D02*
X7779858D01*
X7820468Y6644832D02*
X7969250Y6496050D01*
X7571111Y6629329D02*
Y6667600D01*
X7594600Y6680200D02*
X7603595Y6671205D01*
X7592496Y6719227D02*
X7640863D01*
X7624490Y6607300D02*
Y6608039D01*
X7571111Y6629328D02*
Y6629329D01*
X7607271Y6500429D02*
X7673900Y6433800D01*
X7796400Y6413981D02*
X7798947Y6416528D01*
X8064500Y6400800D02*
X8106320Y6358980D01*
X5524500Y5842000D02*
X5649855Y5588005D01*
D13*
X9120971Y9110258D02*
G03*
X9098789Y9163811I-75736J0D01*
G01*
X9085424Y9145805D02*
G03*
X8905819Y9220200I-179605J-179605D01*
G01*
X8672271Y9695540D02*
G03*
X8746666Y9515934I254000J0D01*
G01*
X9085424Y9145805D02*
X9120971Y9110258D01*
X8672271Y9695540D02*
Y10028257D01*
X8344404Y9220200D02*
X8905819D01*
X8229600D02*
X8344404D01*
X8746666Y9515934D02*
X9098789Y9163811D01*
X8671403Y10028257D02*
X8672271D01*
X7506634Y9264480D02*
X7613559Y9371405D01*
X9906000Y5778500D02*
X10160000D01*
D15*
X7281199Y7355822D02*
G03*
X7209914Y7372410I-108858J-306354D01*
G01*
X7386549Y7378700D02*
G03*
X7281200Y7355822I0J-254000D01*
G01*
X7659221Y7372300D02*
G03*
X7786803Y7323070I127581J140702D01*
G01*
X7652501Y7378700D02*
G03*
X7659221Y7372300I134302J134302D01*
G01*
X7697571Y7397465D02*
G03*
X7697405Y7397300I108232J-108563D01*
G01*
X7652501Y7378700D02*
G03*
X7697405Y7397300I0J63505D01*
G01*
X7569200Y7378700D02*
G03*
X7584651Y7372300I15451J15451D01*
G01*
X7569200Y7378700D02*
G03*
X7584651Y7372300I15451J15451D01*
G01*
X7209914Y7372409D02*
G03*
X7201338Y7351706I20704J-20703D01*
G01*
X8190300Y7323070D02*
G03*
X8010695Y7397465I-179605J-179605D01*
G01*
X10981184Y9945905D02*
G03*
X10801579Y10020300I-179605J-179605D01*
G01*
X11036300Y9818240D02*
G03*
X10985000Y9942089I-175149J0D01*
G01*
X10961905Y8142505D02*
G03*
X11036300Y8322110I-179605J179605D01*
G01*
X10628095Y7808695D02*
G03*
X10553700Y7629090I179605J-179605D01*
G01*
X10479305Y7414199D02*
G03*
X10553700Y7593804I-179605J179605D01*
G01*
X9411496Y6451600D02*
G03*
X9591101Y6525995I0J254000D01*
G01*
X8600730Y6721064D02*
G03*
X8600705Y6721088I-2918J-2864D01*
G01*
X8601900Y6718200D02*
G03*
X8600730Y6721064I-4089J0D01*
G01*
X8795799Y6525995D02*
G03*
X8975404Y6451600I179605J179605D01*
G01*
X10720605Y8294905D02*
G03*
X10795000Y8474510I-179605J179605D01*
G01*
X10196240Y7770540D02*
G03*
X10121846Y7590935I179605J-179605D01*
G01*
X7386549Y7378700D02*
X7569200D01*
X7659221Y7372300D02*
X7820947D01*
X7697571Y7397465D02*
X8010695D01*
X7569200Y7378700D02*
X7652501D01*
X7786803Y7323070D02*
X7954162D01*
X7584651Y7372300D02*
X7659221D01*
X8190300Y7323070D02*
X8212870Y7300500D01*
X7954162Y7323070D02*
X8190300D01*
X9398000Y5778500D02*
X9509553Y5777384D01*
X10981184Y9945905D02*
X10985000Y9942089D01*
X10795000Y10020300D02*
X10801579D01*
X11036300Y8322110D02*
Y9818240D01*
X10628095Y7808695D02*
X10961905Y8142505D01*
X10553700Y7593804D02*
Y7629090D01*
X9591101Y6525995D02*
X10479305Y7414199D01*
X8975404Y6451600D02*
X9411496D01*
X8601900Y6705600D02*
Y6718200D01*
X8600730Y6721064D02*
X8795799Y6525995D01*
X8600705Y6721088D02*
X8600730Y6721064D01*
X10196240Y7770540D02*
X10720605Y8294905D01*
X10121846Y7516663D02*
Y7590935D01*
X10795000Y8474510D02*
Y8636000D01*
Y10020300D02*
Y10160000D01*
Y9906000D02*
Y10020300D01*
X8382000Y5778500D02*
X8636000D01*
X8890000D02*
X9144000D01*
X10795000Y7357996D02*
Y7607996D01*
Y7107996D02*
Y7357996D01*
Y6607995D02*
Y6857996D01*
Y6357995D02*
Y6607995D01*
Y6107995D02*
Y6357995D01*
Y9144000D02*
Y9398000D01*
Y8890000D02*
Y9144000D01*
Y10160000D02*
Y10414000D01*
Y9652000D02*
Y9906000D01*
D17*
X10337800Y10154567D02*
G03*
X10271103Y10315597I-227740J0D01*
G01*
X7740719Y8698877D02*
G03*
X7561114Y8773272I-179605J-179605D01*
G01*
X7387200Y8773169D02*
G03*
X7406237Y8773272I4200J980431D01*
G01*
X7923652Y7862448D02*
G03*
X8103257Y7788053I179605J179605D01*
G01*
X7378700Y8204200D02*
G03*
X7375583Y8200987I103655J-103655D01*
G01*
X7656295Y8129805D02*
G03*
X7476690Y8204200I-179605J-179605D01*
G01*
X7374641Y7999128D02*
G03*
X7375584Y8028715I-463878J29587D01*
G01*
Y8028718D02*
G03*
X7375583Y8029204I-464820J0D01*
G01*
X7335765Y7818592D02*
G03*
X7374514Y7996210I-425997J185970D01*
G01*
X7374641Y7999127D02*
G03*
X7374634Y7999027I63359J-4232D01*
G01*
X7374626Y7998893D02*
G03*
X7374514Y7996210I63374J-3998D01*
G01*
X7374626Y7998893D02*
G03*
X7374634Y7999027I-463862J29825D01*
G01*
X7387809Y10524227D02*
G03*
X7387154Y10548894I-464820J0D01*
G01*
Y10548894D02*
G03*
X7385916Y10600047I-464599J14344D01*
G01*
X7717950Y10730464D02*
G03*
X7682809Y10715908I1J-49698D01*
G01*
X7385916Y10600047D02*
G03*
X7378700Y10656505I-596649J-47569D01*
G01*
X8651205Y10337973D02*
G03*
X8869838Y10461968I-78705J393527D01*
G01*
X8632354Y10334668D02*
G03*
X8651204Y10337973I-59854J396832D01*
G01*
X7404100Y9955571D02*
G03*
X7387809Y9994900I-55619J0D01*
G01*
X7429976Y10021400D02*
G03*
X7387809Y10010973I0J-90476D01*
G01*
X7797012Y9754133D02*
G03*
X7960171Y9827995I-16447J253467D01*
G01*
X7518011Y9758481D02*
G03*
X7494138Y9758590I-16725J-1048887D01*
G01*
X7518033Y9758480D02*
G03*
X7518011Y9758481I-7974J-490155D01*
G01*
X7518114Y9758479D02*
G03*
X7518033Y9758480I-7638J-490161D01*
G01*
X7228731Y5966569D02*
G03*
X7234624Y6016310I-836631J124341D01*
G01*
X7391400Y5724090D02*
G03*
X7317005Y5903695I-254000J0D01*
G01*
X7233740Y5961561D02*
G03*
X7277100Y5943600I43360J43360D01*
G01*
X7297858Y5728346D02*
G03*
X7391400Y5689600I93542J93542D01*
G01*
X10020300Y10718800D02*
G03*
X10137043Y10436957I398587J0D01*
G01*
X9525001Y10656055D02*
G03*
X9677800Y10287166I521688J0D01*
G01*
X8869839Y10461968D02*
G03*
X8900895Y10488395I-148550J206032D01*
G01*
X10140446Y8996189D02*
G03*
X10342880Y9495306I-514090J499117D01*
G01*
X9385258Y8039058D02*
G03*
X9459653Y8218664I-179605J179605D01*
G01*
X9059458Y7785100D02*
G03*
X9182100Y7835900I0J173442D01*
G01*
X9939020Y9802111D02*
G03*
X9811148Y10139824I-509888J0D01*
G01*
X8949890Y8483600D02*
G03*
X9129495Y8557995I0J254000D01*
G01*
X9858242Y9287450D02*
G03*
X9939941Y9518642I-286266J231193D01*
G01*
X10271099Y10315601D02*
X10271100Y10315600D01*
X10271099Y10315601D02*
X10271103Y10315597D01*
X8103257Y7788053D02*
X8376245D01*
X7335765D02*
X8103257D01*
X10140446Y8996189D02*
X10141762Y8997552D01*
X7335765Y7788053D02*
Y7818591D01*
X10137043Y10436957D02*
X10271099Y10315601D01*
X7406253Y8773272D02*
X7561114D01*
X7406237D02*
X7406253D01*
X7406253Y8773273D01*
X7885271Y8554325D02*
X8369067Y8483505D01*
X7600812Y8595966D02*
X7885271Y8554325D01*
X7590506Y8597474D02*
X7600812Y8595966D01*
X7582020Y8598717D02*
X7590506Y8597474D01*
X7492550Y8611814D02*
X7582020Y8598717D01*
X7471528Y8614891D02*
X7492550Y8611814D01*
X7461324Y8616385D02*
X7471528Y8614891D01*
X7387200Y8627235D02*
X7461324Y8616385D01*
X7740719Y8698877D02*
X7885271Y8554325D01*
X7387200Y8627235D02*
Y8773169D01*
X7656295Y8129805D02*
X7923652Y7862448D01*
X7378700Y8204200D02*
X7476690D01*
X7375583Y8029204D02*
Y8200987D01*
X8103257Y7788053D02*
X9048617D01*
X7335765Y7818591D02*
Y7818592D01*
X7387809Y10420909D02*
X7682809Y10715908D01*
X7378700Y10656505D02*
Y10744200D01*
Y10656505D02*
Y10656505D01*
X8380871Y10703623D02*
X8386237Y10703406D01*
X7717950Y10730464D02*
X8380871Y10703623D01*
X7654049Y10733051D02*
X7717950Y10730464D01*
X7647017Y10733336D02*
X7654049Y10733051D01*
X7560650Y10736833D02*
X7647017Y10733336D01*
X7545070Y10737464D02*
X7560650Y10736833D01*
X7527770Y10738164D02*
X7545070Y10737464D01*
X7456315Y10741058D02*
X7527770Y10738164D01*
X7410732Y10742903D02*
X7456315Y10741058D01*
X7388299Y10743811D02*
X7410732Y10742903D01*
X7378700Y10744200D02*
X7388299Y10743811D01*
X7387809Y10420909D02*
Y10524227D01*
X7641200Y10021400D02*
X7878930Y10221030D01*
X8437446Y10305271D01*
X8651204Y10337973D02*
X8651205D01*
X7960171Y9827995D02*
X8437446Y10305271D01*
X7410301Y9766261D02*
X7494138Y9758590D01*
X7647226Y9756467D02*
X7778641Y9754419D01*
X7645247Y9756498D02*
X7647226Y9756467D01*
X7630770Y9756723D02*
X7645247Y9756498D01*
X7541525Y9758114D02*
X7630770Y9756723D01*
X7518114Y9758479D02*
X7541525Y9758114D01*
X7404100Y9880600D02*
Y9955571D01*
Y9784261D02*
Y9880600D01*
X7387809Y9994900D02*
Y10010973D01*
X8437446Y10305271D02*
X8632354Y10334668D01*
X7797010Y9754133D02*
X7797012D01*
X7778642Y9754419D02*
X7797010Y9754133D01*
X7429976Y10021400D02*
X7641200D01*
X7778641Y9754419D02*
X7778642D01*
X6812841Y8358136D02*
X6828000Y8373295D01*
X7228731Y5966569D02*
X7233739Y5961561D01*
X7277100Y5943600D02*
X7317005Y5903695D01*
X7391400Y5689600D02*
Y5724090D01*
X7205631Y5820574D02*
X7297858Y5728346D01*
X10020300Y10718800D02*
X10033000Y10706100D01*
X9525000Y10656055D02*
Y10731500D01*
X8900895Y10488395D02*
X9017000Y10604500D01*
Y10731500D01*
X8386237Y10703406D02*
X8572500Y10731500D01*
X10137043Y10436957D02*
X10137043Y10436957D01*
X9459653Y8291253D02*
X10140446Y8996189D01*
X9182100Y7835900D02*
X9385258Y8039058D01*
X9939020Y9511023D02*
Y9802111D01*
X8369067Y8483505D02*
X8949890Y8483600D01*
X10342880Y9495306D02*
Y10154567D01*
X9851886Y9283413D02*
X9851887Y9283413D01*
X9129495Y8557995D02*
X9851886Y9283413D01*
X9678698Y10287963D02*
X9807641Y10142557D01*
X9459653Y8218664D02*
Y8291253D01*
D18*
X7345487Y9265534D02*
G03*
X7339130Y9266102I-52891J-556292D01*
G01*
X7490394Y9268339D02*
G03*
X7438996Y9265696I2964J-558793D01*
G01*
X7287851Y9270434D02*
G03*
X7248520Y9272401I-47548J-556774D01*
G01*
X7345487Y9265535D02*
G03*
X7438996Y9265696I45913J488065D01*
G01*
X7510059Y9268325D02*
G03*
X7497554Y9268382I-8773J-558732D01*
G01*
X6902395Y9074712D02*
G03*
X6828000Y8895107I179605J-179605D01*
G01*
X7980856Y9260989D02*
X8229600Y9220200D01*
X7438996Y9265696D02*
Y9265696D01*
X7227916Y9268631D02*
X7771004Y9264259D01*
X7223552Y9272790D02*
X7248520Y9272401D01*
X7771004Y9264259D02*
X7980856Y9260989D01*
X7345487Y9265534D02*
Y9265535D01*
X7490394Y9268339D02*
X7497554Y9268381D01*
X6828000Y8373295D02*
Y8895107D01*
X7287851Y9270434D02*
X7339130Y9266102D01*
X7510059Y9268325D02*
X7510476Y9268319D01*
X6945041Y9117359D02*
X7079463Y9251780D01*
X6902395Y9074712D02*
X6945041Y9117359D01*
X7103834Y9274656D02*
X7223552Y9272790D01*
X7090487Y9274864D02*
X7103834Y9274656D01*
D19*
X10120764Y7516663D02*
X10121846D01*
D23*
X7954162Y7323070D02*
G03*
X7820947Y7372300I-133215J-155624D01*
G01*
X7965800Y7312300D02*
G03*
X7954162Y7323070I-144853J-144853D01*
G01*
D25*
X6789267Y10178388D02*
G03*
X6840700Y10104900I78217J0D01*
G01*
Y9544758D02*
G03*
X6922989Y9627048I0J82289D01*
G01*
X6612047Y9507230D02*
G03*
X6540500Y9334500I172730J-172730D01*
G01*
X6902395Y9106981D02*
G03*
X6840700Y9006687I179605J-179605D01*
G01*
X6540500Y8092285D02*
G03*
X6578200Y8001269I128716J0D01*
G01*
X6945041Y9117359D02*
G03*
X6910763Y8989929I219722J-127430D01*
G01*
Y8028715D02*
G03*
X6909768Y8004561I527236J-33820D01*
G01*
X6886229Y8001269D02*
G03*
X6909768Y8004561I0J85802D01*
G01*
X6922556Y10563238D02*
G03*
X6789267Y10686200I-133289J-10761D01*
G01*
X8344404Y9220200D02*
X8975699Y9076137D01*
X8188889Y9255689D02*
X8344404Y9220200D01*
X7904596Y9233752D02*
X8750300Y8978900D01*
X8902672Y9055128D02*
X8902700Y9055100D01*
X6787251Y8001269D02*
X6886229D01*
X6789267Y10341410D02*
Y10686200D01*
X6928907Y9133493D02*
X7144875Y9312025D01*
X6540500Y8092285D02*
Y9334500D01*
X6902395Y9106981D02*
X6928907Y9133493D01*
X6674341Y8001269D02*
X6787251D01*
X6922989Y10074235D02*
Y10524227D01*
X6910763Y8730199D02*
Y8989929D01*
Y8493925D02*
Y8610600D01*
X6578200Y8001269D02*
X6674341D01*
X6789267Y10178388D02*
Y10341410D01*
X6840700Y9735883D02*
Y10104900D01*
X6910763Y8028718D02*
Y8134285D01*
X6922989Y9627048D02*
Y10074235D01*
X6840700Y9274864D02*
Y9544758D01*
X6910763Y8134285D02*
Y8493925D01*
X6612047Y9507230D02*
X6840700Y9735883D01*
Y9544758D02*
Y9735883D01*
X6910763Y8028715D02*
Y8028718D01*
X6910764D01*
X7223552Y9272790D02*
X7231863Y9264480D01*
X7103755Y9274522D02*
X7103834Y9274656D01*
X7090487Y9252004D02*
X7103755Y9274522D01*
X8902700Y9055128D02*
X8915239Y9055121D01*
X8902672Y9055128D02*
X8902700D01*
X8915239Y9055121D02*
X8953500Y9055100D01*
X6993478Y9515564D02*
X7122128Y9386914D01*
D27*
X7357889Y6532809D02*
G03*
X7366000Y6540500I-140735J156537D01*
G01*
X7285362Y6490203D02*
G03*
X7357889Y6532809I-68208J199143D01*
G01*
X7217154Y6478846D02*
G03*
X7285362Y6490203I0J210500D01*
G01*
X7516086Y6247401D02*
G03*
X7799694Y6126485I281714J267699D01*
G01*
X7199828Y6471654D02*
G03*
X7207109Y6478846I-385477J397509D01*
G01*
X8128000Y6126480D02*
G03*
X8129635Y6126486I0J223520D01*
G01*
X9077293Y6133419D02*
G03*
X9076350Y6133413I1655J-304796D01*
G01*
X7801610Y6126488D02*
G03*
X7799694Y6126485I-431J-304801D01*
G01*
X7862845Y6126480D02*
G03*
X7862910Y6126480I65J477520D01*
G01*
X7271533Y6504756D02*
X7271534Y6504755D01*
X7285362Y6490203D01*
X7256658Y6520411D02*
X7271533Y6504756D01*
X7285362Y6490203D02*
X7298510Y6476368D01*
X7298510Y6476367D01*
X7359370Y6412321D01*
X7516086Y6247401D01*
X7207109Y6478846D02*
X7217154D01*
X8129635Y6126486D02*
X9076350Y6133413D01*
X7862910Y6126480D02*
X8128000D01*
X7801610Y6126488D02*
X7862845Y6126480D01*
X9077293Y6133419D02*
X9078121Y6133424D01*
X9510688Y5890918D02*
X9571893Y5829567D01*
X9268764Y6133424D02*
X9510688Y5890918D01*
X9078121Y6133424D02*
X9268764D01*
D69*
X8605894Y8102778D02*
D03*
X10795000Y6107995D02*
D03*
Y6357995D02*
D03*
Y6607995D02*
D03*
Y7107996D02*
D03*
Y7357996D02*
D03*
Y7607996D02*
D03*
X9024957Y9674703D02*
D03*
X4635500Y7088001D02*
D03*
Y6838001D02*
D03*
Y6588001D02*
D03*
Y6338000D02*
D03*
Y6088000D02*
D03*
Y5838000D02*
D03*
Y5588000D02*
D03*
Y9013800D02*
D03*
Y8763800D02*
D03*
Y8513800D02*
D03*
Y8263800D02*
D03*
Y8013799D02*
D03*
Y7763799D02*
D03*
Y10918800D02*
D03*
Y10668800D02*
D03*
Y10418800D02*
D03*
Y10168800D02*
D03*
Y9918799D02*
D03*
Y9668799D02*
D03*
Y9418799D02*
D03*
X9101900Y6705600D02*
D03*
X8601900D02*
D03*
X8382000Y10731500D02*
D03*
X8636000D02*
D03*
X8890000D02*
D03*
X9144000D02*
D03*
X9398000D02*
D03*
X9652000D02*
D03*
X9906000D02*
D03*
X10160000D02*
D03*
X9652000Y5778500D02*
D03*
X9398000D02*
D03*
X9144000D02*
D03*
X8890000D02*
D03*
X8636000D02*
D03*
X8382000D02*
D03*
X10795000Y10414000D02*
D03*
Y10160000D02*
D03*
Y9906000D02*
D03*
Y9652000D02*
D03*
Y9398000D02*
D03*
Y9144000D02*
D03*
Y8890000D02*
D03*
Y8636000D02*
D03*
D70*
X9098298Y8189602D02*
D03*
X10795000Y6857996D02*
D03*
X4635500Y7513799D02*
D03*
X5778500Y7870095D02*
D03*
X5524500D02*
D03*
Y6850380D02*
D03*
X5778500Y6858000D02*
D03*
Y9648095D02*
D03*
X5524500D02*
D03*
Y10664095D02*
D03*
X5803900D02*
D03*
X5524500Y8886095D02*
D03*
X5778500D02*
D03*
X5524500Y5842000D02*
D03*
X5778500D02*
D03*
X10160000Y5778500D02*
D03*
X9906000D02*
D03*
D71*
X8671403Y10028257D02*
D03*
D72*
X9625789Y7021689D02*
D03*
X10120764Y7516663D02*
D03*
X8975253Y8960013D02*
D03*
X9470227Y9454987D02*
D03*
X9473391Y7443991D02*
D03*
X9968365Y7938966D02*
D03*
D73*
X10985500Y5651500D02*
D03*
Y10858500D02*
D03*
X4000500D02*
D03*
Y5651500D02*
D03*
D74*
X10029966Y8328166D02*
D03*
X10018534Y8448530D02*
D03*
X6058421Y9212319D02*
D03*
X6045200Y9305283D02*
D03*
X6438900Y9906000D02*
D03*
Y10010846D02*
D03*
X7696400Y6547300D02*
D03*
X7594600Y6578599D02*
D03*
X7592496Y6719227D02*
D03*
X7850980Y6517840D02*
D03*
X7886700Y6375400D02*
D03*
X7736371Y6363953D02*
D03*
X7673900Y6433800D02*
D03*
X7772800Y6652300D02*
D03*
X7988300Y7289800D02*
D03*
X7797800Y7317300D02*
D03*
X7988300Y7429500D02*
D03*
X7835900Y7442200D02*
D03*
X7708900D02*
D03*
X7581900D02*
D03*
X7562800Y7337300D02*
D03*
X7581900Y8597900D02*
D03*
X7607300Y8712200D02*
D03*
X7481726Y8684560D02*
D03*
X7454900Y8572500D02*
D03*
X7366000Y8674100D02*
D03*
Y8521700D02*
D03*
X7264400Y8585200D02*
D03*
X7251700Y8674100D02*
D03*
X7264400Y8788400D02*
D03*
X7391400Y8801100D02*
D03*
X7518400Y8788400D02*
D03*
X7632700Y8813800D02*
D03*
X7542553Y8894348D02*
D03*
X7404100Y8915400D02*
D03*
X7307809Y8874796D02*
D03*
X7659244Y7736321D02*
D03*
X7505700Y7734300D02*
D03*
X7378700Y7721600D02*
D03*
X7251700D02*
D03*
Y7835900D02*
D03*
X7378700D02*
D03*
X7505700D02*
D03*
X7645400D02*
D03*
Y7962900D02*
D03*
X7505700Y7975600D02*
D03*
X7378700Y7962900D02*
D03*
X7251700Y7950200D02*
D03*
X7264400Y8089900D02*
D03*
X7378700D02*
D03*
X7505700Y8102600D02*
D03*
X7645400Y8077200D02*
D03*
Y8191500D02*
D03*
X7518400Y8216900D02*
D03*
X7378700Y8204200D02*
D03*
X7251700Y8216900D02*
D03*
X7540011Y9660911D02*
D03*
X7315200Y9664700D02*
D03*
X7429500Y9639300D02*
D03*
X7645400D02*
D03*
Y9766300D02*
D03*
X7505700D02*
D03*
X7391400Y9753600D02*
D03*
X7264400D02*
D03*
X7277100Y9880600D02*
D03*
X7404100D02*
D03*
X7512704Y9876526D02*
D03*
X7632700Y9880600D02*
D03*
X7594600Y9994900D02*
D03*
X7480300Y9982200D02*
D03*
X7366000Y9994900D02*
D03*
X7251700D02*
D03*
X7543800Y10706100D02*
D03*
X7658100Y10833100D02*
D03*
X7518400Y10350500D02*
D03*
X7391400Y10337800D02*
D03*
X7264400Y10350500D02*
D03*
X7315200Y10464800D02*
D03*
X7480300Y10452100D02*
D03*
X7645400Y10477500D02*
D03*
X7554215Y10577913D02*
D03*
X7404100Y10579100D02*
D03*
X7251700Y10566400D02*
D03*
X7315200Y10706100D02*
D03*
X7454900D02*
D03*
X7645400Y10693400D02*
D03*
X7531100Y10820400D02*
D03*
X7391400D02*
D03*
X7262159Y10822641D02*
D03*
X6922989Y10074235D02*
D03*
X6870700Y9867900D02*
D03*
X6858000Y9728200D02*
D03*
X6642100Y9791700D02*
D03*
X6680200Y10515600D02*
D03*
X6756400Y10604500D02*
D03*
X7054890Y8373295D02*
D03*
X6616700Y8267700D02*
D03*
X6985000Y7912100D02*
D03*
X6743700D02*
D03*
X6674341Y8001269D02*
D03*
X6787251D02*
D03*
X6909768Y8004561D02*
D03*
X7023100Y8013700D02*
D03*
Y8128000D02*
D03*
X6910763Y8134285D02*
D03*
X6781800Y8128000D02*
D03*
X6642100Y8115300D02*
D03*
X6718300Y8229600D02*
D03*
X6883400Y8242300D02*
D03*
X7023100Y8255000D02*
D03*
X6945116Y8373295D02*
D03*
X6812841Y8358136D02*
D03*
X6680200Y8369300D02*
D03*
Y8483600D02*
D03*
X6807200Y8496300D02*
D03*
X6910763Y8493925D02*
D03*
X7048500Y8496300D02*
D03*
X7010400Y8623300D02*
D03*
X6883400D02*
D03*
X6756400Y8610600D02*
D03*
X6642100D02*
D03*
X6680200Y8724900D02*
D03*
X6794500D02*
D03*
X6910763Y8730199D02*
D03*
X7035800Y8737600D02*
D03*
X6972300Y8826500D02*
D03*
X6858000D02*
D03*
X6743700D02*
D03*
X6629400D02*
D03*
X6705600Y10223500D02*
D03*
X6883400Y9969500D02*
D03*
X6654800Y10020300D02*
D03*
X7010400Y10388600D02*
D03*
X6908800Y10274300D02*
D03*
X7023100Y10083800D02*
D03*
X6807200Y10147300D02*
D03*
X7010400Y9740900D02*
D03*
X6959600Y9842500D02*
D03*
X6780203Y9807810D02*
D03*
X6766337Y9928637D02*
D03*
X6705600Y9702800D02*
D03*
X6667500Y9906000D02*
D03*
X6807200Y10033000D02*
D03*
X6985000Y9982200D02*
D03*
X6959600Y10185400D02*
D03*
X6692900Y10121900D02*
D03*
X6807200Y10248900D02*
D03*
X7010400Y10274300D02*
D03*
X6896100Y10388600D02*
D03*
X7010400Y10502900D02*
D03*
X6845300Y10515600D02*
D03*
X6789267Y10341410D02*
D03*
X6642100Y10299700D02*
D03*
X6641169Y10623231D02*
D03*
X6946900Y10629900D02*
D03*
X7048500D02*
D03*
X6502400Y5715000D02*
D03*
X6438900Y5994400D02*
D03*
X6496990Y5839892D02*
D03*
X6629400Y6845300D02*
D03*
X6755700Y6848100D02*
D03*
X6877057Y6880621D02*
D03*
X6870700Y6731000D02*
D03*
X6756400Y6718300D02*
D03*
X6870700Y6615164D02*
D03*
X6755700Y6606100D02*
D03*
X6870700Y6502400D02*
D03*
X6731000Y6438900D02*
D03*
X6642100Y6616700D02*
D03*
X6629400Y6731000D02*
D03*
X6502400D02*
D03*
X6515100Y6604000D02*
D03*
X6604000Y6502400D02*
D03*
X6485700Y6436100D02*
D03*
X6375500Y6484674D02*
D03*
X6386700Y6606100D02*
D03*
X6375500Y6732808D02*
D03*
X6485700Y6848100D02*
D03*
X6386700D02*
D03*
X7112000Y6540500D02*
D03*
X7251206Y6515231D02*
D03*
X7366000Y6540500D02*
D03*
X7359370Y6412321D02*
D03*
X7175500Y6413500D02*
D03*
X7205631Y5820574D02*
D03*
X7302500Y5715000D02*
D03*
X7193753Y5711507D02*
D03*
X7414243Y5656812D02*
D03*
X7398860Y5771330D02*
D03*
X6858000Y5778500D02*
D03*
X6731000D02*
D03*
X6604000D02*
D03*
X6413500D02*
D03*
Y5905500D02*
D03*
X6584700Y5907600D02*
D03*
X6731000Y5905500D02*
D03*
X6854700Y5907600D02*
D03*
X6794500Y6032500D02*
D03*
X6667500D02*
D03*
X6540500D02*
D03*
X6375500Y6064973D02*
D03*
X6477000Y6159500D02*
D03*
X6604000D02*
D03*
X6731000D02*
D03*
X6858000D02*
D03*
D75*
X5776778Y5518132D02*
D03*
X5649855Y5588005D02*
D03*
D76*
X6959203Y6929962D02*
G03*
X6969549Y6934836I-168016J370044D01*
G01*
X7651270Y7016103D02*
G03*
X7653475Y7015506I135532J496899D01*
G01*
X7650937Y7016193D02*
G03*
X7459178Y7021359I-106514J-392195D01*
G01*
X7163766Y6975758D02*
G03*
X7269418Y6980788I37573J322942D01*
G01*
X6969549Y6934836D02*
G03*
X7042098Y6980310I-178362J365170D01*
G01*
X7163702Y6975760D02*
G03*
X7162771Y6975796I-15793J-406094D01*
G01*
X6958838Y6929797D02*
G03*
X6839858Y6847692I167651J-370209D01*
G01*
X7885449Y6953509D02*
G03*
X8034623Y6942273I104591J392711D01*
G01*
X8266177Y6965571D02*
G03*
X8441579Y7005371I0J406401D01*
G01*
X8266177Y6965571D02*
G03*
X8220768Y6963026I0J-406401D01*
G01*
X8478688Y7022444D02*
G03*
X8460332Y7014344I122017J-301356D01*
G01*
X8874899Y7075492D02*
G03*
X9368858Y7298948I-49491J767090D01*
G01*
X8685066Y7073900D02*
G03*
X8532819Y7044304I1J-406401D01*
G01*
X7269418Y6980788D02*
X7459178Y7021359D01*
X7650937Y7016193D02*
X7651270Y7016102D01*
X7163702Y6975760D02*
X7163766Y6975758D01*
X7653475Y7015506D02*
X7885449Y6953509D01*
X7042098Y6980310D02*
X7162771Y6975796D01*
X6958838Y6929797D02*
X6959203Y6929962D01*
X8034623Y6942272D02*
X8037457Y6942588D01*
X8220768Y6963026D01*
X8441579Y7005371D02*
X8460332Y7014344D01*
X6739014Y6746850D02*
X6839536Y6847372D01*
X6839858Y6847692D01*
X8478688Y7022444D02*
X8482287Y7023901D01*
X6646100Y6653936D02*
X6739014Y6746850D01*
X8482287Y7023901D02*
X8532819Y7044304D01*
X8685066Y7073900D02*
X8874899Y7075492D01*
X8685066Y7073900D02*
X8685066Y7073900D01*
X9368858Y7298948D02*
X9487339Y7417342D01*
D77*
X6816981Y6872490D02*
G03*
X6743139Y7050761I-252115J-0D01*
G01*
X6816981Y6872489D02*
G03*
X6814351Y6869163I433035J-345089D01*
G01*
X6571705Y5911305D02*
G03*
X6646100Y6090910I-179605J179605D01*
G01*
X6814351Y6869163D02*
G03*
X6708349Y6902300I-106002J-152979D01*
G01*
X6330205Y5929095D02*
G03*
X6509810Y5854700I179605J179605D01*
G01*
X6449800Y6902300D02*
X6708349D01*
X6315700Y5943600D02*
Y6090910D01*
Y6502400D01*
X6646100Y6090910D02*
Y6604000D01*
X6530200Y7263700D02*
X6743139Y7050761D01*
X6646100Y6604000D02*
Y6653936D01*
X6515100Y5854700D02*
X6571705Y5911305D01*
X6509810Y5854700D02*
X6515100D01*
X6315700Y5943600D02*
X6330205Y5929095D01*
D78*
X7592180Y9259539D02*
X7771004Y9264259D01*
X7079463Y9251780D02*
X7090487Y9252004D01*
D79*
X8407400Y9029700D02*
X8438016Y9032762D01*
%TF.MD5,44bd4fc03233830cf64b18320a37337f*%
M02*
