%TF.GenerationSoftware,Altium Limited,Altium Designer,20.0.13 (296)*%
G04 Layer_Color=16711935*
%FSLAX45Y45*%
%MOMM*%
%TF.FileFunction,Soldermask,Bot*%
%TF.Part,Single*%
G01*
G75*
%TA.AperFunction,ComponentPad*%
%ADD82C,2.23520*%
%ADD83C,1.98120*%
G04:AMPARAMS|DCode=84|XSize=1.7272mm|YSize=2.2352mm|CornerRadius=0mm|HoleSize=0mm|Usage=FLASHONLY|Rotation=135.000|XOffset=0mm|YOffset=0mm|HoleType=Round|Shape=Round|*
%AMOVALD84*
21,1,0.50800,1.72720,0.00000,0.00000,225.0*
1,1,1.72720,0.17961,0.17961*
1,1,1.72720,-0.17961,-0.17961*
%
%ADD84OVALD84*%

G04:AMPARAMS|DCode=85|XSize=5.2832mm|YSize=3.2512mm|CornerRadius=0.8636mm|HoleSize=0mm|Usage=FLASHONLY|Rotation=45.000|XOffset=0mm|YOffset=0mm|HoleType=Round|Shape=RoundedRectangle|*
%AMROUNDEDRECTD85*
21,1,5.28320,1.52400,0,0,45.0*
21,1,3.55600,3.25120,0,0,45.0*
1,1,1.72720,1.79605,0.71842*
1,1,1.72720,-0.71842,-1.79605*
1,1,1.72720,-1.79605,-0.71842*
1,1,1.72720,0.71842,1.79605*
%
%ADD85ROUNDEDRECTD85*%
%TA.AperFunction,ViaPad*%
%ADD86C,4.26720*%
%ADD87C,0.96520*%
%ADD88C,1.47320*%
D82*
X8605894Y8102778D02*
D03*
X10795000Y6107995D02*
D03*
Y6357995D02*
D03*
Y6607995D02*
D03*
Y7107996D02*
D03*
Y7357996D02*
D03*
Y7607996D02*
D03*
X9024957Y9674703D02*
D03*
X4635500Y7088001D02*
D03*
Y6838001D02*
D03*
Y6588001D02*
D03*
Y6338000D02*
D03*
Y6088000D02*
D03*
Y5838000D02*
D03*
Y5588000D02*
D03*
Y9013800D02*
D03*
Y8763800D02*
D03*
Y8513800D02*
D03*
Y8263800D02*
D03*
Y8013799D02*
D03*
Y7763799D02*
D03*
Y10918800D02*
D03*
Y10668800D02*
D03*
Y10418800D02*
D03*
Y10168800D02*
D03*
Y9918799D02*
D03*
Y9668799D02*
D03*
Y9418799D02*
D03*
X9101900Y6705600D02*
D03*
X8601900D02*
D03*
X8382000Y10731500D02*
D03*
X8636000D02*
D03*
X8890000D02*
D03*
X9144000D02*
D03*
X9398000D02*
D03*
X9652000D02*
D03*
X9906000D02*
D03*
X10160000D02*
D03*
X9652000Y5778500D02*
D03*
X9398000D02*
D03*
X9144000D02*
D03*
X8890000D02*
D03*
X8636000D02*
D03*
X8382000D02*
D03*
X10795000Y10414000D02*
D03*
Y10160000D02*
D03*
Y9906000D02*
D03*
Y9652000D02*
D03*
Y9398000D02*
D03*
Y9144000D02*
D03*
Y8890000D02*
D03*
Y8636000D02*
D03*
D83*
X9098298Y8189602D02*
D03*
X10795000Y6857996D02*
D03*
X4635500Y7513799D02*
D03*
X5778500Y7870095D02*
D03*
X5524500D02*
D03*
Y6850380D02*
D03*
X5778500Y6858000D02*
D03*
Y9648095D02*
D03*
X5524500D02*
D03*
Y10664095D02*
D03*
X5803900D02*
D03*
X5524500Y8886095D02*
D03*
X5778500D02*
D03*
X5524500Y5842000D02*
D03*
X5778500D02*
D03*
X10160000Y5778500D02*
D03*
X9906000D02*
D03*
D84*
X8671403Y10028257D02*
D03*
D85*
X9625789Y7021689D02*
D03*
X10120764Y7516663D02*
D03*
X8975253Y8960013D02*
D03*
X9470227Y9454987D02*
D03*
X9473391Y7443991D02*
D03*
X9968365Y7938966D02*
D03*
D86*
X10985500Y5651500D02*
D03*
Y10858500D02*
D03*
X4000500D02*
D03*
Y5651500D02*
D03*
D87*
X10029966Y8328166D02*
D03*
X10018534Y8448530D02*
D03*
X6058421Y9212319D02*
D03*
X6045200Y9305283D02*
D03*
X6438900Y9906000D02*
D03*
Y10010846D02*
D03*
D88*
X5776778Y5518132D02*
D03*
X5649855Y5588005D02*
D03*
%TF.MD5,6bbb938ab46faf6bd67832899717cb73*%
M02*
