%TF.GenerationSoftware,Altium Limited,Altium Designer,20.0.13 (296)*%
G04 Layer_Color=65535*
%FSLAX45Y45*%
%MOMM*%
%TF.FileFunction,Legend,Top*%
%TF.Part,Single*%
G01*
G75*
%TA.AperFunction,NonConductor*%
%ADD68C,0.25400*%
%ADD80C,0.20000*%
%ADD81C,0.15000*%
%ADD89C,0.25000*%
%ADD90C,0.50000*%
D68*
X10411520Y7546651D02*
Y7470476D01*
X10449608D01*
X10462304Y7483171D01*
Y7533955D01*
X10449608Y7546651D01*
X10411520D01*
X10538479Y7470476D02*
X10487696D01*
X10538479Y7521259D01*
Y7533955D01*
X10525784Y7546651D01*
X10500392D01*
X10487696Y7533955D01*
X9359904Y6769088D02*
X9309121D01*
Y6731000D01*
X9334512D01*
X9309121D01*
Y6692912D01*
X9385296Y6756392D02*
X9397992Y6769088D01*
X9423384D01*
X9436079Y6756392D01*
Y6743696D01*
X9423384Y6731000D01*
X9410688D01*
X9423384D01*
X9436079Y6718304D01*
Y6705608D01*
X9423384Y6692912D01*
X9397992D01*
X9385296Y6705608D01*
X10439404Y9842492D02*
X10426708Y9855188D01*
X10401317D01*
X10388621Y9842492D01*
Y9791708D01*
X10401317Y9779012D01*
X10426708D01*
X10439404Y9791708D01*
X10464796Y9842492D02*
X10477492Y9855188D01*
X10502884D01*
X10515579Y9842492D01*
Y9829796D01*
X10502884Y9817100D01*
X10490188D01*
X10502884D01*
X10515579Y9804404D01*
Y9791708D01*
X10502884Y9779012D01*
X10477492D01*
X10464796Y9791708D01*
X9994904Y9855192D02*
X9982208Y9867888D01*
X9956817D01*
X9944121Y9855192D01*
Y9804408D01*
X9956817Y9791712D01*
X9982208D01*
X9994904Y9804408D01*
X10071079Y9791712D02*
X10020296D01*
X10071079Y9842496D01*
Y9855192D01*
X10058384Y9867888D01*
X10032992D01*
X10020296Y9855192D01*
X7213612Y6591321D02*
Y6642104D01*
Y6616712D01*
X7289788D01*
X7213612Y6718279D02*
X7226308Y6692888D01*
X7251700Y6667496D01*
X7277092D01*
X7289788Y6680192D01*
Y6705584D01*
X7277092Y6718279D01*
X7264396D01*
X7251700Y6705584D01*
Y6667496D01*
X5198124Y6533401D02*
X5261604D01*
X5274300Y6546097D01*
Y6571489D01*
X5261604Y6584185D01*
X5198124D01*
X5274300Y6647665D02*
X5198124D01*
X5236212Y6609577D01*
Y6660360D01*
X5226040Y6024061D02*
X5162560D01*
Y6055801D01*
X5173140Y6066381D01*
X5194300D01*
X5204880Y6055801D01*
Y6024061D01*
Y6045221D02*
X5226040Y6066381D01*
Y6119280D02*
X5162560D01*
X5194300Y6087540D01*
Y6129860D01*
X5226040Y6193339D02*
Y6151020D01*
X5183720Y6193339D01*
X5173140D01*
X5162560Y6182760D01*
Y6161600D01*
X5173140Y6151020D01*
X6064588Y6496433D02*
X5988412D01*
Y6534521D01*
X6001108Y6547217D01*
X6026500D01*
X6039196Y6534521D01*
Y6496433D01*
Y6521825D02*
X6064588Y6547217D01*
Y6610696D02*
X5988412D01*
X6026500Y6572608D01*
Y6623392D01*
X6001108Y6648784D02*
X5988412Y6661480D01*
Y6686872D01*
X6001108Y6699567D01*
X6051892D01*
X6064588Y6686872D01*
Y6661480D01*
X6051892Y6648784D01*
X6001108D01*
X4292617Y6997692D02*
X4279921Y7010388D01*
X4254529D01*
X4241833Y6997692D01*
Y6946908D01*
X4254529Y6934212D01*
X4279921D01*
X4292617Y6946908D01*
X4318008Y6997692D02*
X4330704Y7010388D01*
X4356096D01*
X4368792Y6997692D01*
Y6984996D01*
X4356096Y6972300D01*
X4343400D01*
X4356096D01*
X4368792Y6959604D01*
Y6946908D01*
X4356096Y6934212D01*
X4330704D01*
X4318008Y6946908D01*
X4394184D02*
X4406880Y6934212D01*
X4432272D01*
X4444967Y6946908D01*
Y6997692D01*
X4432272Y7010388D01*
X4406880D01*
X4394184Y6997692D01*
Y6984996D01*
X4406880Y6972300D01*
X4444967D01*
X5900297Y5941626D02*
X5889717Y5931047D01*
Y5909887D01*
X5900297Y5899307D01*
X5942616D01*
X5953196Y5909887D01*
Y5931047D01*
X5942616Y5941626D01*
X5900297Y5962786D02*
X5889717Y5973366D01*
Y5994526D01*
X5900297Y6005106D01*
X5910876D01*
X5921456Y5994526D01*
Y5983946D01*
Y5994526D01*
X5932036Y6005106D01*
X5942616D01*
X5953196Y5994526D01*
Y5973366D01*
X5942616Y5962786D01*
X5889717Y6026266D02*
Y6068585D01*
X5900297D01*
X5942616Y6026266D01*
X5953196D01*
X6337317Y5562592D02*
X6324621Y5575288D01*
X6299229D01*
X6286533Y5562592D01*
Y5511808D01*
X6299229Y5499112D01*
X6324621D01*
X6337317Y5511808D01*
X6362708Y5562592D02*
X6375404Y5575288D01*
X6400796D01*
X6413492Y5562592D01*
Y5549896D01*
X6400796Y5537200D01*
X6388100D01*
X6400796D01*
X6413492Y5524504D01*
Y5511808D01*
X6400796Y5499112D01*
X6375404D01*
X6362708Y5511808D01*
X6489667Y5575288D02*
X6464276Y5562592D01*
X6438884Y5537200D01*
Y5511808D01*
X6451580Y5499112D01*
X6476972D01*
X6489667Y5511808D01*
Y5524504D01*
X6476972Y5537200D01*
X6438884D01*
X8349945Y9234187D02*
X8337249Y9246883D01*
X8311857D01*
X8299161Y9234187D01*
Y9183404D01*
X8311857Y9170708D01*
X8337249D01*
X8349945Y9183404D01*
X8375337Y9170708D02*
X8400729D01*
X8388033D01*
Y9246883D01*
X8375337Y9234187D01*
X8489600Y9170708D02*
X8438816D01*
X8489600Y9221491D01*
Y9234187D01*
X8476904Y9246883D01*
X8451512D01*
X8438816Y9234187D01*
X8712204Y9880592D02*
X8699508Y9893288D01*
X8674117D01*
X8661421Y9880592D01*
Y9829808D01*
X8674117Y9817112D01*
X8699508D01*
X8712204Y9829808D01*
X8737596Y9893288D02*
X8788379D01*
Y9880592D01*
X8737596Y9829808D01*
Y9817112D01*
X10617192Y9804415D02*
X10604496Y9791720D01*
Y9766328D01*
X10617192Y9753632D01*
X10667976D01*
X10680672Y9766328D01*
Y9791720D01*
X10667976Y9804415D01*
X10680672Y9829807D02*
Y9855199D01*
Y9842503D01*
X10604496D01*
X10617192Y9829807D01*
X9067820Y7124688D02*
Y7061208D01*
X9080516Y7048512D01*
X9105908D01*
X9118604Y7061208D01*
Y7124688D01*
X9143996Y7111992D02*
X9156692Y7124688D01*
X9182083D01*
X9194779Y7111992D01*
Y7099296D01*
X9182083Y7086600D01*
X9169388D01*
X9182083D01*
X9194779Y7073904D01*
Y7061208D01*
X9182083Y7048512D01*
X9156692D01*
X9143996Y7061208D01*
X8010035Y9127021D02*
X8073515D01*
X8086211Y9139717D01*
Y9165109D01*
X8073515Y9177805D01*
X8010035D01*
X8086211Y9253980D02*
Y9203196D01*
X8035427Y9253980D01*
X8022731D01*
X8010035Y9241284D01*
Y9215892D01*
X8022731Y9203196D01*
X8017658Y10947417D02*
X8081137D01*
X8093833Y10960112D01*
Y10985504D01*
X8081137Y10998200D01*
X8017658D01*
X8093833Y11023592D02*
Y11048984D01*
Y11036288D01*
X8017658D01*
X8030354Y11023592D01*
X7212321Y5886234D02*
Y5937018D01*
Y5911626D01*
X7288497D01*
X7225017Y5962409D02*
X7212321Y5975105D01*
Y6000497D01*
X7225017Y6013193D01*
X7237713D01*
X7250409Y6000497D01*
X7263105Y6013193D01*
X7275801D01*
X7288497Y6000497D01*
Y5975105D01*
X7275801Y5962409D01*
X7263105D01*
X7250409Y5975105D01*
X7237713Y5962409D01*
X7225017D01*
X7250409Y5975105D02*
Y6000497D01*
X5143521Y5587988D02*
X5194304D01*
X5168912D01*
Y5511812D01*
X5219696Y5587988D02*
X5270479D01*
Y5575292D01*
X5219696Y5524508D01*
Y5511812D01*
X5308621Y8699488D02*
X5359404D01*
X5334012D01*
Y8623312D01*
X5435579Y8699488D02*
X5384796D01*
Y8661400D01*
X5410188Y8674096D01*
X5422884D01*
X5435579Y8661400D01*
Y8636008D01*
X5422884Y8623312D01*
X5397492D01*
X5384796Y8636008D01*
X5537221Y9283688D02*
X5588004D01*
X5562612D01*
Y9207512D01*
X5651484D02*
Y9283688D01*
X5613396Y9245600D01*
X5664179D01*
X5905521Y7619988D02*
X5956304D01*
X5930912D01*
Y7543812D01*
X5981696Y7607292D02*
X5994392Y7619988D01*
X6019784D01*
X6032479Y7607292D01*
Y7594596D01*
X6019784Y7581900D01*
X6007088D01*
X6019784D01*
X6032479Y7569204D01*
Y7556508D01*
X6019784Y7543812D01*
X5994392D01*
X5981696Y7556508D01*
X4993921Y10425656D02*
X5044704D01*
X5019313D01*
Y10349480D01*
X5120880D02*
X5070096D01*
X5120880Y10400264D01*
Y10412960D01*
X5108184Y10425656D01*
X5082792D01*
X5070096Y10412960D01*
X10196917Y9676529D02*
X10247700D01*
X10222308D01*
Y9600354D01*
X10273092D02*
X10298484D01*
X10285788D01*
Y9676529D01*
X10273092Y9663833D01*
X3937033Y6019812D02*
Y6095988D01*
X3975121D01*
X3987817Y6083292D01*
Y6057900D01*
X3975121Y6045204D01*
X3937033D01*
X3962425D02*
X3987817Y6019812D01*
X4051296D02*
Y6095988D01*
X4013208Y6057900D01*
X4063992D01*
X4089384Y6095988D02*
X4140167D01*
Y6083292D01*
X4089384Y6032508D01*
Y6019812D01*
X4813333Y5549912D02*
Y5626088D01*
X4851421D01*
X4864117Y5613392D01*
Y5588000D01*
X4851421Y5575304D01*
X4813333D01*
X4838725D02*
X4864117Y5549912D01*
X4927596D02*
Y5626088D01*
X4889508Y5588000D01*
X4940292D01*
X5016467Y5626088D02*
X4991076Y5613392D01*
X4965684Y5588000D01*
Y5562608D01*
X4978380Y5549912D01*
X5003772D01*
X5016467Y5562608D01*
Y5575304D01*
X5003772Y5588000D01*
X4965684D01*
X4830368Y6226506D02*
X4766888D01*
Y6258246D01*
X4777468Y6268826D01*
X4798628D01*
X4809208Y6258246D01*
Y6226506D01*
Y6247666D02*
X4830368Y6268826D01*
Y6321725D02*
X4766888D01*
X4798628Y6289986D01*
Y6332305D01*
X4766888Y6395785D02*
Y6353465D01*
X4798628D01*
X4788048Y6374625D01*
Y6385205D01*
X4798628Y6395785D01*
X4819788D01*
X4830368Y6385205D01*
Y6364045D01*
X4819788Y6353465D01*
X3937033Y6210312D02*
Y6286488D01*
X3975121D01*
X3987817Y6273792D01*
Y6248400D01*
X3975121Y6235704D01*
X3937033D01*
X3962425D02*
X3987817Y6210312D01*
X4051296D02*
Y6286488D01*
X4013208Y6248400D01*
X4063992D01*
X4089384Y6273792D02*
X4102080Y6286488D01*
X4127472D01*
X4140167Y6273792D01*
Y6261096D01*
X4127472Y6248400D01*
X4114776D01*
X4127472D01*
X4140167Y6235704D01*
Y6223008D01*
X4127472Y6210312D01*
X4102080D01*
X4089384Y6223008D01*
X6045233Y6184912D02*
Y6261088D01*
X6083321D01*
X6096017Y6248392D01*
Y6223000D01*
X6083321Y6210304D01*
X6045233D01*
X6070625D02*
X6096017Y6184912D01*
X6159496D02*
Y6261088D01*
X6121408Y6223000D01*
X6172192D01*
X6235672Y6184912D02*
Y6261088D01*
X6197584Y6223000D01*
X6248367D01*
X5211270Y6260141D02*
X5147790D01*
Y6291880D01*
X5158370Y6302460D01*
X5179530D01*
X5190110Y6291880D01*
Y6260141D01*
Y6281300D02*
X5211270Y6302460D01*
Y6355360D02*
X5147790D01*
X5179530Y6323620D01*
Y6365940D01*
X5211270Y6387099D02*
Y6408259D01*
Y6397679D01*
X5147790D01*
X5158370Y6387099D01*
X8284609Y6798955D02*
X8208433D01*
Y6837043D01*
X8221129Y6849738D01*
X8246521D01*
X8259217Y6837043D01*
Y6798955D01*
Y6824347D02*
X8284609Y6849738D01*
X8221129Y6875130D02*
X8208433Y6887826D01*
Y6913218D01*
X8221129Y6925914D01*
X8233825D01*
X8246521Y6913218D01*
Y6900522D01*
Y6913218D01*
X8259217Y6925914D01*
X8271913D01*
X8284609Y6913218D01*
Y6887826D01*
X8271913Y6875130D01*
Y6951306D02*
X8284609Y6964002D01*
Y6989393D01*
X8271913Y7002089D01*
X8221129D01*
X8208433Y6989393D01*
Y6964002D01*
X8221129Y6951306D01*
X8233825D01*
X8246521Y6964002D01*
Y7002089D01*
X8445488Y7543833D02*
X8369312D01*
Y7581921D01*
X8382008Y7594617D01*
X8407400D01*
X8420096Y7581921D01*
Y7543833D01*
Y7569225D02*
X8445488Y7594617D01*
X8382008Y7620008D02*
X8369312Y7632704D01*
Y7658096D01*
X8382008Y7670792D01*
X8394704D01*
X8407400Y7658096D01*
Y7645400D01*
Y7658096D01*
X8420096Y7670792D01*
X8432792D01*
X8445488Y7658096D01*
Y7632704D01*
X8432792Y7620008D01*
X8382008Y7696184D02*
X8369312Y7708880D01*
Y7734272D01*
X8382008Y7746967D01*
X8394704D01*
X8407400Y7734272D01*
X8420096Y7746967D01*
X8432792D01*
X8445488Y7734272D01*
Y7708880D01*
X8432792Y7696184D01*
X8420096D01*
X8407400Y7708880D01*
X8394704Y7696184D01*
X8382008D01*
X8407400Y7708880D02*
Y7734272D01*
X5774036Y7026801D02*
Y7102977D01*
X5812124D01*
X5824819Y7090281D01*
Y7064889D01*
X5812124Y7052193D01*
X5774036D01*
X5799428D02*
X5824819Y7026801D01*
X5850211Y7090281D02*
X5862907Y7102977D01*
X5888299D01*
X5900995Y7090281D01*
Y7077585D01*
X5888299Y7064889D01*
X5875603D01*
X5888299D01*
X5900995Y7052193D01*
Y7039497D01*
X5888299Y7026801D01*
X5862907D01*
X5850211Y7039497D01*
X5926387Y7102977D02*
X5977170D01*
Y7090281D01*
X5926387Y7039497D01*
Y7026801D01*
X6235688Y6489733D02*
X6159512D01*
Y6527821D01*
X6172208Y6540517D01*
X6197600D01*
X6210296Y6527821D01*
Y6489733D01*
Y6515125D02*
X6235688Y6540517D01*
X6172208Y6565908D02*
X6159512Y6578604D01*
Y6603996D01*
X6172208Y6616692D01*
X6184904D01*
X6197600Y6603996D01*
Y6591300D01*
Y6603996D01*
X6210296Y6616692D01*
X6222992D01*
X6235688Y6603996D01*
Y6578604D01*
X6222992Y6565908D01*
X6159512Y6692867D02*
X6172208Y6667476D01*
X6197600Y6642084D01*
X6222992D01*
X6235688Y6654780D01*
Y6680172D01*
X6222992Y6692867D01*
X6210296D01*
X6197600Y6680172D01*
Y6642084D01*
X5765833Y5524512D02*
Y5600688D01*
X5803921D01*
X5816617Y5587992D01*
Y5562600D01*
X5803921Y5549904D01*
X5765833D01*
X5791225D02*
X5816617Y5524512D01*
X5842008Y5587992D02*
X5854704Y5600688D01*
X5880096D01*
X5892792Y5587992D01*
Y5575296D01*
X5880096Y5562600D01*
X5867400D01*
X5880096D01*
X5892792Y5549904D01*
Y5537208D01*
X5880096Y5524512D01*
X5854704D01*
X5842008Y5537208D01*
X5968967Y5600688D02*
X5918184D01*
Y5562600D01*
X5943576Y5575296D01*
X5956272D01*
X5968967Y5562600D01*
Y5537208D01*
X5956272Y5524512D01*
X5930880D01*
X5918184Y5537208D01*
X3937033Y6565912D02*
Y6642088D01*
X3975121D01*
X3987817Y6629392D01*
Y6604000D01*
X3975121Y6591304D01*
X3937033D01*
X3962425D02*
X3987817Y6565912D01*
X4013208Y6629392D02*
X4025904Y6642088D01*
X4051296D01*
X4063992Y6629392D01*
Y6616696D01*
X4051296Y6604000D01*
X4038600D01*
X4051296D01*
X4063992Y6591304D01*
Y6578608D01*
X4051296Y6565912D01*
X4025904D01*
X4013208Y6578608D01*
X4127472Y6565912D02*
Y6642088D01*
X4089384Y6604000D01*
X4140167D01*
X4813600Y6682432D02*
Y6745912D01*
X4845340D01*
X4855919Y6735332D01*
Y6714172D01*
X4845340Y6703592D01*
X4813600D01*
X4834759D02*
X4855919Y6682432D01*
X4877079Y6735332D02*
X4887659Y6745912D01*
X4908819D01*
X4919399Y6735332D01*
Y6724752D01*
X4908819Y6714172D01*
X4898239D01*
X4908819D01*
X4919399Y6703592D01*
Y6693012D01*
X4908819Y6682432D01*
X4887659D01*
X4877079Y6693012D01*
X4940559Y6735332D02*
X4951138Y6745912D01*
X4972298D01*
X4982878Y6735332D01*
Y6724752D01*
X4972298Y6714172D01*
X4961718D01*
X4972298D01*
X4982878Y6703592D01*
Y6693012D01*
X4972298Y6682432D01*
X4951138D01*
X4940559Y6693012D01*
X4775229Y10922012D02*
Y10998188D01*
X4813317D01*
X4826012Y10985492D01*
Y10960100D01*
X4813317Y10947404D01*
X4775229D01*
X4800621D02*
X4826012Y10922012D01*
X4851404Y10985492D02*
X4864100Y10998188D01*
X4889492D01*
X4902188Y10985492D01*
Y10972796D01*
X4889492Y10960100D01*
X4876796D01*
X4889492D01*
X4902188Y10947404D01*
Y10934708D01*
X4889492Y10922012D01*
X4864100D01*
X4851404Y10934708D01*
X4927579Y10922012D02*
X4952971D01*
X4940275D01*
Y10998188D01*
X4927579Y10985492D01*
X6019788Y9359933D02*
X5943612D01*
Y9398021D01*
X5956308Y9410717D01*
X5981700D01*
X5994396Y9398021D01*
Y9359933D01*
Y9385325D02*
X6019788Y9410717D01*
X5956308Y9436108D02*
X5943612Y9448804D01*
Y9474196D01*
X5956308Y9486892D01*
X5969004D01*
X5981700Y9474196D01*
Y9461500D01*
Y9474196D01*
X5994396Y9486892D01*
X6007092D01*
X6019788Y9474196D01*
Y9448804D01*
X6007092Y9436108D01*
X5956308Y9512284D02*
X5943612Y9524980D01*
Y9550372D01*
X5956308Y9563067D01*
X6007092D01*
X6019788Y9550372D01*
Y9524980D01*
X6007092Y9512284D01*
X5956308D01*
X5092733Y10947412D02*
Y11023588D01*
X5130821D01*
X5143517Y11010892D01*
Y10985500D01*
X5130821Y10972804D01*
X5092733D01*
X5118125D02*
X5143517Y10947412D01*
X5219692D02*
X5168908D01*
X5219692Y10998196D01*
Y11010892D01*
X5206996Y11023588D01*
X5181604D01*
X5168908Y11010892D01*
X5245084Y10960108D02*
X5257780Y10947412D01*
X5283172D01*
X5295867Y10960108D01*
Y11010892D01*
X5283172Y11023588D01*
X5257780D01*
X5245084Y11010892D01*
Y10998196D01*
X5257780Y10985500D01*
X5295867D01*
X4813333Y8483612D02*
Y8559788D01*
X4851421D01*
X4864117Y8547092D01*
Y8521700D01*
X4851421Y8509004D01*
X4813333D01*
X4838725D02*
X4864117Y8483612D01*
X4940292D02*
X4889508D01*
X4940292Y8534396D01*
Y8547092D01*
X4927596Y8559788D01*
X4902204D01*
X4889508Y8547092D01*
X4965684D02*
X4978380Y8559788D01*
X5003772D01*
X5016467Y8547092D01*
Y8534396D01*
X5003772Y8521700D01*
X5016467Y8509004D01*
Y8496308D01*
X5003772Y8483612D01*
X4978380D01*
X4965684Y8496308D01*
Y8509004D01*
X4978380Y8521700D01*
X4965684Y8534396D01*
Y8547092D01*
X4978380Y8521700D02*
X5003772D01*
X5461033Y8458212D02*
Y8534388D01*
X5499121D01*
X5511817Y8521692D01*
Y8496300D01*
X5499121Y8483604D01*
X5461033D01*
X5486425D02*
X5511817Y8458212D01*
X5587992D02*
X5537208D01*
X5587992Y8508996D01*
Y8521692D01*
X5575296Y8534388D01*
X5549904D01*
X5537208Y8521692D01*
X5613384Y8534388D02*
X5664167D01*
Y8521692D01*
X5613384Y8470908D01*
Y8458212D01*
X5067333Y10502912D02*
Y10579088D01*
X5105421D01*
X5118117Y10566392D01*
Y10541000D01*
X5105421Y10528304D01*
X5067333D01*
X5092725D02*
X5118117Y10502912D01*
X5194292D02*
X5143508D01*
X5194292Y10553696D01*
Y10566392D01*
X5181596Y10579088D01*
X5156204D01*
X5143508Y10566392D01*
X5270467Y10579088D02*
X5245076Y10566392D01*
X5219684Y10541000D01*
Y10515608D01*
X5232380Y10502912D01*
X5257772D01*
X5270467Y10515608D01*
Y10528304D01*
X5257772Y10541000D01*
X5219684D01*
X5119818Y8112769D02*
Y8168631D01*
X5147748D01*
X5157059Y8159321D01*
Y8140700D01*
X5147748Y8131390D01*
X5119818D01*
X5138438D02*
X5157059Y8112769D01*
X5212921D02*
X5175680D01*
X5212921Y8150010D01*
Y8159321D01*
X5203610Y8168631D01*
X5184990D01*
X5175680Y8159321D01*
X5268783Y8168631D02*
X5231541D01*
Y8140700D01*
X5250162Y8150010D01*
X5259472D01*
X5268783Y8140700D01*
Y8122080D01*
X5259472Y8112769D01*
X5240852D01*
X5231541Y8122080D01*
X4737133Y9131312D02*
Y9207488D01*
X4775221D01*
X4787917Y9194792D01*
Y9169400D01*
X4775221Y9156704D01*
X4737133D01*
X4762525D02*
X4787917Y9131312D01*
X4864092D02*
X4813308D01*
X4864092Y9182096D01*
Y9194792D01*
X4851396Y9207488D01*
X4826004D01*
X4813308Y9194792D01*
X4927572Y9131312D02*
Y9207488D01*
X4889484Y9169400D01*
X4940267D01*
X5016533Y9105912D02*
Y9182088D01*
X5054621D01*
X5067317Y9169392D01*
Y9144000D01*
X5054621Y9131304D01*
X5016533D01*
X5041925D02*
X5067317Y9105912D01*
X5143492D02*
X5092708D01*
X5143492Y9156696D01*
Y9169392D01*
X5130796Y9182088D01*
X5105404D01*
X5092708Y9169392D01*
X5168884D02*
X5181580Y9182088D01*
X5206972D01*
X5219667Y9169392D01*
Y9156696D01*
X5206972Y9144000D01*
X5194276D01*
X5206972D01*
X5219667Y9131304D01*
Y9118608D01*
X5206972Y9105912D01*
X5181580D01*
X5168884Y9118608D01*
X6046756Y9790006D02*
X5970581D01*
Y9828094D01*
X5983277Y9840790D01*
X6008668D01*
X6021364Y9828094D01*
Y9790006D01*
Y9815398D02*
X6046756Y9840790D01*
Y9916965D02*
Y9866181D01*
X5995973Y9916965D01*
X5983277D01*
X5970581Y9904269D01*
Y9878877D01*
X5983277Y9866181D01*
X6046756Y9993140D02*
Y9942357D01*
X5995973Y9993140D01*
X5983277D01*
X5970581Y9980445D01*
Y9955053D01*
X5983277Y9942357D01*
X5330352Y9328939D02*
X5254177D01*
Y9367027D01*
X5266873Y9379722D01*
X5292264D01*
X5304960Y9367027D01*
Y9328939D01*
Y9354331D02*
X5330352Y9379722D01*
Y9455898D02*
Y9405114D01*
X5279569Y9455898D01*
X5266873D01*
X5254177Y9443202D01*
Y9417810D01*
X5266873Y9405114D01*
X5330352Y9481290D02*
Y9506682D01*
Y9493986D01*
X5254177D01*
X5266873Y9481290D01*
X4994014Y8686312D02*
Y8762488D01*
X5032102D01*
X5044798Y8749792D01*
Y8724400D01*
X5032102Y8711704D01*
X4994014D01*
X5019406D02*
X5044798Y8686312D01*
X5120973D02*
X5070190D01*
X5120973Y8737096D01*
Y8749792D01*
X5108278Y8762488D01*
X5082886D01*
X5070190Y8749792D01*
X5146365D02*
X5159061Y8762488D01*
X5184453D01*
X5197149Y8749792D01*
Y8699008D01*
X5184453Y8686312D01*
X5159061D01*
X5146365Y8699008D01*
Y8749792D01*
X6146788Y7740681D02*
X6070612D01*
Y7778769D01*
X6083308Y7791464D01*
X6108700D01*
X6121396Y7778769D01*
Y7740681D01*
Y7766073D02*
X6146788Y7791464D01*
Y7816856D02*
Y7842248D01*
Y7829552D01*
X6070612D01*
X6083308Y7816856D01*
X6134092Y7880336D02*
X6146788Y7893032D01*
Y7918424D01*
X6134092Y7931119D01*
X6083308D01*
X6070612Y7918424D01*
Y7893032D01*
X6083308Y7880336D01*
X6096004D01*
X6108700Y7893032D01*
Y7931119D01*
X6057888Y8058181D02*
X5981712D01*
Y8096269D01*
X5994408Y8108964D01*
X6019800D01*
X6032496Y8096269D01*
Y8058181D01*
Y8083573D02*
X6057888Y8108964D01*
Y8134356D02*
Y8159748D01*
Y8147052D01*
X5981712D01*
X5994408Y8134356D01*
Y8197836D02*
X5981712Y8210532D01*
Y8235924D01*
X5994408Y8248619D01*
X6007104D01*
X6019800Y8235924D01*
X6032496Y8248619D01*
X6045192D01*
X6057888Y8235924D01*
Y8210532D01*
X6045192Y8197836D01*
X6032496D01*
X6019800Y8210532D01*
X6007104Y8197836D01*
X5994408D01*
X6019800Y8210532D02*
Y8235924D01*
X5232388Y9607581D02*
X5156212D01*
Y9645669D01*
X5168908Y9658364D01*
X5194300D01*
X5206996Y9645669D01*
Y9607581D01*
Y9632973D02*
X5232388Y9658364D01*
Y9683756D02*
Y9709148D01*
Y9696452D01*
X5156212D01*
X5168908Y9683756D01*
X5156212Y9747236D02*
Y9798019D01*
X5168908D01*
X5219692Y9747236D01*
X5232388D01*
X5238773Y7579369D02*
Y7635231D01*
X5266703D01*
X5276014Y7625921D01*
Y7607300D01*
X5266703Y7597990D01*
X5238773D01*
X5257393D02*
X5276014Y7579369D01*
X5294635D02*
X5313255D01*
X5303945D01*
Y7635231D01*
X5294635Y7625921D01*
X5378427Y7635231D02*
X5359807Y7625921D01*
X5341186Y7607300D01*
Y7588680D01*
X5350497Y7579369D01*
X5369117D01*
X5378427Y7588680D01*
Y7597990D01*
X5369117Y7607300D01*
X5341186D01*
X4860281Y9748451D02*
Y9824627D01*
X4898369D01*
X4911065Y9811931D01*
Y9786539D01*
X4898369Y9773843D01*
X4860281D01*
X4885673D02*
X4911065Y9748451D01*
X4936456D02*
X4961848D01*
X4949152D01*
Y9824627D01*
X4936456Y9811931D01*
X5050719Y9824627D02*
X4999936D01*
Y9786539D01*
X5025328Y9799235D01*
X5038024D01*
X5050719Y9786539D01*
Y9761147D01*
X5038024Y9748451D01*
X5012632D01*
X4999936Y9761147D01*
X6032488Y8413781D02*
X5956312D01*
Y8451869D01*
X5969008Y8464564D01*
X5994400D01*
X6007096Y8451869D01*
Y8413781D01*
Y8439173D02*
X6032488Y8464564D01*
Y8489956D02*
Y8515348D01*
Y8502652D01*
X5956312D01*
X5969008Y8489956D01*
X6032488Y8591524D02*
X5956312D01*
X5994400Y8553436D01*
Y8604219D01*
X5879752Y10136290D02*
X5803576D01*
Y10174377D01*
X5816272Y10187073D01*
X5841664D01*
X5854360Y10174377D01*
Y10136290D01*
Y10161681D02*
X5879752Y10187073D01*
Y10212465D02*
Y10237857D01*
Y10225161D01*
X5803576D01*
X5816272Y10212465D01*
Y10275944D02*
X5803576Y10288640D01*
Y10314032D01*
X5816272Y10326728D01*
X5828968D01*
X5841664Y10314032D01*
Y10301336D01*
Y10314032D01*
X5854360Y10326728D01*
X5867056D01*
X5879752Y10314032D01*
Y10288640D01*
X5867056Y10275944D01*
X5302273Y7744469D02*
Y7800331D01*
X5330203D01*
X5339514Y7791021D01*
Y7772400D01*
X5330203Y7763090D01*
X5302273D01*
X5320893D02*
X5339514Y7744469D01*
X5358135D02*
X5376755D01*
X5367445D01*
Y7800331D01*
X5358135Y7791021D01*
X5441927Y7744469D02*
X5404686D01*
X5441927Y7781710D01*
Y7791021D01*
X5432617Y7800331D01*
X5413997D01*
X5404686Y7791021D01*
X5503215Y9769852D02*
Y9846027D01*
X5541303D01*
X5553999Y9833331D01*
Y9807940D01*
X5541303Y9795244D01*
X5503215D01*
X5528607D02*
X5553999Y9769852D01*
X5579390D02*
X5604782D01*
X5592086D01*
Y9846027D01*
X5579390Y9833331D01*
X5642870Y9769852D02*
X5668262D01*
X5655566D01*
Y9846027D01*
X5642870Y9833331D01*
X5505481Y10236212D02*
Y10312388D01*
X5543569D01*
X5556264Y10299692D01*
Y10274300D01*
X5543569Y10261604D01*
X5505481D01*
X5530873D02*
X5556264Y10236212D01*
X5581656D02*
X5607048D01*
X5594352D01*
Y10312388D01*
X5581656Y10299692D01*
X5645136D02*
X5657832Y10312388D01*
X5683224D01*
X5695919Y10299692D01*
Y10248908D01*
X5683224Y10236212D01*
X5657832D01*
X5645136Y10248908D01*
Y10299692D01*
X4825987Y7823221D02*
X4749812D01*
Y7861309D01*
X4762508Y7874004D01*
X4787899D01*
X4800595Y7861309D01*
Y7823221D01*
Y7848613D02*
X4825987Y7874004D01*
X4813291Y7899396D02*
X4825987Y7912092D01*
Y7937484D01*
X4813291Y7950180D01*
X4762508D01*
X4749812Y7937484D01*
Y7912092D01*
X4762508Y7899396D01*
X4775204D01*
X4787899Y7912092D01*
Y7950180D01*
X5727733Y9144012D02*
Y9220188D01*
X5765821D01*
X5778517Y9207492D01*
Y9182100D01*
X5765821Y9169404D01*
X5727733D01*
X5753125D02*
X5778517Y9144012D01*
X5803908Y9207492D02*
X5816604Y9220188D01*
X5841996D01*
X5854692Y9207492D01*
Y9194796D01*
X5841996Y9182100D01*
X5829300D01*
X5841996D01*
X5854692Y9169404D01*
Y9156708D01*
X5841996Y9144012D01*
X5816604D01*
X5803908Y9156708D01*
X5930867Y9144012D02*
X5880084D01*
X5930867Y9194796D01*
Y9207492D01*
X5918172Y9220188D01*
X5892780D01*
X5880084Y9207492D01*
X4787921Y9334512D02*
Y9410688D01*
X4826008D01*
X4838704Y9397992D01*
Y9372600D01*
X4826008Y9359904D01*
X4787921D01*
X4813312D02*
X4838704Y9334512D01*
X4864096Y9397992D02*
X4876792Y9410688D01*
X4902184D01*
X4914879Y9397992D01*
Y9385296D01*
X4902184Y9372600D01*
X4914879Y9359904D01*
Y9347208D01*
X4902184Y9334512D01*
X4876792D01*
X4864096Y9347208D01*
Y9359904D01*
X4876792Y9372600D01*
X4864096Y9385296D01*
Y9397992D01*
X4876792Y9372600D02*
X4902184D01*
X5410187Y8851921D02*
X5334012D01*
Y8890009D01*
X5346708Y8902704D01*
X5372099D01*
X5384795Y8890009D01*
Y8851921D01*
Y8877313D02*
X5410187Y8902704D01*
X5334012Y8978880D02*
X5346708Y8953488D01*
X5372099Y8928096D01*
X5397491D01*
X5410187Y8940792D01*
Y8966184D01*
X5397491Y8978880D01*
X5384795D01*
X5372099Y8966184D01*
Y8928096D01*
X4825988Y8064521D02*
X4749812D01*
Y8102608D01*
X4762508Y8115304D01*
X4787900D01*
X4800596Y8102608D01*
Y8064521D01*
Y8089912D02*
X4825988Y8115304D01*
X4749812Y8140696D02*
Y8191479D01*
X4762508D01*
X4813292Y8140696D01*
X4825988D01*
X5905521Y10858512D02*
Y10934688D01*
X5943608D01*
X5956304Y10921992D01*
Y10896600D01*
X5943608Y10883904D01*
X5905521D01*
X5930912D02*
X5956304Y10858512D01*
X6032479Y10934688D02*
X5981696D01*
Y10896600D01*
X6007088Y10909296D01*
X6019784D01*
X6032479Y10896600D01*
Y10871208D01*
X6019784Y10858512D01*
X5994392D01*
X5981696Y10871208D01*
X5458207Y10955564D02*
Y11031739D01*
X5496295D01*
X5508991Y11019043D01*
Y10993652D01*
X5496295Y10980956D01*
X5458207D01*
X5483599D02*
X5508991Y10955564D01*
X5572470D02*
Y11031739D01*
X5534382Y10993652D01*
X5585166D01*
X5511821Y8013712D02*
Y8089888D01*
X5549908D01*
X5562604Y8077192D01*
Y8051800D01*
X5549908Y8039104D01*
X5511821D01*
X5537212D02*
X5562604Y8013712D01*
X5638779D02*
X5587996D01*
X5638779Y8064496D01*
Y8077192D01*
X5626084Y8089888D01*
X5600692D01*
X5587996Y8077192D01*
X4813321Y10185412D02*
Y10261588D01*
X4851408D01*
X4864104Y10248892D01*
Y10223500D01*
X4851408Y10210804D01*
X4813321D01*
X4838712D02*
X4864104Y10185412D01*
X4889496Y10248892D02*
X4902192Y10261588D01*
X4927584D01*
X4940279Y10248892D01*
Y10236196D01*
X4927584Y10223500D01*
X4914888D01*
X4927584D01*
X4940279Y10210804D01*
Y10198108D01*
X4927584Y10185412D01*
X4902192D01*
X4889496Y10198108D01*
X5042454Y9889516D02*
X4966279D01*
Y9927604D01*
X4978975Y9940300D01*
X5004366D01*
X5017062Y9927604D01*
Y9889516D01*
Y9914908D02*
X5042454Y9940300D01*
Y9965692D02*
Y9991084D01*
Y9978388D01*
X4966279D01*
X4978975Y9965692D01*
X7531117Y7454888D02*
Y7378712D01*
X7581900D01*
X7607292D02*
X7632684D01*
X7619988D01*
Y7454888D01*
X7607292Y7442192D01*
X5438972Y7114296D02*
X5464364D01*
X5451668D01*
Y7038121D01*
X5438972D01*
X5464364D01*
X5553235Y7101600D02*
X5540540Y7114296D01*
X5515148D01*
X5502452Y7101600D01*
Y7050817D01*
X5515148Y7038121D01*
X5540540D01*
X5553235Y7050817D01*
X5578627Y7038121D02*
X5604019D01*
X5591323D01*
Y7114296D01*
X5578627Y7101600D01*
X9245621Y6616688D02*
Y6540512D01*
X9283708D01*
X9296404Y6553208D01*
Y6603992D01*
X9283708Y6616688D01*
X9245621D01*
X9372579D02*
X9347188Y6603992D01*
X9321796Y6578600D01*
Y6553208D01*
X9334492Y6540512D01*
X9359884D01*
X9372579Y6553208D01*
Y6565904D01*
X9359884Y6578600D01*
X9321796D01*
X9893321Y6591288D02*
Y6515112D01*
X9931408D01*
X9944104Y6527808D01*
Y6578592D01*
X9931408Y6591288D01*
X9893321D01*
X10020279D02*
X9969496D01*
Y6553200D01*
X9994888Y6565896D01*
X10007584D01*
X10020279Y6553200D01*
Y6527808D01*
X10007584Y6515112D01*
X9982192D01*
X9969496Y6527808D01*
X7899421Y5918188D02*
Y5842012D01*
X7937508D01*
X7950204Y5854708D01*
Y5905492D01*
X7937508Y5918188D01*
X7899421D01*
X8013684Y5842012D02*
Y5918188D01*
X7975596Y5880100D01*
X8026379D01*
X10906521Y6522985D02*
Y6446810D01*
X10944609D01*
X10957304Y6459506D01*
Y6510289D01*
X10944609Y6522985D01*
X10906521D01*
X10982696Y6510289D02*
X10995392Y6522985D01*
X11020784D01*
X11033480Y6510289D01*
Y6497593D01*
X11020784Y6484898D01*
X11008088D01*
X11020784D01*
X11033480Y6472202D01*
Y6459506D01*
X11020784Y6446810D01*
X10995392D01*
X10982696Y6459506D01*
X10109212Y8204217D02*
X10185388D01*
Y8242304D01*
X10172692Y8255000D01*
X10121908D01*
X10109212Y8242304D01*
Y8204217D01*
X10185388Y8280392D02*
Y8305784D01*
Y8293088D01*
X10109212D01*
X10121908Y8280392D01*
X8491203Y5885159D02*
X8478508Y5897855D01*
X8453116D01*
X8440420Y5885159D01*
Y5834376D01*
X8453116Y5821680D01*
X8478508D01*
X8491203Y5834376D01*
X8554683Y5821680D02*
Y5897855D01*
X8516595Y5859768D01*
X8567379D01*
X8592771Y5821680D02*
X8618163D01*
X8605467D01*
Y5897855D01*
X8592771Y5885159D01*
X9522443D02*
X9509748Y5897855D01*
X9484356D01*
X9471660Y5885159D01*
Y5834376D01*
X9484356Y5821680D01*
X9509748D01*
X9522443Y5834376D01*
X9585923Y5821680D02*
Y5897855D01*
X9547835Y5859768D01*
X9598619D01*
X9624011Y5885159D02*
X9636707Y5897855D01*
X9662099D01*
X9674794Y5885159D01*
Y5834376D01*
X9662099Y5821680D01*
X9636707D01*
X9624011Y5834376D01*
Y5885159D01*
X8557707Y7599177D02*
X8545012Y7611873D01*
X8519620D01*
X8506924Y7599177D01*
Y7548393D01*
X8519620Y7535697D01*
X8545012D01*
X8557707Y7548393D01*
X8583099Y7599177D02*
X8595795Y7611873D01*
X8621187D01*
X8633883Y7599177D01*
Y7586481D01*
X8621187Y7573785D01*
X8608491D01*
X8621187D01*
X8633883Y7561089D01*
Y7548393D01*
X8621187Y7535697D01*
X8595795D01*
X8583099Y7548393D01*
X8710058Y7611873D02*
X8659275D01*
Y7573785D01*
X8684666Y7586481D01*
X8697362D01*
X8710058Y7573785D01*
Y7548393D01*
X8697362Y7535697D01*
X8671970D01*
X8659275Y7548393D01*
X8216908Y7581917D02*
X8204212Y7569221D01*
Y7543829D01*
X8216908Y7531133D01*
X8267692D01*
X8280388Y7543829D01*
Y7569221D01*
X8267692Y7581917D01*
X8216908Y7607308D02*
X8204212Y7620004D01*
Y7645396D01*
X8216908Y7658092D01*
X8229604D01*
X8242300Y7645396D01*
Y7632700D01*
Y7645396D01*
X8254996Y7658092D01*
X8267692D01*
X8280388Y7645396D01*
Y7620004D01*
X8267692Y7607308D01*
X8280388Y7721572D02*
X8204212D01*
X8242300Y7683484D01*
Y7734267D01*
X8836044Y7599497D02*
X8823349Y7612193D01*
X8797957D01*
X8785261Y7599497D01*
Y7548713D01*
X8797957Y7536017D01*
X8823349D01*
X8836044Y7548713D01*
X8861436Y7599497D02*
X8874132Y7612193D01*
X8899524D01*
X8912220Y7599497D01*
Y7586801D01*
X8899524Y7574105D01*
X8886828D01*
X8899524D01*
X8912220Y7561409D01*
Y7548713D01*
X8899524Y7536017D01*
X8874132D01*
X8861436Y7548713D01*
X8937612Y7599497D02*
X8950307Y7612193D01*
X8975699D01*
X8988395Y7599497D01*
Y7586801D01*
X8975699Y7574105D01*
X8963003D01*
X8975699D01*
X8988395Y7561409D01*
Y7548713D01*
X8975699Y7536017D01*
X8950307D01*
X8937612Y7548713D01*
X5575317Y7492992D02*
X5562621Y7505688D01*
X5537229D01*
X5524533Y7492992D01*
Y7442208D01*
X5537229Y7429512D01*
X5562621D01*
X5575317Y7442208D01*
X5600708Y7492992D02*
X5613404Y7505688D01*
X5638796D01*
X5651492Y7492992D01*
Y7480296D01*
X5638796Y7467600D01*
X5626100D01*
X5638796D01*
X5651492Y7454904D01*
Y7442208D01*
X5638796Y7429512D01*
X5613404D01*
X5600708Y7442208D01*
X5727667Y7429512D02*
X5676884D01*
X5727667Y7480296D01*
Y7492992D01*
X5714972Y7505688D01*
X5689580D01*
X5676884Y7492992D01*
X7075161Y7251692D02*
X7062465Y7264388D01*
X7037073D01*
X7024377Y7251692D01*
Y7200908D01*
X7037073Y7188212D01*
X7062465D01*
X7075161Y7200908D01*
X7100553Y7251692D02*
X7113249Y7264388D01*
X7138641D01*
X7151336Y7251692D01*
Y7238996D01*
X7138641Y7226300D01*
X7125945D01*
X7138641D01*
X7151336Y7213604D01*
Y7200908D01*
X7138641Y7188212D01*
X7113249D01*
X7100553Y7200908D01*
X7176728Y7188212D02*
X7202120D01*
X7189424D01*
Y7264388D01*
X7176728Y7251692D01*
X6645265D02*
X6632569Y7264388D01*
X6607178D01*
X6594482Y7251692D01*
Y7200908D01*
X6607178Y7188212D01*
X6632569D01*
X6645265Y7200908D01*
X6670657Y7251692D02*
X6683353Y7264388D01*
X6708745D01*
X6721440Y7251692D01*
Y7238996D01*
X6708745Y7226300D01*
X6696049D01*
X6708745D01*
X6721440Y7213604D01*
Y7200908D01*
X6708745Y7188212D01*
X6683353D01*
X6670657Y7200908D01*
X6746832Y7251692D02*
X6759528Y7264388D01*
X6784920D01*
X6797616Y7251692D01*
Y7200908D01*
X6784920Y7188212D01*
X6759528D01*
X6746832Y7200908D01*
Y7251692D01*
X6220193D02*
X6207497Y7264388D01*
X6182105D01*
X6169410Y7251692D01*
Y7200908D01*
X6182105Y7188212D01*
X6207497D01*
X6220193Y7200908D01*
X6296368Y7188212D02*
X6245585D01*
X6296368Y7238996D01*
Y7251692D01*
X6283673Y7264388D01*
X6258281D01*
X6245585Y7251692D01*
X6321760Y7200908D02*
X6334456Y7188212D01*
X6359848D01*
X6372544Y7200908D01*
Y7251692D01*
X6359848Y7264388D01*
X6334456D01*
X6321760Y7251692D01*
Y7238996D01*
X6334456Y7226300D01*
X6372544D01*
X4152908Y9257729D02*
X4140212Y9245034D01*
Y9219642D01*
X4152908Y9206946D01*
X4203692D01*
X4216388Y9219642D01*
Y9245034D01*
X4203692Y9257729D01*
X4216388Y9333905D02*
Y9283121D01*
X4165604Y9333905D01*
X4152908D01*
X4140212Y9321209D01*
Y9295817D01*
X4152908Y9283121D01*
X4140212Y9359296D02*
Y9410080D01*
X4152908D01*
X4203692Y9359296D01*
X4216388D01*
X4876817Y7734292D02*
X4864121Y7746988D01*
X4838729D01*
X4826033Y7734292D01*
Y7683508D01*
X4838729Y7670812D01*
X4864121D01*
X4876817Y7683508D01*
X4952992Y7670812D02*
X4902208D01*
X4952992Y7721596D01*
Y7734292D01*
X4940296Y7746988D01*
X4914904D01*
X4902208Y7734292D01*
X5029167Y7746988D02*
X5003776Y7734292D01*
X4978384Y7708900D01*
Y7683508D01*
X4991080Y7670812D01*
X5016472D01*
X5029167Y7683508D01*
Y7696204D01*
X5016472Y7708900D01*
X4978384D01*
X8534417Y6565892D02*
X8521721Y6578588D01*
X8496329D01*
X8483633Y6565892D01*
Y6515108D01*
X8496329Y6502412D01*
X8521721D01*
X8534417Y6515108D01*
X8610592Y6502412D02*
X8559808D01*
X8610592Y6553196D01*
Y6565892D01*
X8597896Y6578588D01*
X8572504D01*
X8559808Y6565892D01*
X8686767Y6578588D02*
X8635984D01*
Y6540500D01*
X8661376Y6553196D01*
X8674072D01*
X8686767Y6540500D01*
Y6515108D01*
X8674072Y6502412D01*
X8648680D01*
X8635984Y6515108D01*
X10922017Y6756392D02*
X10909321Y6769088D01*
X10883929D01*
X10871233Y6756392D01*
Y6705608D01*
X10883929Y6692912D01*
X10909321D01*
X10922017Y6705608D01*
X10998192Y6692912D02*
X10947408D01*
X10998192Y6743696D01*
Y6756392D01*
X10985496Y6769088D01*
X10960104D01*
X10947408Y6756392D01*
X11023584D02*
X11036280Y6769088D01*
X11061672D01*
X11074367Y6756392D01*
Y6743696D01*
X11061672Y6731000D01*
X11074367Y6718304D01*
Y6705608D01*
X11061672Y6692912D01*
X11036280D01*
X11023584Y6705608D01*
Y6718304D01*
X11036280Y6731000D01*
X11023584Y6743696D01*
Y6756392D01*
X11036280Y6731000D02*
X11061672D01*
X10464817Y5727692D02*
X10452121Y5740388D01*
X10426729D01*
X10414033Y5727692D01*
Y5676908D01*
X10426729Y5664212D01*
X10452121D01*
X10464817Y5676908D01*
X10540992Y5664212D02*
X10490208D01*
X10540992Y5714996D01*
Y5727692D01*
X10528296Y5740388D01*
X10502904D01*
X10490208Y5727692D01*
X10604472Y5664212D02*
Y5740388D01*
X10566384Y5702300D01*
X10617167D01*
X10919217Y6258435D02*
X10906521Y6271131D01*
X10881129D01*
X10868433Y6258435D01*
Y6207652D01*
X10881129Y6194956D01*
X10906521D01*
X10919217Y6207652D01*
X10995392Y6194956D02*
X10944609D01*
X10995392Y6245739D01*
Y6258435D01*
X10982696Y6271131D01*
X10957304D01*
X10944609Y6258435D01*
X11020784D02*
X11033480Y6271131D01*
X11058872D01*
X11071567Y6258435D01*
Y6245739D01*
X11058872Y6233043D01*
X11046176D01*
X11058872D01*
X11071567Y6220347D01*
Y6207652D01*
X11058872Y6194956D01*
X11033480D01*
X11020784Y6207652D01*
X3987817Y6451592D02*
X3975121Y6464288D01*
X3949729D01*
X3937033Y6451592D01*
Y6400808D01*
X3949729Y6388112D01*
X3975121D01*
X3987817Y6400808D01*
X4063992Y6388112D02*
X4013208D01*
X4063992Y6438896D01*
Y6451592D01*
X4051296Y6464288D01*
X4025904D01*
X4013208Y6451592D01*
X4140167Y6388112D02*
X4089384D01*
X4140167Y6438896D01*
Y6451592D01*
X4127472Y6464288D01*
X4102080D01*
X4089384Y6451592D01*
X9102298Y7505712D02*
X9089602Y7493017D01*
Y7467625D01*
X9102298Y7454929D01*
X9153081D01*
X9165777Y7467625D01*
Y7493017D01*
X9153081Y7505712D01*
X9165777Y7581888D02*
Y7531104D01*
X9114993Y7581888D01*
X9102298D01*
X9089602Y7569192D01*
Y7543800D01*
X9102298Y7531104D01*
X9165777Y7607280D02*
Y7632672D01*
Y7619976D01*
X9089602D01*
X9102298Y7607280D01*
X9169417Y6896092D02*
X9156721Y6908788D01*
X9131329D01*
X9118633Y6896092D01*
Y6845308D01*
X9131329Y6832612D01*
X9156721D01*
X9169417Y6845308D01*
X9245592Y6832612D02*
X9194808D01*
X9245592Y6883396D01*
Y6896092D01*
X9232896Y6908788D01*
X9207504D01*
X9194808Y6896092D01*
X9270984D02*
X9283680Y6908788D01*
X9309072D01*
X9321767Y6896092D01*
Y6845308D01*
X9309072Y6832612D01*
X9283680D01*
X9270984Y6845308D01*
Y6896092D01*
X4378943Y10584159D02*
X4366248Y10596855D01*
X4340856D01*
X4328160Y10584159D01*
Y10533376D01*
X4340856Y10520680D01*
X4366248D01*
X4378943Y10533376D01*
X4404335Y10520680D02*
X4429727D01*
X4417031D01*
Y10596855D01*
X4404335Y10584159D01*
X4467815D02*
X4480511Y10596855D01*
X4505903D01*
X4518598Y10584159D01*
Y10571463D01*
X4505903Y10558768D01*
X4518598Y10546072D01*
Y10533376D01*
X4505903Y10520680D01*
X4480511D01*
X4467815Y10533376D01*
Y10546072D01*
X4480511Y10558768D01*
X4467815Y10571463D01*
Y10584159D01*
X4480511Y10558768D02*
X4505903D01*
X4241808Y8858264D02*
X4229112Y8845569D01*
Y8820177D01*
X4241808Y8807481D01*
X4292592D01*
X4305288Y8820177D01*
Y8845569D01*
X4292592Y8858264D01*
X4305288Y8883656D02*
Y8909048D01*
Y8896352D01*
X4229112D01*
X4241808Y8883656D01*
X4229112Y8947136D02*
Y8997919D01*
X4241808D01*
X4292592Y8947136D01*
X4305288D01*
X9522443Y10896579D02*
X9509748Y10909275D01*
X9484356D01*
X9471660Y10896579D01*
Y10845796D01*
X9484356Y10833100D01*
X9509748D01*
X9522443Y10845796D01*
X9547835Y10833100D02*
X9573227D01*
X9560531D01*
Y10909275D01*
X9547835Y10896579D01*
X9662098Y10909275D02*
X9636707Y10896579D01*
X9611315Y10871188D01*
Y10845796D01*
X9624011Y10833100D01*
X9649403D01*
X9662098Y10845796D01*
Y10858492D01*
X9649403Y10871188D01*
X9611315D01*
X10025363Y10896579D02*
X10012668Y10909275D01*
X9987276D01*
X9974580Y10896579D01*
Y10845796D01*
X9987276Y10833100D01*
X10012668D01*
X10025363Y10845796D01*
X10050755Y10833100D02*
X10076147D01*
X10063451D01*
Y10909275D01*
X10050755Y10896579D01*
X10165018Y10909275D02*
X10114235D01*
Y10871188D01*
X10139627Y10883883D01*
X10152323D01*
X10165018Y10871188D01*
Y10845796D01*
X10152323Y10833100D01*
X10126931D01*
X10114235Y10845796D01*
X8610608Y10458464D02*
X8597912Y10445769D01*
Y10420377D01*
X8610608Y10407681D01*
X8661392D01*
X8674088Y10420377D01*
Y10445769D01*
X8661392Y10458464D01*
X8674088Y10483856D02*
Y10509248D01*
Y10496552D01*
X8597912D01*
X8610608Y10483856D01*
X8674088Y10585424D02*
X8597912D01*
X8636000Y10547336D01*
Y10598119D01*
X9131825Y10452602D02*
X9119129Y10439906D01*
Y10414514D01*
X9131825Y10401818D01*
X9182609D01*
X9195304Y10414514D01*
Y10439906D01*
X9182609Y10452602D01*
X9195304Y10477994D02*
Y10503386D01*
Y10490690D01*
X9119129D01*
X9131825Y10477994D01*
Y10541473D02*
X9119129Y10554169D01*
Y10579561D01*
X9131825Y10592257D01*
X9144521D01*
X9157217Y10579561D01*
Y10566865D01*
Y10579561D01*
X9169913Y10592257D01*
X9182609D01*
X9195304Y10579561D01*
Y10554169D01*
X9182609Y10541473D01*
X8502660Y9715492D02*
X8489964Y9728188D01*
X8464573D01*
X8451877Y9715492D01*
Y9664708D01*
X8464573Y9652012D01*
X8489964D01*
X8502660Y9664708D01*
X8528052Y9652012D02*
X8553444D01*
X8540748D01*
Y9728188D01*
X8528052Y9715492D01*
X8591531Y9652012D02*
X8616923D01*
X8604227D01*
Y9728188D01*
X8591531Y9715492D01*
X8369308Y8502664D02*
X8356612Y8489969D01*
Y8464577D01*
X8369308Y8451881D01*
X8420092D01*
X8432788Y8464577D01*
Y8489969D01*
X8420092Y8502664D01*
X8432788Y8528056D02*
Y8553448D01*
Y8540752D01*
X8356612D01*
X8369308Y8528056D01*
Y8591536D02*
X8356612Y8604232D01*
Y8629624D01*
X8369308Y8642319D01*
X8420092D01*
X8432788Y8629624D01*
Y8604232D01*
X8420092Y8591536D01*
X8369308D01*
X8336041Y8229666D02*
X8323345Y8216970D01*
Y8191578D01*
X8336041Y8178882D01*
X8386824D01*
X8399520Y8191578D01*
Y8216970D01*
X8386824Y8229666D01*
Y8255057D02*
X8399520Y8267753D01*
Y8293145D01*
X8386824Y8305841D01*
X8336041D01*
X8323345Y8293145D01*
Y8267753D01*
X8336041Y8255057D01*
X8348737D01*
X8361432Y8267753D01*
Y8305841D01*
X9042408Y10109204D02*
X9029712Y10096508D01*
Y10071117D01*
X9042408Y10058421D01*
X9093192D01*
X9105888Y10071117D01*
Y10096508D01*
X9093192Y10109204D01*
X9029712Y10185379D02*
X9042408Y10159988D01*
X9067800Y10134596D01*
X9093192D01*
X9105888Y10147292D01*
Y10172684D01*
X9093192Y10185379D01*
X9080496D01*
X9067800Y10172684D01*
Y10134596D01*
X8362070Y10332661D02*
X8349374Y10319965D01*
Y10294573D01*
X8362070Y10281877D01*
X8412854D01*
X8425550Y10294573D01*
Y10319965D01*
X8412854Y10332661D01*
X8349374Y10408836D02*
Y10358052D01*
X8387462D01*
X8374766Y10383444D01*
Y10396140D01*
X8387462Y10408836D01*
X8412854D01*
X8425550Y10396140D01*
Y10370748D01*
X8412854Y10358052D01*
X8191508Y9842504D02*
X8178812Y9829809D01*
Y9804417D01*
X8191508Y9791721D01*
X8242291D01*
X8254987Y9804417D01*
Y9829809D01*
X8242291Y9842504D01*
X8254987Y9905984D02*
X8178812D01*
X8216899Y9867896D01*
Y9918680D01*
D80*
X8032800Y6607300D02*
G03*
X8162800Y6737300I0J130000D01*
G01*
Y7207300D02*
G03*
X8032800Y7337300I-130000J0D01*
G01*
X7562800D02*
G03*
X7432800Y7207300I0J-130000D01*
G01*
Y6737300D02*
G03*
X7562800Y6607300I130000J0D01*
G01*
X7602800Y6737300D02*
G03*
X7602800Y6737300I-40000J0D01*
G01*
X5522125Y10778767D02*
Y10888767D01*
X5087400Y10203700D02*
X5377400D01*
X5087400D02*
Y10268700D01*
X5377400D01*
Y10203700D02*
Y10268700D01*
X5519900Y9323400D02*
Y9523400D01*
X5579900D01*
Y9323400D02*
Y9523400D01*
X5519900Y9323400D02*
X5579900D01*
X5524500Y9025500D02*
Y9135500D01*
X4458800Y9246400D02*
Y9346400D01*
X4278800Y9246400D02*
Y9346400D01*
X5100100Y8501900D02*
X5390100D01*
X5100100D02*
Y8566900D01*
X5390100D01*
Y8501900D02*
Y8566900D01*
X5148485Y6842242D02*
X5417368Y6950877D01*
X5166382Y7572090D02*
X5417368Y6950877D01*
X4897498Y7463454D02*
X5166382Y7572090D01*
X4897498Y7463454D02*
X5148485Y6842242D01*
X7945700Y9311200D02*
Y11031200D01*
X6345700Y9311200D02*
X7945700D01*
X6345700D02*
Y11031200D01*
X7945700D01*
Y7513295D02*
Y9233295D01*
X6345700Y7513295D02*
X7945700D01*
X6345700D02*
Y9233295D01*
X7945700D01*
X5668095Y7555926D02*
Y7755927D01*
X5728095D01*
Y7555926D02*
Y7755927D01*
X5668095Y7555926D02*
X5728095D01*
X5496500Y6227000D02*
X5806500D01*
X5496500Y6727000D02*
X5806500D01*
Y6227000D02*
Y6727000D01*
X5496500Y6227000D02*
Y6727000D01*
X5068900Y5821200D02*
X5268900D01*
Y5761200D02*
Y5821200D01*
X5068900Y5761200D02*
X5268900D01*
X5068900D02*
Y5821200D01*
X6108700Y6041000D02*
Y6151000D01*
X8967300Y10198900D02*
Y10298900D01*
X8787300Y10198900D02*
Y10298900D01*
X7173900Y7288700D02*
X7273900D01*
X7173900Y7468700D02*
X7273900D01*
X6630200Y7288700D02*
X6730200D01*
X6630200Y7468700D02*
X6730200D01*
X6122200Y7288700D02*
X6222200D01*
X6122200Y7468700D02*
X6222200D01*
X5964800Y6894500D02*
X6074800D01*
X6960700Y6317100D02*
X7100700D01*
Y6967100D01*
X6960700D02*
X7100700D01*
X6960700Y6268600D02*
X7100700D01*
Y5618600D02*
Y6268600D01*
X6960700Y5618600D02*
X7100700D01*
X8388900Y5978800D02*
Y6078800D01*
X7628900Y5978800D02*
X8388900D01*
X7628900D02*
Y6078800D01*
X8388900Y6468800D02*
Y6568800D01*
X7628900D02*
X8388900D01*
X7628900Y6468800D02*
Y6568800D01*
X7432800Y6737300D02*
Y7207300D01*
X7562800Y7337300D02*
X7647800D01*
X8162800Y6737300D02*
Y7207300D01*
X7947800Y6607300D02*
X8032800D01*
X7947800Y7337300D02*
X8032800D01*
X7562800Y6607300D02*
X7647800D01*
X8519900Y7374700D02*
X8829900D01*
X8519900Y6874700D02*
X8829900D01*
X8519900D02*
Y7374700D01*
X8829900Y6874700D02*
Y7374700D01*
X8801900Y6847307D02*
X8901900D01*
X8801900Y6667307D02*
X8901900D01*
X9498600Y5915300D02*
Y6015300D01*
X8738600Y5915300D02*
X9498600D01*
X8738600D02*
Y6015300D01*
X9498600Y6405300D02*
Y6505300D01*
X8738600D02*
X9498600D01*
X8738600Y6405300D02*
Y6505300D01*
X9632081Y6525920D02*
X9715081D01*
X9632081Y6691020D02*
X9715081D01*
X9589500Y6479900D02*
X9589500Y6379900D01*
X9589500Y6479900D02*
X10349500D01*
X10349500Y6379900D01*
X9589500Y5989900D02*
X9589500Y5889900D01*
X10349500D01*
X10349500Y5989900D02*
X10349500Y5889900D01*
X10503700Y6567800D02*
X10603700D01*
X10513700Y6497800D02*
X10553700Y6567800D01*
X10603700Y6497800D01*
X10513700Y6497800D02*
X10603700Y6497800D01*
X10553700Y6567800D02*
Y6587800D01*
Y6467800D02*
Y6497800D01*
X10462903Y5957995D02*
Y6057995D01*
X10642904Y5957995D02*
Y6057995D01*
X9758903Y6937596D02*
X9829614Y6866885D01*
X9758903Y6937596D02*
X10296304Y7474997D01*
X10367015Y7404286D01*
X10105385Y6591113D02*
X10176096Y6520403D01*
X10713497Y7057804D01*
X10642786Y7128515D02*
X10713497Y7057804D01*
X10717046Y8501746D02*
X10817046D01*
Y7741746D02*
Y8501746D01*
X10717047Y7741746D02*
X10817046Y7741746D01*
X10227046Y8501746D02*
X10327046D01*
X10227046D02*
X10227046Y7741746D01*
X10327046Y7741746D01*
X9911200Y9412101D02*
X9911200Y9272100D01*
X9911200Y9412101D02*
X10561200Y9412100D01*
X10561200Y9272100D02*
X10561200Y9412100D01*
X8375527Y9453831D02*
X8446237Y9383121D01*
X8502806Y9581111D02*
X8573517Y9510400D01*
X8197500Y10337800D02*
X8312500D01*
X8167085Y8519606D02*
X8282085D01*
D81*
X5388600Y5945400D02*
Y5970400D01*
Y5945400D02*
X5863600D01*
Y5970400D01*
Y6145400D02*
Y6170400D01*
X5388600D02*
X5863600D01*
X5388600Y6145400D02*
Y6170400D01*
X5626100Y5945400D02*
Y6170400D01*
X6221600Y5470100D02*
X6246600D01*
Y5945100D01*
X6221600D02*
X6246600D01*
X6021600D02*
X6046600D01*
X6021600Y5470100D02*
Y5945100D01*
Y5470100D02*
X6046600D01*
X6021600Y5707600D02*
X6246600D01*
X10452100Y6756400D02*
X10528300D01*
Y6769100D01*
X10452100D02*
X10528300D01*
X10452100Y6756400D02*
Y6769100D01*
X10655300Y6756400D02*
Y6769100D01*
X10579100D02*
X10655300D01*
X10579100Y6756400D02*
Y6769100D01*
Y6756400D02*
X10655300D01*
X10452100Y6286500D02*
Y6756400D01*
X10655300Y6286500D02*
Y6756400D01*
X10452100Y6286500D02*
X10486200D01*
X10621200D02*
X10655300D01*
D89*
X5069900Y10096200D02*
G03*
X5069900Y10096200I-12500J0D01*
G01*
X5432400Y9558400D02*
G03*
X5432400Y9558400I-12500J0D01*
G01*
X5082600Y8394400D02*
G03*
X5082600Y8394400I-12500J0D01*
G01*
X4696746Y7377295D02*
G03*
X4696746Y7377295I-12500J0D01*
G01*
X6213200Y10963700D02*
G03*
X6213200Y10963700I-12500J0D01*
G01*
Y9165795D02*
G03*
X6213200Y9165795I-12500J0D01*
G01*
X5580595Y7790927D02*
G03*
X5580595Y7790927I-12500J0D01*
G01*
X5424000Y6752500D02*
G03*
X5424000Y6752500I-12500J0D01*
G01*
X5316400Y5921200D02*
G03*
X5316400Y5921200I-12500J0D01*
G01*
X7413200Y6297100D02*
G03*
X7413200Y6297100I-12500J0D01*
G01*
Y5598600D02*
G03*
X7413200Y5598600I-12500J0D01*
G01*
X7511400Y6273800D02*
G03*
X7511400Y6273800I-12500J0D01*
G01*
X8927400Y6849200D02*
G03*
X8927400Y6849200I-12500J0D01*
G01*
X8621100Y6210300D02*
G03*
X8621100Y6210300I-12500J0D01*
G01*
X10492000Y6184900D02*
G03*
X10492000Y6184900I-12500J0D01*
G01*
X10609325Y7358324D02*
G03*
X10609325Y7358324I-12500J0D01*
G01*
X10534546Y7611746D02*
G03*
X10534546Y7611746I-12500J0D01*
G01*
X10593700Y9712100D02*
G03*
X10593700Y9712100I-12500J0D01*
G01*
D90*
X6468200Y10933700D02*
G03*
X6468200Y10933700I-25000J0D01*
G01*
Y9135795D02*
G03*
X6468200Y9135795I-25000J0D01*
G01*
%TF.MD5,dd5d8fbc4a0fc66092d8b65558fb50b2*%
M02*
