M48
;Layer_Color=9474304
;FILE_FORMAT=4:4
METRIC,LZ
;TYPE=PLATED
T1F00S00C0.4000
T2F00S00C0.7620
T4F00S00C3.0480
%
T01
X0079883Y0072898
Y0074295
X0078359Y0074422
X0077089
X0075819
X0075628Y0073373
X0077978Y0073173
X00765924Y00773632
X0076454Y0078359
X0075057
Y0077343
X0073787Y0077216
Y0078359
X0072517
Y0077216
X006985Y0079121
X0067437
X0067557Y0068481
X0066294Y0068453
Y006731
X0066421Y0066167
X0067557Y0066061
X0067564Y0067183
X0068707Y006731
Y00661516
Y0065024
X006731Y0064389
X006604Y0065024
X0064857Y0064361
X0063755Y00648467
X0063867Y0066061
X0065151Y006604
X0065024Y006731
X0063755Y00673281
X0063867Y0068481
X0064857
X00687706Y00688062
X007112Y0065405
X00725121Y00651523
X007366Y0065405
X00735937Y00641232
X0071755Y0064135
X0076739Y0064338
X00773637Y00636395
X0078867Y0063754
X00785098Y00651784
X0076964Y0065473
X0075946Y0065786
X0075925Y00671923
X0077728Y0066523
X00739886Y00577133
X00741424Y00565681
X0073025Y005715
X00719375Y00571151
X00720563Y00582057
X006858Y0057785
X006731
X006604
X0065847Y0059076
X006731Y0059055
X0068547Y0059076
X0067945Y0060325
X0066675
X0065405
X0064389Y0059944
X0064135Y0059055
Y0057785
X00649699Y00583989
X0065024Y005715
X006477Y0061595
X006604
X006731
X006858
X0063755Y00606497
X00667434Y00800127
X00678725
X00690977Y00800456
X0070231Y0080137
Y008128
X00691076Y00813428
X0067818Y008128
X0066421Y0081153
X0066167Y0082677
X0067183Y0082296
X0068834Y0082423
X0070231Y008255
X00705489Y00837329
X00694512
X00681284Y00835814
X0066802Y0083693
Y0084836
X0068072Y0084963
X00691076Y00849392
X0070485Y0084963
X0070104Y0086233
X0068834
X00691076Y0087302
X0067945Y0087249
X0066802
X0066421Y0086106
X0067564
X0067437Y0088265
X006858
X0069723
X0070358Y0087376
X0072517Y0086741
X0072644Y0085852
X007366Y0085217
X0074549Y0085725
X00748173Y00868456
X007366Y0086741
X0073914Y0088011
X0074041Y0089154
X00730781Y0088748
X0072644Y0087884
X0075184
X00754255Y00889435
X0076327Y0088138
X0076073Y0087122
X0075819Y0085979
X0075184Y0082169
X0075057Y0081026
Y0079756
X0073787Y0079629
Y0080899
X0072644
X0072517Y0082169
X0073787Y0082042
X0076454Y0081915
Y0080772
Y0079629
X0072517Y0079502
X0066294Y0088265
X0067056Y0097028
X0066421Y0097917
X0066675Y009906
X00676634Y00992864
X0067802Y00980781
X0068707Y0098679
X0068834Y0099695
X006985Y0099822
X0070231Y0100838
X00692299Y01007423
X0069596Y0101854
X0069088Y0102743
X0070104
Y0103886
X0068961
X00678927Y01034141
X0068072Y0102489
Y0101473
Y010033
X0066548Y0100203
X0066929Y0101219
X0067056Y0102235
X0066421Y0102997
X0066802Y0105156
X00664117Y01062323
X0067564Y0106045
X0068453Y0105156
X0070104Y0105029
X0070485Y0106299
X0069469
X0072517Y0105664
X0073152Y0104648
X0072644Y0103505
X0073914Y0103378
X0075184Y0103505
X0074803Y0104521
X0076454Y0104775
X00755422Y01057791
X0075438Y0107061
X0074549
X0073152
X00726216Y01082264
X0073914Y0108204
X0075311
X0076581Y0108331
X0076454Y0106934
X0074041Y0105791
X007366Y0099949
X0072517
X0072771Y0098806
X0074041
X0075127Y00987653
X0075057Y0097663
X0073914Y0097536
X0072644
X0073152Y0096647
X0074295Y0096393
X00754001Y00966091
X0076454Y0096393
Y0097663
X0076327Y0098806
X0075946Y0099949
X0074803Y0099822
X0069596Y0098425
X0070104Y0097409
X006858Y0097282
X0064389Y009906
Y01001085
X0060452Y00930528
X00605842Y00921232
X01001853Y00844853
X01002997Y00832817
T02
X008382Y0057785
X008636
X00889
X009144
X009398
X009652
X009906
X01016
X010795Y00610799
Y00635799
Y00660799
Y006858
Y007108
Y007358
Y007608
X0091019Y0067056
X0086019
X0057785Y006858
X0055245
X0046355Y006838
Y006588
Y006338
Y006088
Y005838
Y005588
X00564986Y00558801
X00577678Y00551813
X0057785Y005842
X0055245
Y0078701
X0057785
X0046355Y0077638
Y0075138
Y007088
Y0080138
Y0082638
Y0085138
Y0087638
Y0090138
Y0094188
Y0096688
Y0099188
Y0101688
Y0104188
Y0106688
Y0109188
X0055245Y0106641
X0057785
Y00964809
X0055245
Y00888609
X0057785
X00860589Y00810278
X0090983Y0081896
X00902496Y0096747
X0086714Y01002826
X008636Y0107315
X008382
X00889
X009144
X009398
X009652
X009906
X01016
X010795Y010414
Y01016
Y009906
Y009652
Y009398
Y009144
Y00889
Y008636
T04
X0109855Y0056515
X0040005
Y0108585
X0109855
M30
