%TF.GenerationSoftware,Altium Limited,Altium Designer,20.0.13 (296)*%
G04 Layer_Color=8421504*
%FSLAX45Y45*%
%MOMM*%
%TF.FileFunction,Paste,Top*%
%TF.Part,Single*%
G01*
G75*
%TA.AperFunction,SMDPad,CuDef*%
%ADD29R,0.90000X1.00000*%
%ADD30R,1.00000X0.90000*%
%ADD31R,0.95000X1.45000*%
%ADD32R,0.60000X1.00000*%
%ADD33R,0.95000X0.40000*%
%ADD34R,1.80000X1.15000*%
%ADD35R,1.00000X0.95000*%
G04:AMPARAMS|DCode=36|XSize=0.95mm|YSize=1mm|CornerRadius=0mm|HoleSize=0mm|Usage=FLASHONLY|Rotation=20.000|XOffset=0mm|YOffset=0mm|HoleType=Round|Shape=Rectangle|*
%AMROTATEDRECTD36*
4,1,4,-0.27534,-0.63231,-0.61736,0.30739,0.27534,0.63231,0.61736,-0.30739,-0.27534,-0.63231,0.0*
%
%ADD36ROTATEDRECTD36*%

G04:AMPARAMS|DCode=37|XSize=2.15mm|YSize=0.95mm|CornerRadius=0mm|HoleSize=0mm|Usage=FLASHONLY|Rotation=22.000|XOffset=0mm|YOffset=0mm|HoleType=Round|Shape=Rectangle|*
%AMROTATEDRECTD37*
4,1,4,-0.81879,-0.84311,-1.17466,0.03771,0.81879,0.84311,1.17466,-0.03771,-0.81879,-0.84311,0.0*
%
%ADD37ROTATEDRECTD37*%

G04:AMPARAMS|DCode=38|XSize=3.25mm|YSize=2.15mm|CornerRadius=0mm|HoleSize=0mm|Usage=FLASHONLY|Rotation=112.000|XOffset=0mm|YOffset=0mm|HoleType=Round|Shape=Rectangle|*
%AMROTATEDRECTD38*
4,1,4,1.60546,-1.10397,-0.38799,-1.90938,-1.60546,1.10397,0.38799,1.90938,1.60546,-1.10397,0.0*
%
%ADD38ROTATEDRECTD38*%

%ADD39R,1.30000X0.66500*%
%ADD40R,5.25000X6.23000*%
%ADD41R,5.25000X10.30000*%
%ADD42R,1.55000X0.60000*%
G04:AMPARAMS|DCode=43|XSize=0.9mm|YSize=1mm|CornerRadius=0mm|HoleSize=0mm|Usage=FLASHONLY|Rotation=20.000|XOffset=0mm|YOffset=0mm|HoleType=Round|Shape=Rectangle|*
%AMROTATEDRECTD43*
4,1,4,-0.25185,-0.62376,-0.59387,0.31594,0.25185,0.62376,0.59387,-0.31594,-0.25185,-0.62376,0.0*
%
%ADD43ROTATEDRECTD43*%

%ADD44R,0.40000X0.95000*%
%ADD45R,1.30000X1.80000*%
%ADD46R,0.95000X1.40000*%
%ADD47R,1.80000X1.30000*%
%ADD48R,0.95000X1.00000*%
G04:AMPARAMS|DCode=49|XSize=0.95mm|YSize=1mm|CornerRadius=0mm|HoleSize=0mm|Usage=FLASHONLY|Rotation=210.000|XOffset=0mm|YOffset=0mm|HoleType=Round|Shape=Rectangle|*
%AMROTATEDRECTD49*
4,1,4,0.16136,0.67051,0.66136,-0.19551,-0.16136,-0.67051,-0.66136,0.19551,0.16136,0.67051,0.0*
%
%ADD49ROTATEDRECTD49*%

%ADD50R,1.15000X1.80000*%
%ADD51R,1.40000X0.95000*%
%ADD52R,6.10000X5.55000*%
%ADD53R,2.85000X1.25000*%
%ADD54R,2.45000X3.20000*%
%ADD55R,2.20000X1.60000*%
%ADD56R,1.14000X2.03000*%
%ADD57R,1.20000X1.20000*%
%ADD58R,1.20000X1.20000*%
G04:AMPARAMS|DCode=59|XSize=3.2mm|YSize=2.45mm|CornerRadius=0mm|HoleSize=0mm|Usage=FLASHONLY|Rotation=315.000|XOffset=0mm|YOffset=0mm|HoleType=Round|Shape=Rectangle|*
%AMROTATEDRECTD59*
4,1,4,-1.99758,0.26517,-0.26517,1.99758,1.99758,-0.26517,0.26517,-1.99758,-1.99758,0.26517,0.0*
%
%ADD59ROTATEDRECTD59*%

%ADD60R,3.20000X2.45000*%
%ADD61R,1.25000X2.85000*%
%ADD62R,5.55000X6.10000*%
G04:AMPARAMS|DCode=63|XSize=0.95mm|YSize=1mm|CornerRadius=0mm|HoleSize=0mm|Usage=FLASHONLY|Rotation=135.000|XOffset=0mm|YOffset=0mm|HoleType=Round|Shape=Rectangle|*
%AMROTATEDRECTD63*
4,1,4,0.68943,0.01768,-0.01768,-0.68943,-0.68943,-0.01768,0.01768,0.68943,0.68943,0.01768,0.0*
%
%ADD63ROTATEDRECTD63*%

G04:AMPARAMS|DCode=64|XSize=1.15mm|YSize=1.8mm|CornerRadius=0mm|HoleSize=0mm|Usage=FLASHONLY|Rotation=135.000|XOffset=0mm|YOffset=0mm|HoleType=Round|Shape=Rectangle|*
%AMROTATEDRECTD64*
4,1,4,1.04298,0.22981,-0.22981,-1.04298,-1.04298,-0.22981,0.22981,1.04298,1.04298,0.22981,0.0*
%
%ADD64ROTATEDRECTD64*%

%ADD65R,1.45000X1.15000*%
G36*
X10442200Y8968100D02*
X10272200D01*
Y9166100D01*
X10442200Y9166101D01*
X10442200Y8968100D01*
D02*
G37*
G36*
X10200200D02*
X10030200D01*
X10030200Y9166100D01*
X10200200Y9166100D01*
X10200200Y8968100D01*
D02*
G37*
G36*
X10442200Y8698100D02*
X10272200D01*
X10272200Y8896100D01*
X10442200D01*
X10442200Y8698100D01*
D02*
G37*
G36*
X10200200D02*
X10030200D01*
X10030200Y8896100D01*
X10200200Y8896100D01*
X10200200Y8698100D01*
D02*
G37*
G36*
X6854700Y6678100D02*
X6656700D01*
Y6848100D01*
X6854700D01*
Y6678100D01*
D02*
G37*
G36*
X6584700D02*
X6386700D01*
Y6848100D01*
X6584700D01*
Y6678100D01*
D02*
G37*
G36*
X6854700Y6436100D02*
X6656700D01*
Y6606100D01*
X6854700D01*
Y6436100D01*
D02*
G37*
G36*
X6584700D02*
X6386700D01*
Y6606100D01*
X6584700D01*
Y6436100D01*
D02*
G37*
G36*
X6854700Y5979600D02*
X6656700D01*
Y6149600D01*
X6854700D01*
Y5979600D01*
D02*
G37*
G36*
X6584700D02*
X6386700D01*
Y6149600D01*
X6584700D01*
Y5979600D01*
D02*
G37*
G36*
X6854700Y5737600D02*
X6656700D01*
Y5907600D01*
X6854700D01*
Y5737600D01*
D02*
G37*
G36*
X6584700D02*
X6386700D01*
Y5907600D01*
X6584700D01*
Y5737600D01*
D02*
G37*
D29*
X5110500Y10833100D02*
D03*
X5270500D02*
D03*
X5110500Y10668000D02*
D03*
X5270500D02*
D03*
X5664200Y10121900D02*
D03*
X5504200D02*
D03*
X5668000Y9956800D02*
D03*
X5508000D02*
D03*
X5114300Y9944100D02*
D03*
X5274300D02*
D03*
X4873000Y9664700D02*
D03*
X5033000D02*
D03*
X5076200Y9017000D02*
D03*
X5236200D02*
D03*
X5761583Y9054572D02*
D03*
X5921584D02*
D03*
X4874980Y9486591D02*
D03*
X5034980D02*
D03*
X5072400Y8851900D02*
D03*
X5232400D02*
D03*
X5491500Y8369300D02*
D03*
X5651500D02*
D03*
X5655300Y8191500D02*
D03*
X5495300D02*
D03*
X5152400Y8255000D02*
D03*
X5312400D02*
D03*
X4898400Y8051800D02*
D03*
X5058400D02*
D03*
X4894600Y7886700D02*
D03*
X5054600D02*
D03*
X4923800Y6057900D02*
D03*
X5083800D02*
D03*
X5781317Y5698847D02*
D03*
X5941317D02*
D03*
X4199900Y6604000D02*
D03*
X4359900D02*
D03*
X4199900Y6248400D02*
D03*
X4359900D02*
D03*
X4199900Y6070600D02*
D03*
X4359900D02*
D03*
X5972800Y7200900D02*
D03*
X5812800D02*
D03*
X8276600Y7429500D02*
D03*
X8436600D02*
D03*
D30*
X4889500Y10828000D02*
D03*
Y10668000D02*
D03*
X5969000Y10613295D02*
D03*
Y10773295D02*
D03*
Y10130800D02*
D03*
Y10290800D02*
D03*
X5880100Y9804400D02*
D03*
Y9964400D02*
D03*
X4864100Y9940300D02*
D03*
Y10100300D02*
D03*
X5321300Y9635500D02*
D03*
Y9795500D02*
D03*
X5194300Y9318000D02*
D03*
Y9478000D02*
D03*
X5842000Y9330700D02*
D03*
Y9490700D02*
D03*
X4917400Y9014756D02*
D03*
Y8854756D02*
D03*
X4955500Y8219659D02*
D03*
Y8379659D02*
D03*
X5334000Y7899400D02*
D03*
Y8059400D02*
D03*
X5194300Y7717800D02*
D03*
Y7877800D02*
D03*
X5842000Y8437900D02*
D03*
Y8597900D02*
D03*
X5880100Y8064500D02*
D03*
Y8224500D02*
D03*
X5981700Y7755900D02*
D03*
Y7915900D02*
D03*
X5041900Y6219200D02*
D03*
Y6379200D02*
D03*
X4902200Y6219200D02*
D03*
Y6379200D02*
D03*
X4914900Y5896600D02*
D03*
Y5736600D02*
D03*
X6223000Y6778000D02*
D03*
Y6938000D02*
D03*
X8242300Y7095500D02*
D03*
Y7255500D02*
D03*
D31*
X5622125Y10833767D02*
D03*
X5422125D02*
D03*
X5624500Y9080500D02*
D03*
X5424500D02*
D03*
D32*
X5232400Y10351200D02*
D03*
X5327400Y10121200D02*
D03*
X5137400D02*
D03*
X5245100Y8649400D02*
D03*
X5340100Y8419400D02*
D03*
X5150100D02*
D03*
D33*
X5659900Y9488400D02*
D03*
Y9423400D02*
D03*
Y9358400D02*
D03*
X5439900D02*
D03*
Y9423400D02*
D03*
Y9488400D02*
D03*
X5808095Y7720927D02*
D03*
Y7655927D02*
D03*
Y7590926D02*
D03*
X5588095D02*
D03*
Y7655927D02*
D03*
Y7720927D02*
D03*
D34*
X4368800Y9446400D02*
D03*
Y9146400D02*
D03*
X8877300Y10398900D02*
D03*
Y10098900D02*
D03*
X10552903Y5857995D02*
D03*
Y6157995D02*
D03*
D35*
X4409700Y8963293D02*
D03*
Y8803293D02*
D03*
X8242300Y8162300D02*
D03*
Y8322300D02*
D03*
X9131300Y7357100D02*
D03*
Y7197100D02*
D03*
X8130700Y7565595D02*
D03*
Y7405595D02*
D03*
X10655300Y9445000D02*
D03*
Y9605000D02*
D03*
X10312400Y9660900D02*
D03*
Y9820900D02*
D03*
X10172700Y9660900D02*
D03*
Y9820900D02*
D03*
X8229600Y9978400D02*
D03*
Y10138400D02*
D03*
X9017000Y10524500D02*
D03*
Y10684500D02*
D03*
X8509000Y10537200D02*
D03*
Y10697200D02*
D03*
X8491954Y5668500D02*
D03*
Y5508500D02*
D03*
X9525000Y5668000D02*
D03*
Y5508000D02*
D03*
Y10679184D02*
D03*
Y10519184D02*
D03*
X10027364Y10679423D02*
D03*
Y10519423D02*
D03*
X4381500Y10367000D02*
D03*
Y10207000D02*
D03*
D36*
X4908164Y7559556D02*
D03*
X5058515Y7614279D02*
D03*
D37*
X4802390Y7311783D02*
D03*
X4888550Y7098530D02*
D03*
X4974709Y6885278D02*
D03*
D38*
X5426316Y7315801D02*
D03*
D39*
X6235700Y10871200D02*
D03*
Y10771200D02*
D03*
Y10671200D02*
D03*
Y10571200D02*
D03*
Y10471200D02*
D03*
Y10371200D02*
D03*
Y10271200D02*
D03*
Y10171200D02*
D03*
Y10071200D02*
D03*
Y9971200D02*
D03*
Y9871200D02*
D03*
Y9771200D02*
D03*
Y9671200D02*
D03*
Y9571200D02*
D03*
Y9471200D02*
D03*
X8055700D02*
D03*
Y9571200D02*
D03*
Y9671200D02*
D03*
Y9771200D02*
D03*
Y9871200D02*
D03*
Y9971200D02*
D03*
Y10071200D02*
D03*
Y10171200D02*
D03*
Y10271200D02*
D03*
Y10371200D02*
D03*
Y10471200D02*
D03*
Y10571200D02*
D03*
Y10671200D02*
D03*
Y10771200D02*
D03*
Y10871200D02*
D03*
X6235700Y9073295D02*
D03*
Y8973295D02*
D03*
Y8873295D02*
D03*
Y8773295D02*
D03*
Y8673295D02*
D03*
Y8573295D02*
D03*
Y8473295D02*
D03*
Y8373295D02*
D03*
Y8273295D02*
D03*
Y8173295D02*
D03*
Y8073295D02*
D03*
Y7973295D02*
D03*
Y7873295D02*
D03*
Y7773295D02*
D03*
Y7673295D02*
D03*
X8055700D02*
D03*
Y7773295D02*
D03*
Y7873295D02*
D03*
Y7973295D02*
D03*
Y8073295D02*
D03*
Y8173295D02*
D03*
Y8273295D02*
D03*
Y8373295D02*
D03*
Y8473295D02*
D03*
Y8573295D02*
D03*
Y8673295D02*
D03*
Y8773295D02*
D03*
Y8873295D02*
D03*
Y8973295D02*
D03*
Y9073295D02*
D03*
D40*
X7450700Y10587700D02*
D03*
Y9754700D02*
D03*
Y8789795D02*
D03*
Y7956795D02*
D03*
D41*
X6840700Y10171200D02*
D03*
Y8373295D02*
D03*
D42*
X5921500Y6286500D02*
D03*
Y6413500D02*
D03*
Y6540500D02*
D03*
Y6667500D02*
D03*
X5381500Y6286500D02*
D03*
Y6413500D02*
D03*
Y6540500D02*
D03*
Y6667500D02*
D03*
X8404900Y7315200D02*
D03*
Y7188200D02*
D03*
Y7061200D02*
D03*
Y6934200D02*
D03*
X8944900Y7315200D02*
D03*
Y7188200D02*
D03*
Y7061200D02*
D03*
Y6934200D02*
D03*
D43*
X4966724Y6576638D02*
D03*
X5117076Y6631362D02*
D03*
D44*
X5233900Y5681200D02*
D03*
X5168900D02*
D03*
X5103900D02*
D03*
Y5901200D02*
D03*
X5168900D02*
D03*
X5233900D02*
D03*
D45*
X5481100Y6057900D02*
D03*
X5771100D02*
D03*
D46*
X6208700Y6096000D02*
D03*
X6008700D02*
D03*
D47*
X6134100Y5562600D02*
D03*
Y5852600D02*
D03*
D48*
X4410700Y7099300D02*
D03*
X4250700D02*
D03*
X4199900Y6426200D02*
D03*
X4359900D02*
D03*
X8703300Y7454900D02*
D03*
X8543300D02*
D03*
X8810000D02*
D03*
X8970000D02*
D03*
X8931900Y6580600D02*
D03*
X8771900D02*
D03*
X10722600Y6261100D02*
D03*
X10562600D02*
D03*
X10709900Y6781800D02*
D03*
X10549900D02*
D03*
D49*
X5822382Y7418700D02*
D03*
X5683818Y7338700D02*
D03*
D50*
X7373900Y7378700D02*
D03*
X7073900D02*
D03*
X6830200D02*
D03*
X6530200D02*
D03*
X6322200D02*
D03*
X6022200D02*
D03*
X8701900Y6757307D02*
D03*
X9001900D02*
D03*
D51*
X6019800Y6994500D02*
D03*
Y6794500D02*
D03*
D52*
X6620700Y6642100D02*
D03*
Y5943600D02*
D03*
D53*
X7285700Y6870100D02*
D03*
Y6414100D02*
D03*
Y5715600D02*
D03*
Y6171600D02*
D03*
D54*
X8343900Y6273800D02*
D03*
X7673900D02*
D03*
X9453600Y6210300D02*
D03*
X8783600D02*
D03*
X9634500Y6184900D02*
D03*
X10304500D02*
D03*
D55*
X7797800Y6652300D02*
D03*
Y7292300D02*
D03*
D56*
X9540081Y6608470D02*
D03*
X9807081D02*
D03*
D57*
X10553700Y6384800D02*
D03*
D58*
Y6670800D02*
D03*
D59*
X9999319Y6760819D02*
D03*
X10473081Y7234581D02*
D03*
D60*
X10522047Y8456746D02*
D03*
Y7786746D02*
D03*
D61*
X10464200Y9597100D02*
D03*
X10008200Y9597100D02*
D03*
D62*
X10236200Y8932100D02*
D03*
D63*
X8242300Y9448800D02*
D03*
X8355437Y9335663D02*
D03*
X8565569Y9887531D02*
D03*
X8452431Y10000669D02*
D03*
D64*
X8580588Y9376050D02*
D03*
X8368455Y9588182D02*
D03*
D65*
X8255000Y10427800D02*
D03*
Y10247800D02*
D03*
X8224585Y8609606D02*
D03*
Y8429605D02*
D03*
%TF.MD5,dddb8c1f9921a52a04b80c9a60d0f945*%
M02*
