%TF.GenerationSoftware,Altium Limited,Altium Designer,20.0.13 (296)*%
G04 Layer_Color=255*
%FSLAX45Y45*%
%MOMM*%
%TF.FileFunction,Pads,Bot*%
%TF.Part,Single*%
G01*
G75*
%TA.AperFunction,ComponentPad*%
%ADD69C,2.03200*%
%ADD70C,1.77800*%
G04:AMPARAMS|DCode=71|XSize=1.524mm|YSize=2.032mm|CornerRadius=0mm|HoleSize=0mm|Usage=FLASHONLY|Rotation=135.000|XOffset=0mm|YOffset=0mm|HoleType=Round|Shape=Round|*
%AMOVALD71*
21,1,0.50800,1.52400,0.00000,0.00000,225.0*
1,1,1.52400,0.17961,0.17961*
1,1,1.52400,-0.17961,-0.17961*
%
%ADD71OVALD71*%

G04:AMPARAMS|DCode=72|XSize=5.08mm|YSize=3.048mm|CornerRadius=0.762mm|HoleSize=0mm|Usage=FLASHONLY|Rotation=45.000|XOffset=0mm|YOffset=0mm|HoleType=Round|Shape=RoundedRectangle|*
%AMROUNDEDRECTD72*
21,1,5.08000,1.52400,0,0,45.0*
21,1,3.55600,3.04800,0,0,45.0*
1,1,1.52400,1.79605,0.71842*
1,1,1.52400,-0.71842,-1.79605*
1,1,1.52400,-1.79605,-0.71842*
1,1,1.52400,0.71842,1.79605*
%
%ADD72ROUNDEDRECTD72*%
%TA.AperFunction,ViaPad*%
%ADD73C,4.06400*%
D69*
X8605894Y8102778D02*
D03*
X10795000Y6107995D02*
D03*
Y6357995D02*
D03*
Y6607995D02*
D03*
Y7107996D02*
D03*
Y7357996D02*
D03*
Y7607996D02*
D03*
X9024957Y9674703D02*
D03*
X4635500Y7088001D02*
D03*
Y6838001D02*
D03*
Y6588001D02*
D03*
Y6338000D02*
D03*
Y6088000D02*
D03*
Y5838000D02*
D03*
Y5588000D02*
D03*
Y9013800D02*
D03*
Y8763800D02*
D03*
Y8513800D02*
D03*
Y8263800D02*
D03*
Y8013799D02*
D03*
Y7763799D02*
D03*
Y10918800D02*
D03*
Y10668800D02*
D03*
Y10418800D02*
D03*
Y10168800D02*
D03*
Y9918799D02*
D03*
Y9668799D02*
D03*
Y9418799D02*
D03*
X9101900Y6705600D02*
D03*
X8601900D02*
D03*
X8382000Y10731500D02*
D03*
X8636000D02*
D03*
X8890000D02*
D03*
X9144000D02*
D03*
X9398000D02*
D03*
X9652000D02*
D03*
X9906000D02*
D03*
X10160000D02*
D03*
X9652000Y5778500D02*
D03*
X9398000D02*
D03*
X9144000D02*
D03*
X8890000D02*
D03*
X8636000D02*
D03*
X8382000D02*
D03*
X10795000Y10414000D02*
D03*
Y10160000D02*
D03*
Y9906000D02*
D03*
Y9652000D02*
D03*
Y9398000D02*
D03*
Y9144000D02*
D03*
Y8890000D02*
D03*
Y8636000D02*
D03*
D70*
X9098298Y8189602D02*
D03*
X10795000Y6857996D02*
D03*
X4635500Y7513799D02*
D03*
X5778500Y7870095D02*
D03*
X5524500D02*
D03*
Y6850380D02*
D03*
X5778500Y6858000D02*
D03*
Y9648095D02*
D03*
X5524500D02*
D03*
Y10664095D02*
D03*
X5803900D02*
D03*
X5524500Y8886095D02*
D03*
X5778500D02*
D03*
X5524500Y5842000D02*
D03*
X5778500D02*
D03*
X10160000Y5778500D02*
D03*
X9906000D02*
D03*
D71*
X8671403Y10028257D02*
D03*
D72*
X9625789Y7021689D02*
D03*
X10120764Y7516663D02*
D03*
X8975253Y8960013D02*
D03*
X9470227Y9454987D02*
D03*
X9473391Y7443991D02*
D03*
X9968365Y7938966D02*
D03*
D73*
X10985500Y5651500D02*
D03*
Y10858500D02*
D03*
X4000500D02*
D03*
Y5651500D02*
D03*
%TF.MD5,4337a88ad054e4a22262826a13295a2e*%
M02*
